<svg width="20" height="20" viewBox="0 0 20 20" fill="none" xmlns="http://www.w3.org/2000/svg">
<g clip-path="url(#clip0_214_1052)">
<path d="M17.4167 3.57583C17.1232 2.77268 16.5902 2.07899 15.8897 1.58852C15.1892 1.09806 14.3551 0.834448 13.5 0.833328H6.5C5.6449 0.834448 4.81076 1.09806 4.1103 1.58852C3.40985 2.07899 2.87685 2.77268 2.58334 3.57583L0.333337 9.765C0.112045 10.3746 -0.00077061 11.0182 3.96155e-06 11.6667V12.5C0.0014909 13.144 0.152864 13.7788 0.442141 14.3542C0.731419 14.9295 1.15066 15.4297 1.66667 15.815C1.66667 15.8217 1.66667 15.8267 1.66667 15.8333V17.5C1.66667 18.163 1.93006 18.7989 2.3989 19.2678C2.86774 19.7366 3.50363 20 4.16667 20C4.82971 20 5.4656 19.7366 5.93444 19.2678C6.40328 18.7989 6.66667 18.163 6.66667 17.5V16.6667H13.3333V17.5C13.3333 18.163 13.5967 18.7989 14.0656 19.2678C14.5344 19.7366 15.1703 20 15.8333 20C16.4964 20 17.1323 19.7366 17.6011 19.2678C18.0699 18.7989 18.3333 18.163 18.3333 17.5V15.8333C18.3333 15.8267 18.3333 15.8217 18.3333 15.815C18.8493 15.4297 19.2686 14.9295 19.5579 14.3542C19.8471 13.7788 19.9985 13.144 20 12.5V11.6667C20.0009 11.0184 19.888 10.3751 19.6667 9.76583L17.4167 3.57583ZM4.15167 4.14583C4.32787 3.6643 4.64745 3.24837 5.06734 2.95408C5.48724 2.6598 5.98726 2.50132 6.5 2.49999H13.5C14.013 2.50098 14.5134 2.6593 14.9336 2.95361C15.3539 3.24791 15.6737 3.66404 15.85 4.14583L17.6733 9.16666H2.32584L4.15167 4.14583ZM5 17.5C5 17.721 4.91221 17.933 4.75593 18.0893C4.59965 18.2455 4.38768 18.3333 4.16667 18.3333C3.94566 18.3333 3.7337 18.2455 3.57742 18.0893C3.42113 17.933 3.33334 17.721 3.33334 17.5V16.5833C3.60761 16.639 3.8868 16.6669 4.16667 16.6667H5V17.5ZM16.6667 17.5C16.6667 17.721 16.5789 17.933 16.4226 18.0893C16.2663 18.2455 16.0544 18.3333 15.8333 18.3333C15.6123 18.3333 15.4004 18.2455 15.2441 18.0893C15.0878 17.933 15 17.721 15 17.5V16.6667H15.8333C16.1132 16.6669 16.3924 16.639 16.6667 16.5833V17.5ZM18.3333 12.5C18.3333 13.163 18.0699 13.7989 17.6011 14.2678C17.1323 14.7366 16.4964 15 15.8333 15H4.16667C3.50363 15 2.86774 14.7366 2.3989 14.2678C1.93006 13.7989 1.66667 13.163 1.66667 12.5V11.6667C1.67007 11.3861 1.70388 11.1066 1.7675 10.8333H3.33334V11.6667C3.33334 11.8877 3.42113 12.0996 3.57742 12.2559C3.7337 12.4122 3.94566 12.5 4.16667 12.5C4.38768 12.5 4.59965 12.4122 4.75593 12.2559C4.91221 12.0996 5 11.8877 5 11.6667V10.8333H15V11.6667C15 11.8877 15.0878 12.0996 15.2441 12.2559C15.4004 12.4122 15.6123 12.5 15.8333 12.5C16.0544 12.5 16.2663 12.4122 16.4226 12.2559C16.5789 12.0996 16.6667 11.8877 16.6667 11.6667V10.8333H18.2325C18.2962 11.1066 18.33 11.3861 18.3333 11.6667V12.5Z" fill="#37474F"/>
</g>
<defs>
<clipPath id="clip0_214_1052">
<rect width="20" height="20" fill="white"/>
</clipPath>
</defs>
</svg>
