<svg width="13" height="13" viewBox="0 0 13 13" fill="none" xmlns="http://www.w3.org/2000/svg">
<g clip-path="url(#clip0_264_968)">
<path d="M6.5 0C5.21442 0 3.95772 0.381218 2.8888 1.09545C1.81988 1.80968 0.986756 2.82484 0.494786 4.01256C0.00281636 5.20028 -0.125905 6.50721 0.124899 7.76808C0.375703 9.02896 0.994768 10.1871 1.90381 11.0962C2.81285 12.0052 3.97104 12.6243 5.23192 12.8751C6.49279 13.1259 7.79973 12.9972 8.98745 12.5052C10.1752 12.0132 11.1903 11.1801 11.9046 10.1112C12.6188 9.04228 13 7.78558 13 6.5C13 4.77609 12.3152 3.12279 11.0962 1.90381C9.87721 0.684819 8.22391 0 6.5 0V0ZM6.5 11.9167C5.42869 11.9167 4.38143 11.599 3.49066 11.0038C2.5999 10.4086 1.90563 9.56263 1.49566 8.57287C1.08568 7.5831 0.978413 6.49399 1.18742 5.44326C1.39642 4.39253 1.91231 3.42737 2.66984 2.66984C3.42738 1.9123 4.39253 1.39642 5.44326 1.18741C6.49399 0.978409 7.58311 1.08568 8.57287 1.49565C9.56264 1.90563 10.4086 2.59989 11.0038 3.49066C11.599 4.38143 11.9167 5.42868 11.9167 6.5C11.9167 7.93659 11.346 9.31434 10.3302 10.3302C9.31434 11.346 7.93659 11.9167 6.5 11.9167Z" fill="black"/>
</g>
<defs>
<clipPath id="clip0_264_968">
<rect width="13" height="13" fill="white"/>
</clipPath>
</defs>
</svg>
