<svg width="15" height="15" viewBox="0 0 15 15" fill="none" xmlns="http://www.w3.org/2000/svg">
<g clip-path="url(#clip0_255_933)">
<path d="M7.5 0C6.01664 0 4.5666 0.439867 3.33323 1.26398C2.09986 2.08809 1.13856 3.25943 0.570907 4.62987C0.00324965 6.00032 -0.145275 7.50832 0.144114 8.96317C0.433503 10.418 1.14781 11.7544 2.1967 12.8033C3.2456 13.8522 4.58197 14.5665 6.03683 14.8559C7.49168 15.1453 8.99968 14.9967 10.3701 14.4291C11.7406 13.8614 12.9119 12.9001 13.736 11.6668C14.5601 10.4334 15 8.98336 15 7.5C15 5.51087 14.2098 3.60322 12.8033 2.1967C11.3968 0.790176 9.48913 0 7.5 0V0ZM7.5 13.75C6.26387 13.75 5.0555 13.3834 4.02769 12.6967C2.99988 12.0099 2.1988 11.0338 1.72576 9.89177C1.25271 8.74973 1.12894 7.49306 1.3701 6.28068C1.61125 5.0683 2.20651 3.95466 3.08059 3.08058C3.95466 2.2065 5.06831 1.61125 6.28069 1.37009C7.49307 1.12893 8.74974 1.2527 9.89178 1.72575C11.0338 2.1988 12.0099 2.99988 12.6967 4.02768C13.3834 5.05549 13.75 6.26386 13.75 7.5C13.75 9.1576 13.0915 10.7473 11.9194 11.9194C10.7473 13.0915 9.15761 13.75 7.5 13.75Z" fill="#A6A6A6"/>
</g>
<defs>
<clipPath id="clip0_255_933">
<rect width="15" height="15" fill="white"/>
</clipPath>
</defs>
</svg>
