<svg width="20" height="20" viewBox="0 0 20 20" fill="none" xmlns="http://www.w3.org/2000/svg">
<g clip-path="url(#clip0_264_976)">
<path d="M10.0002 3.33333C10.9206 3.33333 11.6668 2.58714 11.6668 1.66667C11.6668 0.746192 10.9206 0 10.0002 0C9.07969 0 8.3335 0.746192 8.3335 1.66667C8.3335 2.58714 9.07969 3.33333 10.0002 3.33333Z" fill="black"/>
<path d="M10.0002 11.6666C10.9206 11.6666 11.6668 10.9205 11.6668 9.99998C11.6668 9.0795 10.9206 8.33331 10.0002 8.33331C9.07969 8.33331 8.3335 9.0795 8.3335 9.99998C8.3335 10.9205 9.07969 11.6666 10.0002 11.6666Z" fill="black"/>
<path d="M10.0002 20C10.9206 20 11.6668 19.2538 11.6668 18.3334C11.6668 17.4129 10.9206 16.6667 10.0002 16.6667C9.07969 16.6667 8.3335 17.4129 8.3335 18.3334C8.3335 19.2538 9.07969 20 10.0002 20Z" fill="black"/>
</g>
<defs>
<clipPath id="clip0_264_976">
<rect width="20" height="20" fill="white"/>
</clipPath>
</defs>
</svg>
