<svg width="20" height="20" viewBox="0 0 20 20" fill="none" xmlns="http://www.w3.org/2000/svg">
<g clip-path="url(#clip0_30_226)">
<path d="M19.3925 7.84919C18.1 5.74419 15.16 2.21252 9.99998 2.21252C4.83998 2.21252 1.89998 5.74419 0.607482 7.84919C0.207922 8.49545 -0.00372314 9.24023 -0.00372314 10C-0.00372314 10.7598 0.207922 11.5046 0.607482 12.1509C1.89998 14.2559 4.83998 17.7875 9.99998 17.7875C15.16 17.7875 18.1 14.2559 19.3925 12.1509C19.792 11.5046 20.0037 10.7598 20.0037 10C20.0037 9.24023 19.792 8.49545 19.3925 7.84919V7.84919ZM17.9716 11.2784C16.8616 13.0834 14.3491 16.1209 9.99998 16.1209C5.65081 16.1209 3.13831 13.0834 2.02831 11.2784C1.79093 10.8942 1.66519 10.4516 1.66519 10C1.66519 9.54847 1.79093 9.10582 2.02831 8.72169C3.13831 6.91669 5.65081 3.87919 9.99998 3.87919C14.3491 3.87919 16.8616 6.91336 17.9716 8.72169C18.209 9.10582 18.3348 9.54847 18.3348 10C18.3348 10.4516 18.209 10.8942 17.9716 11.2784V11.2784Z" fill="#37474F"/>
<path d="M9.99998 5.83331C9.17589 5.83331 8.37031 6.07768 7.68511 6.53552C6.9999 6.99336 6.46585 7.6441 6.15048 8.40546C5.83512 9.16682 5.7526 10.0046 5.91338 10.8128C6.07415 11.6211 6.47098 12.3635 7.0537 12.9462C7.63642 13.529 8.37885 13.9258 9.18711 14.0866C9.99536 14.2473 10.8331 14.1648 11.5945 13.8495C12.3559 13.5341 13.0066 13 13.4644 12.3148C13.9223 11.6296 14.1666 10.8241 14.1666 9.99997C14.1653 8.89531 13.7259 7.83627 12.9448 7.05516C12.1637 6.27405 11.1046 5.83464 9.99998 5.83331V5.83331ZM9.99998 12.5C9.50553 12.5 9.02218 12.3533 8.61106 12.0786C8.19993 11.8039 7.8795 11.4135 7.69028 10.9567C7.50106 10.4999 7.45155 9.9972 7.54802 9.51225C7.64448 9.0273 7.88258 8.58184 8.23221 8.23221C8.58185 7.88258 9.0273 7.64448 9.51226 7.54801C9.99721 7.45155 10.4999 7.50106 10.9567 7.69028C11.4135 7.8795 11.804 8.19993 12.0787 8.61105C12.3534 9.02217 12.5 9.50552 12.5 9.99997C12.5 10.663 12.2366 11.2989 11.7677 11.7677C11.2989 12.2366 10.663 12.5 9.99998 12.5Z" fill="#37474F"/>
</g>
<defs>
<clipPath id="clip0_30_226">
<rect width="20" height="20" fill="white"/>
</clipPath>
</defs>
</svg>
