<svg width="13" height="13" viewBox="0 0 13 13" fill="none" xmlns="http://www.w3.org/2000/svg">
<g clip-path="url(#clip0_264_972)">
<path d="M6.4774 13.0043L6.09981 12.6807C5.57928 12.2448 1.03418 8.31949 1.03418 5.44822C1.03418 2.44202 3.4712 0.00500488 6.4774 0.00500488C9.4836 0.00500488 11.9206 2.44202 11.9206 5.44822C11.9206 8.31952 7.37552 12.2448 6.85714 12.6828L6.4774 13.0043ZM6.4774 1.18199C4.12234 1.18465 2.21385 3.09314 2.21119 5.44819C2.21119 7.252 5.00751 10.1335 6.4774 11.4524C7.94731 10.133 10.7436 7.24981 10.7436 5.44819C10.7409 3.09314 8.83248 1.18468 6.4774 1.18199Z" fill="black"/>
<path d="M6.47747 7.60588C5.28584 7.60588 4.31982 6.63987 4.31982 5.44823C4.31982 4.2566 5.28584 3.29059 6.47747 3.29059C7.6691 3.29059 8.63511 4.2566 8.63511 5.44823C8.63511 6.63987 7.66913 7.60588 6.47747 7.60588ZM6.47747 4.36939C5.88165 4.36939 5.39865 4.85239 5.39865 5.44821C5.39865 6.04402 5.88165 6.52703 6.47747 6.52703C7.07329 6.52703 7.55629 6.04402 7.55629 5.44821C7.55629 4.85239 7.07331 4.36939 6.47747 4.36939Z" fill="black"/>
</g>
<defs>
<clipPath id="clip0_264_972">
<rect width="13" height="13" fill="white"/>
</clipPath>
</defs>
</svg>
