<svg width="20" height="20" viewBox="0 0 20 20" fill="none" xmlns="http://www.w3.org/2000/svg">
<g clip-path="url(#clip0_30_147)">
<path d="M15.8333 7.02V5.83333C15.8333 4.28624 15.2188 2.80251 14.1248 1.70854C13.0308 0.614582 11.5471 0 10 0C8.4529 0 6.96917 0.614582 5.87521 1.70854C4.78125 2.80251 4.16667 4.28624 4.16667 5.83333V7.02C3.42447 7.34392 2.79274 7.8771 2.34875 8.55434C1.90475 9.23158 1.66773 10.0235 1.66667 10.8333V15.8333C1.66799 16.938 2.1074 17.997 2.88852 18.7781C3.66963 19.5593 4.72867 19.9987 5.83333 20H14.1667C15.2713 19.9987 16.3304 19.5593 17.1115 18.7781C17.8926 17.997 18.332 16.938 18.3333 15.8333V10.8333C18.3323 10.0235 18.0952 9.23158 17.6513 8.55434C17.2073 7.8771 16.5755 7.34392 15.8333 7.02V7.02ZM5.83333 5.83333C5.83333 4.72826 6.27232 3.66846 7.05372 2.88705C7.83512 2.10565 8.89493 1.66667 10 1.66667C11.1051 1.66667 12.1649 2.10565 12.9463 2.88705C13.7277 3.66846 14.1667 4.72826 14.1667 5.83333V6.66667H5.83333V5.83333ZM16.6667 15.8333C16.6667 16.4964 16.4033 17.1323 15.9344 17.6011C15.4656 18.0699 14.8297 18.3333 14.1667 18.3333H5.83333C5.17029 18.3333 4.53441 18.0699 4.06557 17.6011C3.59673 17.1323 3.33333 16.4964 3.33333 15.8333V10.8333C3.33333 10.1703 3.59673 9.53441 4.06557 9.06556C4.53441 8.59672 5.17029 8.33333 5.83333 8.33333H14.1667C14.8297 8.33333 15.4656 8.59672 15.9344 9.06556C16.4033 9.53441 16.6667 10.1703 16.6667 10.8333V15.8333Z" fill="#37474F"/>
<path d="M10 11.6666C9.77899 11.6666 9.56702 11.7544 9.41074 11.9107C9.25446 12.067 9.16667 12.2789 9.16667 12.5V14.1666C9.16667 14.3876 9.25446 14.5996 9.41074 14.7559C9.56702 14.9122 9.77899 15 10 15C10.221 15 10.433 14.9122 10.5893 14.7559C10.7455 14.5996 10.8333 14.3876 10.8333 14.1666V12.5C10.8333 12.2789 10.7455 12.067 10.5893 11.9107C10.433 11.7544 10.221 11.6666 10 11.6666Z" fill="#37474F"/>
</g>
<defs>
<clipPath id="clip0_30_147">
<rect width="20" height="20" fill="white"/>
</clipPath>
</defs>
</svg>
