<svg width="15" height="15" viewBox="0 0 15 15" fill="none" xmlns="http://www.w3.org/2000/svg">
<g clip-path="url(#clip0_255_937)">
<path d="M7.47375 15.005L7.03808 14.6316C6.43746 14.1286 1.19312 9.59944 1.19312 6.28643C1.19312 2.81774 4.00506 0.00579834 7.47375 0.00579834C10.9424 0.00579834 13.7544 2.81774 13.7544 6.28643C13.7544 9.59947 8.51004 14.1287 7.91192 14.634L7.47375 15.005ZM7.47375 1.36385C4.75638 1.36693 2.55428 3.56903 2.5512 6.2864C2.5512 8.36771 5.77773 11.6926 7.47375 13.2143C9.16981 11.6919 12.3963 8.36519 12.3963 6.2864C12.3932 3.56903 10.1912 1.36696 7.47375 1.36385Z" fill="#A6A6A6"/>
<path d="M7.47372 8.77599C6.09876 8.77599 4.98413 7.66136 4.98413 6.2864C4.98413 4.91144 6.09876 3.79681 7.47372 3.79681C8.84868 3.79681 9.96331 4.91144 9.96331 6.2864C9.96331 7.66136 8.84871 8.77599 7.47372 8.77599ZM7.47372 5.04158C6.78624 5.04158 6.22893 5.59889 6.22893 6.28637C6.22893 6.97386 6.78624 7.53117 7.47372 7.53117C8.1612 7.53117 8.71851 6.97386 8.71851 6.28637C8.71851 5.59889 8.16123 5.04158 7.47372 5.04158Z" fill="#A6A6A6"/>
</g>
<defs>
<clipPath id="clip0_255_937">
<rect width="15" height="15" fill="white"/>
</clipPath>
</defs>
</svg>
