<svg width="20" height="20" viewBox="0 0 20 20" fill="none" xmlns="http://www.w3.org/2000/svg">
<g clip-path="url(#clip0_30_11)">
<path d="M10.8333 0.833322C10.8333 0.612308 10.9211 0.400346 11.0774 0.244066C11.2337 0.0877854 11.4457 -1.19665e-05 11.6667 -1.19665e-05C13.8761 0.00241437 15.9943 0.881168 17.5565 2.44345C19.1188 4.00572 19.9976 6.12393 20 8.33333C20 8.55434 19.9122 8.7663 19.7559 8.92258C19.5996 9.07886 19.3877 9.16666 19.1667 9.16666C18.9457 9.16666 18.7337 9.07886 18.5774 8.92258C18.4211 8.7663 18.3333 8.55434 18.3333 8.33333C18.3314 6.56582 17.6283 4.87128 16.3785 3.62147C15.1287 2.37166 13.4342 1.66864 11.6667 1.66666C11.4457 1.66666 11.2337 1.57886 11.0774 1.42258C10.9211 1.2663 10.8333 1.05434 10.8333 0.833322V0.833322ZM11.6667 4.99999C12.5507 4.99999 13.3986 5.35118 14.0237 5.9763C14.6488 6.60142 15 7.44927 15 8.33333C15 8.55434 15.0878 8.7663 15.2441 8.92258C15.4004 9.07886 15.6123 9.16666 15.8333 9.16666C16.0544 9.16666 16.2663 9.07886 16.4226 8.92258C16.5789 8.7663 16.6667 8.55434 16.6667 8.33333C16.6653 7.00765 16.1381 5.73665 15.2007 4.79925C14.2633 3.86186 12.9923 3.33465 11.6667 3.33332C11.4457 3.33332 11.2337 3.42112 11.0774 3.5774C10.9211 3.73368 10.8333 3.94564 10.8333 4.16666C10.8333 4.38767 10.9211 4.59963 11.0774 4.75591C11.2337 4.91219 11.4457 4.99999 11.6667 4.99999V4.99999ZM19.2442 13.9492C19.7271 14.4334 19.9983 15.0894 19.9983 15.7733C19.9983 16.4572 19.7271 17.1132 19.2442 17.5975L18.4858 18.4717C11.6608 25.0058 -4.9475 8.40166 1.48583 1.55499L2.44417 0.721655C2.92898 0.252219 3.57911 -0.00747107 4.25392 -0.00123293C4.92873 0.00500521 5.57396 0.27667 6.05 0.754988C6.07584 0.780822 7.62 2.78666 7.62 2.78666C8.07819 3.26801 8.33326 3.90743 8.33217 4.57199C8.33108 5.23655 8.07393 5.87513 7.61417 6.35499L6.64917 7.56832C7.18321 8.86592 7.96839 10.0452 8.95959 11.0384C9.9508 12.0316 11.1285 12.8192 12.425 13.3558L13.6458 12.385C14.1258 11.9256 14.7642 11.6687 15.4286 11.6678C16.0929 11.6669 16.7321 11.9219 17.2133 12.38C17.2133 12.38 19.2183 13.9233 19.2442 13.9492ZM18.0975 15.1608C18.0975 15.1608 16.1033 13.6267 16.0775 13.6008C15.9058 13.4306 15.6739 13.3351 15.4321 13.3351C15.1903 13.3351 14.9584 13.4306 14.7867 13.6008C14.7642 13.6242 13.0833 14.9633 13.0833 14.9633C12.9701 15.0535 12.8353 15.1126 12.6922 15.1348C12.5492 15.157 12.4028 15.1416 12.2675 15.09C10.5879 14.4646 9.06228 13.4856 7.79403 12.2192C6.52578 10.9528 5.5445 9.42869 4.91667 7.74999C4.861 7.61287 4.84285 7.4634 4.86409 7.31694C4.88532 7.17048 4.94518 7.03232 5.0375 6.91666C5.0375 6.91666 6.37667 5.23499 6.39917 5.21332C6.56939 5.04164 6.6649 4.80967 6.6649 4.56791C6.6649 4.32614 6.56939 4.09417 6.39917 3.92249C6.37334 3.89749 4.83917 1.90166 4.83917 1.90166C4.66492 1.74541 4.4375 1.66173 4.20354 1.66778C3.96958 1.67382 3.74679 1.76912 3.58083 1.93416L2.6225 2.76749C-2.07917 8.42082 12.3133 22.015 17.2675 17.3333L18.0267 16.4583C18.2046 16.2935 18.3114 16.066 18.3246 15.8239C18.3379 15.5818 18.2564 15.344 18.0975 15.1608V15.1608Z" fill="#37474F"/>
</g>
<defs>
<clipPath id="clip0_30_11">
<rect width="20" height="20" fill="white"/>
</clipPath>
</defs>
</svg>
