<svg width="15" height="15" viewBox="0 0 15 15" fill="none" xmlns="http://www.w3.org/2000/svg">
<g clip-path="url(#clip0_221_1628)">
<path d="M7.07143 0.172629C6.96095 0.172645 6.85499 0.216543 6.77687 0.294668C6.69874 0.372793 6.65484 0.478748 6.65483 0.589233L6.65483 6.65444L0.589618 6.65444C0.479133 6.65446 0.373178 6.69836 0.295053 6.77648C0.216928 6.8546 0.173031 6.96056 0.173014 7.07104C0.173031 7.18153 0.216928 7.28749 0.295053 7.36561C0.373178 7.44373 0.479133 7.48763 0.589618 7.48765L6.65483 7.48765L6.65483 13.5529C6.65484 13.6633 6.69874 13.7693 6.77687 13.8474C6.85499 13.9255 6.96095 13.9694 7.07143 13.9695C7.18192 13.9694 7.28787 13.9255 7.366 13.8474C7.44412 13.7693 7.48802 13.6633 7.48803 13.5529L7.48803 7.48765L13.5532 7.48765C13.6637 7.48763 13.7697 7.44373 13.8478 7.36561C13.9259 7.28749 13.9698 7.18153 13.9698 7.07104C13.9698 6.96056 13.9259 6.8546 13.8478 6.77648C13.7697 6.69835 13.6637 6.65446 13.5532 6.65444L7.48803 6.65444L7.48803 0.589232C7.48802 0.478747 7.44412 0.372792 7.366 0.294668C7.28787 0.216543 7.18192 0.172645 7.07143 0.172629Z" fill="white"/>
</g>
<defs>
<clipPath id="clip0_221_1628">
<rect width="10" height="10" fill="white" transform="translate(0 7.07104) rotate(-45)"/>
</clipPath>
</defs>
</svg>
