<svg width="15" height="15" viewBox="0 0 15 15" fill="none" xmlns="http://www.w3.org/2000/svg">
<path fill-rule="evenodd" clip-rule="evenodd" d="M12.7894 2.18C11.3856 0.775 9.51939 0.000625 7.53127 0C3.43439 0 0.10002 3.33375 0.0981445 7.4325C0.0975195 8.7425 0.440019 10.0212 1.09064 11.1487L0.0356445 15L3.97564 13.9662C5.06127 14.5587 6.28377 14.8706 7.52752 14.8712H7.53064C11.6269 14.8712 14.9619 11.5369 14.9638 7.43812C14.965 5.4525 14.1925 3.58437 12.7894 2.18ZM7.53127 13.6156H7.52877C6.42002 13.6156 5.33314 13.3175 4.38439 12.7544L4.15877 12.6206L1.82064 13.2337L2.44502 10.9537L2.29814 10.72C1.67939 9.73625 1.35314 8.59937 1.35377 7.4325C1.35502 4.02625 4.12689 1.255 7.53439 1.255C9.18439 1.255 10.7356 1.89875 11.9019 3.06625C13.0681 4.23437 13.71 5.78625 13.7094 7.43687C13.7075 10.8444 10.9363 13.6156 7.53127 13.6156ZM10.92 8.98875C10.7344 8.89562 9.82127 8.44625 9.65064 8.38437C9.48064 8.3225 9.35689 8.29125 9.23252 8.47687C9.10814 8.6625 8.75314 9.08125 8.64439 9.20562C8.53627 9.32937 8.42752 9.345 8.24189 9.25187C8.05627 9.15875 7.45752 8.96312 6.74814 8.33C6.19627 7.8375 5.82314 7.22937 5.71502 7.04312C5.60689 6.85687 5.70377 6.75687 5.79627 6.66437C5.88002 6.58125 5.98189 6.4475 6.07502 6.33875C6.16877 6.23125 6.19939 6.15375 6.26189 6.02937C6.32377 5.90562 6.29314 5.79687 6.24627 5.70375C6.19939 5.61125 5.82814 4.69687 5.67377 4.325C5.52314 3.9625 5.37002 4.01187 5.25564 4.00625C5.14752 4.00062 5.02377 4 4.89939 4C4.77564 4 4.57439 4.04625 4.40439 4.2325C4.23439 4.41875 3.75439 4.86812 3.75439 5.78187C3.75439 6.69625 4.42002 7.57937 4.51252 7.70312C4.60502 7.82687 5.82189 9.70312 7.68502 10.5075C8.12814 10.6987 8.47439 10.8131 8.74377 10.8987C9.18877 11.04 9.59377 11.02 9.91377 10.9725C10.2706 10.9194 11.0125 10.5231 11.1675 10.0894C11.3225 9.65562 11.3225 9.28312 11.2756 9.20625C11.2294 9.12812 11.1056 9.08187 10.92 8.98875Z" fill="white"/>
</svg>
