<svg width="221" height="147" viewBox="0 0 221 147" fill="none" xmlns="http://www.w3.org/2000/svg">
<path d="M61.4645 38.6463C58.895 38.6463 15.6733 38.9403 12.9594 38.8433C12.9137 38.8431 12.8693 38.8279 12.833 38.8001C12.7967 38.7723 12.7706 38.7335 12.7586 38.6895C12.7465 38.6454 12.7493 38.5987 12.7664 38.5564C12.7835 38.5141 12.8141 38.4785 12.8533 38.4552C14.5654 37.6114 16.5072 37.779 18.287 37.1822C19.3331 36.8294 19.9754 36.1473 20.7033 35.3623C21.3045 34.6771 22.0819 34.1688 22.9516 33.8923C23.7466 33.6522 24.5908 33.6239 25.4003 33.81C26.2843 34.0187 27.0386 34.5185 27.8755 34.836C29.9529 35.6181 31.9684 34.8743 33.4505 33.3425C34.6734 32.0783 35.8757 30.8847 37.5376 30.2055C38.9313 29.6352 40.4842 29.5176 41.8692 30.1467C43.4545 30.8612 44.5418 32.3047 46.0299 33.1691C47.7979 34.201 49.9077 33.957 51.8554 34.2657C53.8032 34.5744 55.303 36.2149 57.0121 37.1586C57.5687 37.5203 58.2136 37.7236 58.8773 37.7466C59.2579 37.7129 59.6366 37.6599 60.0118 37.5879C60.6011 37.5144 61.161 37.532 61.5559 38.0201C61.6531 38.1406 61.6325 38.6463 61.4645 38.6463Z" fill="#EBEBEB"/>
<path d="M208.141 41.6598C206.267 41.6598 174.711 41.8656 172.728 41.8039C172.586 41.8039 172.51 41.5892 172.651 41.5099C173.9 40.8925 175.318 41.0159 176.617 40.5808C177.383 40.3221 177.852 39.8252 178.385 39.2519C178.824 38.7533 179.392 38.3842 180.027 38.1847C180.607 38.0092 181.224 37.9899 181.815 38.1289C182.455 38.2788 183.012 38.6463 183.622 38.8756C185.136 39.446 186.609 38.905 187.694 37.7849C188.578 36.8617 189.462 35.9915 190.676 35.4946C191.172 35.2717 191.708 35.1527 192.252 35.1451C192.796 35.1375 193.336 35.2415 193.838 35.4505C194.996 35.9738 195.788 37.0264 196.876 37.6614C198.166 38.4111 199.707 38.2494 201.131 38.4611C202.554 38.6728 203.647 39.884 204.893 40.572C205.301 40.8322 205.771 40.9775 206.255 40.9924C206.534 40.9678 206.811 40.9286 207.086 40.8748C207.513 40.8219 207.923 40.8366 208.211 41.1923C208.279 41.2894 208.264 41.6598 208.141 41.6598Z" fill="#EBEBEB"/>
<path d="M105.508 48.6599C103.634 48.6599 72.0784 48.8657 70.0953 48.804C69.9539 48.804 69.8773 48.5894 70.0187 48.51C71.2681 47.8926 72.6707 48.019 73.9849 47.5809C74.751 47.3252 75.2196 46.8254 75.7529 46.2521C76.1925 45.754 76.76 45.385 77.3942 45.1849C77.9751 45.0093 78.5921 44.9901 79.1828 45.129C79.8223 45.2789 80.3792 45.6464 80.9891 45.8758C82.5067 46.4461 83.98 45.9052 85.0614 44.785C85.9454 43.8648 86.8294 42.9916 88.0464 42.4948C88.5418 42.2717 89.078 42.1529 89.6215 42.1458C90.165 42.1387 90.7041 42.2435 91.2052 42.4536C92.3633 42.9769 93.1589 44.0265 94.2462 44.6615C95.5339 45.4112 97.075 45.2348 98.4982 45.4612C99.9215 45.6876 101.015 46.8842 102.264 47.5721C102.671 47.8328 103.142 47.9781 103.625 47.9926C103.902 47.9926 104.176 47.9102 104.453 47.8779C104.884 47.825 105.29 47.8367 105.579 48.1925C105.647 48.2895 105.632 48.6599 105.508 48.6599Z" fill="#EBEBEB"/>
<path d="M141.366 61.4931C139.492 61.4931 107.936 61.6989 105.953 61.6371C105.812 61.6371 105.735 61.4225 105.877 61.3431C107.126 60.7257 108.543 60.8492 109.843 60.4111C110.606 60.1554 111.078 59.6556 111.611 59.0852C112.049 58.5847 112.617 58.2144 113.252 58.015C113.833 57.8395 114.45 57.8203 115.041 57.9592C115.68 58.1121 116.237 58.4766 116.847 58.7059C118.362 59.2792 119.835 58.7353 120.919 57.6152C121.803 56.695 122.687 55.8247 123.901 55.3279C124.397 55.1042 124.934 54.9849 125.478 54.9773C126.022 54.9697 126.561 55.074 127.063 55.2838C128.221 55.8071 129.014 56.8596 130.101 57.4917C131.392 58.2414 132.933 58.065 134.356 58.2914C135.779 58.5178 136.873 59.7144 138.119 60.4023C138.525 60.6651 138.996 60.8107 139.48 60.8227C139.775 60.8227 140.034 60.7404 140.311 60.7081C140.739 60.6552 141.148 60.6669 141.437 61.0227C141.505 61.1226 141.49 61.4931 141.366 61.4931Z" fill="#EBEBEB"/>
<path d="M168.688 27.7624C168.652 27.8683 118.954 27.7624 119.582 27.7624C119.876 27.7624 119.146 27.3361 119.425 27.2009C121.043 26.3983 122.814 26.3747 124.576 26.213C125.605 26.1219 126.66 25.972 127.585 25.4869C128.51 25.0018 129.105 24.1462 129.771 23.3612C130.796 22.1512 132.113 21.2217 133.598 20.6605C135.083 20.0993 136.686 19.9249 138.258 20.1537C141.794 20.7064 144.575 23.3877 148.117 23.8875C150.242 24.1815 152.242 23.3612 154.332 23.0731C156.044 22.835 157.467 23.1672 158.999 23.9257C160.119 24.4784 161.156 24.9459 162.423 25.0341C163.396 25.1017 164.374 24.99 165.349 24.9812C166.946 25.0105 168.477 25.6211 169.654 26.6981C169.81 26.8363 170.317 27.7624 168.688 27.7624Z" fill="#EBEBEB"/>
<path d="M170.806 31.5227H154.326V117.715H170.806V31.5227Z" fill="#DBDBDB"/>
<path d="M160.086 34.3216H156.883V37.6114H160.086V34.3216Z" fill="#EBEBEB"/>
<path d="M164.185 34.3216H160.982V37.6114H164.185V34.3216Z" fill="#EBEBEB"/>
<path d="M160.086 39.9105H156.883V43.2004H160.086V39.9105Z" fill="#EBEBEB"/>
<path d="M164.185 39.9105H160.982V43.2004H164.185V39.9105Z" fill="#EBEBEB"/>
<path d="M160.086 45.4965H156.883V48.7864H160.086V45.4965Z" fill="#EBEBEB"/>
<path d="M164.185 45.4965H160.982V48.7864H164.185V45.4965Z" fill="#EBEBEB"/>
<path d="M160.086 51.0854H156.883V54.3753H160.086V51.0854Z" fill="#EBEBEB"/>
<path d="M164.185 51.0854H160.982V54.3753H164.185V51.0854Z" fill="#EBEBEB"/>
<path d="M160.086 56.6714H156.883V59.9613H160.086V56.6714Z" fill="#EBEBEB"/>
<path d="M164.185 56.6714H160.982V59.9613H164.185V56.6714Z" fill="#EBEBEB"/>
<path d="M160.086 62.2604H156.883V65.5502H160.086V62.2604Z" fill="#EBEBEB"/>
<path d="M164.185 62.2604H160.982V65.5502H164.185V62.2604Z" fill="#EBEBEB"/>
<path d="M160.086 67.8464H156.883V71.1362H160.086V67.8464Z" fill="#EBEBEB"/>
<path d="M164.185 67.8464H160.982V71.1362H164.185V67.8464Z" fill="#EBEBEB"/>
<path d="M160.086 73.4353H156.883V76.7252H160.086V73.4353Z" fill="#EBEBEB"/>
<path d="M164.185 73.4353H160.982V76.7252H164.185V73.4353Z" fill="#EBEBEB"/>
<path d="M160.086 79.0213H156.883V82.3112H160.086V79.0213Z" fill="#EBEBEB"/>
<path d="M164.185 79.0213H160.982V82.3112H164.185V79.0213Z" fill="#EBEBEB"/>
<path d="M160.086 84.6103H156.883V87.9001H160.086V84.6103Z" fill="#EBEBEB"/>
<path d="M164.185 84.6103H160.982V87.9001H164.185V84.6103Z" fill="#EBEBEB"/>
<path d="M160.086 90.1963H156.883V93.4861H160.086V90.1963Z" fill="#EBEBEB"/>
<path d="M164.185 90.1963H160.982V93.4861H164.185V90.1963Z" fill="#EBEBEB"/>
<path d="M160.086 95.7852H156.883V99.0751H160.086V95.7852Z" fill="#EBEBEB"/>
<path d="M164.185 95.7852H160.982V99.0751H164.185V95.7852Z" fill="#EBEBEB"/>
<path d="M160.086 101.371H156.883V104.661H160.086V101.371Z" fill="#EBEBEB"/>
<path d="M164.185 101.371H160.982V104.661H164.185V101.371Z" fill="#EBEBEB"/>
<path d="M160.086 106.96H156.883V110.25H160.086V106.96Z" fill="#EBEBEB"/>
<path d="M165.046 110.25H168.249V106.96H165.046V110.25Z" fill="#EBEBEB"/>
<path d="M165.046 104.664H168.249V101.374H165.046V104.664Z" fill="#EBEBEB"/>
<path d="M165.046 99.0751H168.249V95.7852H165.046V99.0751Z" fill="#EBEBEB"/>
<path d="M165.046 93.489H168.249V90.1992H165.046V93.489Z" fill="#EBEBEB"/>
<path d="M165.046 87.9001H168.249V84.6102H165.046V87.9001Z" fill="#EBEBEB"/>
<path d="M165.046 82.3141H168.249V79.0243H165.046V82.3141Z" fill="#EBEBEB"/>
<path d="M165.046 76.7252H168.249V73.4353H165.046V76.7252Z" fill="#EBEBEB"/>
<path d="M165.046 71.1392H168.249V67.8493H165.046V71.1392Z" fill="#EBEBEB"/>
<path d="M165.046 65.5502H168.249V62.2604H165.046V65.5502Z" fill="#EBEBEB"/>
<path d="M165.046 59.9642H168.249V56.6744H165.046V59.9642Z" fill="#EBEBEB"/>
<path d="M165.046 54.3753H168.249V51.0854H165.046V54.3753Z" fill="#EBEBEB"/>
<path d="M165.046 48.7893H168.249V45.4994H165.046V48.7893Z" fill="#EBEBEB"/>
<path d="M165.046 43.2003H168.249V39.9105H165.046V43.2003Z" fill="#EBEBEB"/>
<path d="M165.046 37.6143H168.249V34.3245H165.046V37.6143Z" fill="#EBEBEB"/>
<path d="M164.185 106.96H160.982V110.25H164.185V106.96Z" fill="#EBEBEB"/>
<path d="M183.801 31.5227H170.806V117.715H183.801V31.5227Z" fill="#A6A6A6"/>
<path d="M179.817 110.25H182.464V106.96H179.817V110.25Z" fill="#C7C7C7"/>
<path d="M176.432 110.25H179.078V106.96H176.432V110.25Z" fill="#C7C7C7"/>
<path d="M179.817 104.664H182.464V101.374H179.817V104.664Z" fill="#C7C7C7"/>
<path d="M176.432 104.664H179.078V101.374H176.432V104.664Z" fill="#C7C7C7"/>
<path d="M179.817 99.0751H182.464V95.7852H179.817V99.0751Z" fill="#C7C7C7"/>
<path d="M176.432 99.0751H179.078V95.7852H176.432V99.0751Z" fill="#C7C7C7"/>
<path d="M179.817 93.489H182.464V90.1992H179.817V93.489Z" fill="#C7C7C7"/>
<path d="M176.432 93.489H179.078V90.1992H176.432V93.489Z" fill="#C7C7C7"/>
<path d="M179.817 87.9001H182.464V84.6102H179.817V87.9001Z" fill="#C7C7C7"/>
<path d="M176.432 87.9001H179.078V84.6102H176.432V87.9001Z" fill="#C7C7C7"/>
<path d="M179.817 82.3141H182.464V79.0243H179.817V82.3141Z" fill="#C7C7C7"/>
<path d="M176.432 82.3141H179.078V79.0243H176.432V82.3141Z" fill="#C7C7C7"/>
<path d="M179.817 76.7252H182.464V73.4353H179.817V76.7252Z" fill="#C7C7C7"/>
<path d="M176.432 76.7252H179.078V73.4353H176.432V76.7252Z" fill="#C7C7C7"/>
<path d="M179.817 71.1392H182.464V67.8493H179.817V71.1392Z" fill="#C7C7C7"/>
<path d="M176.432 71.1392H179.078V67.8493H176.432V71.1392Z" fill="#C7C7C7"/>
<path d="M179.817 65.5502H182.464V62.2604H179.817V65.5502Z" fill="#C7C7C7"/>
<path d="M176.432 65.5502H179.078V62.2604H176.432V65.5502Z" fill="#C7C7C7"/>
<path d="M179.817 59.9642H182.464V56.6744H179.817V59.9642Z" fill="#C7C7C7"/>
<path d="M176.432 59.9642H179.078V56.6744H176.432V59.9642Z" fill="#C7C7C7"/>
<path d="M179.817 54.3753H182.464V51.0854H179.817V54.3753Z" fill="#C7C7C7"/>
<path d="M176.432 54.3753H179.078V51.0854H176.432V54.3753Z" fill="#C7C7C7"/>
<path d="M179.817 48.7893H182.464V45.4994H179.817V48.7893Z" fill="#C7C7C7"/>
<path d="M176.432 48.7893H179.078V45.4994H176.432V48.7893Z" fill="#C7C7C7"/>
<path d="M179.817 43.2003H182.464V39.9105H179.817V43.2003Z" fill="#C7C7C7"/>
<path d="M176.432 43.2003H179.078V39.9105H176.432V43.2003Z" fill="#C7C7C7"/>
<path d="M179.817 37.6143H182.464V34.3245H179.817V37.6143Z" fill="#C7C7C7"/>
<path d="M175.721 34.3216H173.075V37.6114H175.721V34.3216Z" fill="#C7C7C7"/>
<path d="M175.721 39.9105H173.075V43.2004H175.721V39.9105Z" fill="#C7C7C7"/>
<path d="M175.721 45.4965H173.075V48.7864H175.721V45.4965Z" fill="#C7C7C7"/>
<path d="M175.721 51.0854H173.075V54.3753H175.721V51.0854Z" fill="#C7C7C7"/>
<path d="M175.721 56.6714H173.075V59.9613H175.721V56.6714Z" fill="#C7C7C7"/>
<path d="M175.721 62.2604H173.075V65.5502H175.721V62.2604Z" fill="#C7C7C7"/>
<path d="M175.721 67.8464H173.075V71.1362H175.721V67.8464Z" fill="#C7C7C7"/>
<path d="M175.721 73.4353H173.075V76.7252H175.721V73.4353Z" fill="#C7C7C7"/>
<path d="M175.721 79.0213H173.075V82.3112H175.721V79.0213Z" fill="#C7C7C7"/>
<path d="M175.721 84.6103H173.075V87.9001H175.721V84.6103Z" fill="#C7C7C7"/>
<path d="M175.721 90.1963H173.075V93.4861H175.721V90.1963Z" fill="#C7C7C7"/>
<path d="M175.721 95.7852H173.075V99.0751H175.721V95.7852Z" fill="#C7C7C7"/>
<path d="M175.721 101.371H173.075V104.661H175.721V101.371Z" fill="#C7C7C7"/>
<path d="M175.721 106.96H173.075V110.25H175.721V106.96Z" fill="#C7C7C7"/>
<path d="M176.432 37.6143H179.078V34.3245H176.432V37.6143Z" fill="#C7C7C7"/>
<path d="M54.2805 24.8371H34.4406V117.715H54.2805V24.8371Z" fill="#EBEBEB"/>
<path d="M54.2805 22.9879H33.9633V24.8371H54.2805V22.9879Z" fill="#C7C7C7"/>
<path d="M38.2448 27.5625H36.2351V117.715H38.2448V27.5625Z" fill="white"/>
<path d="M41.8044 27.5625H39.7947V117.715H41.8044V27.5625Z" fill="white"/>
<path d="M45.3639 27.5625H43.3543V117.715H45.3639V27.5625Z" fill="white"/>
<path d="M48.9264 27.5625H46.9168V117.715H48.9264V27.5625Z" fill="white"/>
<path d="M52.486 27.5625H50.4764V117.715H52.486V27.5625Z" fill="white"/>
<path d="M38.2448 29.8998H36.2351V33.5513H38.2448V29.8998Z" fill="#EBEBEB"/>
<path d="M41.8044 29.8998H39.7947V33.5513H41.8044V29.8998Z" fill="#EBEBEB"/>
<path d="M45.3639 29.8998H43.3543V33.5513H45.3639V29.8998Z" fill="#EBEBEB"/>
<path d="M48.9264 29.8998H46.9168V33.5513H48.9264V29.8998Z" fill="#EBEBEB"/>
<path d="M52.486 29.8998H50.4764V33.5513H52.486V29.8998Z" fill="#EBEBEB"/>
<path d="M38.2448 35.8327H36.2351V39.4842H38.2448V35.8327Z" fill="#EBEBEB"/>
<path d="M41.8044 35.8327H39.7947V39.4842H41.8044V35.8327Z" fill="#EBEBEB"/>
<path d="M45.3639 35.8327H43.3543V39.4842H45.3639V35.8327Z" fill="#EBEBEB"/>
<path d="M48.9264 35.8327H46.9168V39.4842H48.9264V35.8327Z" fill="#EBEBEB"/>
<path d="M52.486 35.8327H50.4764V39.4842H52.486V35.8327Z" fill="#EBEBEB"/>
<path d="M38.2448 41.7656H36.2351V45.4171H38.2448V41.7656Z" fill="#EBEBEB"/>
<path d="M41.8044 41.7656H39.7947V45.4171H41.8044V41.7656Z" fill="#EBEBEB"/>
<path d="M45.3639 41.7656H43.3543V45.4171H45.3639V41.7656Z" fill="#EBEBEB"/>
<path d="M48.9264 41.7656H46.9168V45.4171H48.9264V41.7656Z" fill="#EBEBEB"/>
<path d="M52.486 41.7656H50.4764V45.4171H52.486V41.7656Z" fill="#EBEBEB"/>
<path d="M38.2448 47.7015H36.2351V51.353H38.2448V47.7015Z" fill="#EBEBEB"/>
<path d="M41.8044 47.7015H39.7947V51.353H41.8044V47.7015Z" fill="#EBEBEB"/>
<path d="M45.3639 47.7015H43.3543V51.353H45.3639V47.7015Z" fill="#EBEBEB"/>
<path d="M48.9264 47.7015H46.9168V51.353H48.9264V47.7015Z" fill="#EBEBEB"/>
<path d="M52.486 47.7015H50.4764V51.353H52.486V47.7015Z" fill="#EBEBEB"/>
<path d="M38.2448 53.6344H36.2351V57.2859H38.2448V53.6344Z" fill="#EBEBEB"/>
<path d="M41.8044 53.6344H39.7947V57.2859H41.8044V53.6344Z" fill="#EBEBEB"/>
<path d="M45.3639 53.6344H43.3543V57.2859H45.3639V53.6344Z" fill="#EBEBEB"/>
<path d="M48.9264 53.6344H46.9168V57.2859H48.9264V53.6344Z" fill="#EBEBEB"/>
<path d="M52.486 53.6344H50.4764V57.2859H52.486V53.6344Z" fill="#EBEBEB"/>
<path d="M38.2448 59.5674H36.2351V63.2188H38.2448V59.5674Z" fill="#EBEBEB"/>
<path d="M41.8044 59.5674H39.7947V63.2188H41.8044V59.5674Z" fill="#EBEBEB"/>
<path d="M45.3639 59.5674H43.3543V63.2188H45.3639V59.5674Z" fill="#EBEBEB"/>
<path d="M48.9264 59.5674H46.9168V63.2188H48.9264V59.5674Z" fill="#EBEBEB"/>
<path d="M52.486 59.5674H50.4764V63.2188H52.486V59.5674Z" fill="#EBEBEB"/>
<path d="M38.2448 65.5002H36.2351V69.1517H38.2448V65.5002Z" fill="#EBEBEB"/>
<path d="M41.8044 65.5002H39.7947V69.1517H41.8044V65.5002Z" fill="#EBEBEB"/>
<path d="M45.3639 65.5002H43.3543V69.1517H45.3639V65.5002Z" fill="#EBEBEB"/>
<path d="M48.9264 65.5002H46.9168V69.1517H48.9264V65.5002Z" fill="#EBEBEB"/>
<path d="M52.486 65.5002H50.4764V69.1517H52.486V65.5002Z" fill="#EBEBEB"/>
<path d="M38.2448 71.4361H36.2351V75.0876H38.2448V71.4361Z" fill="#EBEBEB"/>
<path d="M41.8044 71.4361H39.7947V75.0876H41.8044V71.4361Z" fill="#EBEBEB"/>
<path d="M45.3639 71.4361H43.3543V75.0876H45.3639V71.4361Z" fill="#EBEBEB"/>
<path d="M48.9264 71.4361H46.9168V75.0876H48.9264V71.4361Z" fill="#EBEBEB"/>
<path d="M52.486 71.4361H50.4764V75.0876H52.486V71.4361Z" fill="#EBEBEB"/>
<path d="M38.2448 77.369H36.2351V81.0205H38.2448V77.369Z" fill="#EBEBEB"/>
<path d="M41.8044 77.369H39.7947V81.0205H41.8044V77.369Z" fill="#EBEBEB"/>
<path d="M45.3639 77.369H43.3543V81.0205H45.3639V77.369Z" fill="#EBEBEB"/>
<path d="M48.9264 77.369H46.9168V81.0205H48.9264V77.369Z" fill="#EBEBEB"/>
<path d="M52.486 77.369H50.4764V81.0205H52.486V77.369Z" fill="#EBEBEB"/>
<path d="M38.2448 83.302H36.2351V86.9534H38.2448V83.302Z" fill="#EBEBEB"/>
<path d="M41.8044 83.302H39.7947V86.9534H41.8044V83.302Z" fill="#EBEBEB"/>
<path d="M45.3639 83.302H43.3543V86.9534H45.3639V83.302Z" fill="#EBEBEB"/>
<path d="M48.9264 83.302H46.9168V86.9534H48.9264V83.302Z" fill="#EBEBEB"/>
<path d="M52.486 83.302H50.4764V86.9534H52.486V83.302Z" fill="#EBEBEB"/>
<path d="M38.2448 89.2349H36.2351V92.8863H38.2448V89.2349Z" fill="#EBEBEB"/>
<path d="M41.8044 89.2349H39.7947V92.8863H41.8044V89.2349Z" fill="#EBEBEB"/>
<path d="M45.3639 89.2349H43.3543V92.8863H45.3639V89.2349Z" fill="#EBEBEB"/>
<path d="M48.9264 89.2349H46.9168V92.8863H48.9264V89.2349Z" fill="#EBEBEB"/>
<path d="M52.486 89.2349H50.4764V92.8863H52.486V89.2349Z" fill="#EBEBEB"/>
<path d="M38.2448 95.1678H36.2351V98.8193H38.2448V95.1678Z" fill="#EBEBEB"/>
<path d="M41.8044 95.1678H39.7947V98.8193H41.8044V95.1678Z" fill="#EBEBEB"/>
<path d="M45.3639 95.1678H43.3543V98.8193H45.3639V95.1678Z" fill="#EBEBEB"/>
<path d="M48.9264 95.1678H46.9168V98.8193H48.9264V95.1678Z" fill="#EBEBEB"/>
<path d="M52.486 95.1678H50.4764V98.8193H52.486V95.1678Z" fill="#EBEBEB"/>
<path d="M38.2448 101.104H36.2351V104.755H38.2448V101.104Z" fill="#EBEBEB"/>
<path d="M41.8044 101.104H39.7947V104.755H41.8044V101.104Z" fill="#EBEBEB"/>
<path d="M45.3639 101.104H43.3543V104.755H45.3639V101.104Z" fill="#EBEBEB"/>
<path d="M48.9264 101.104H46.9168V104.755H48.9264V101.104Z" fill="#EBEBEB"/>
<path d="M52.486 101.104H50.4764V104.755H52.486V101.104Z" fill="#EBEBEB"/>
<path d="M38.2448 107.037H36.2351V117.715H38.2448V107.037Z" fill="#EBEBEB"/>
<path d="M41.8044 107.037H39.7947V117.715H41.8044V107.037Z" fill="#EBEBEB"/>
<path d="M45.3639 107.037H43.3543V117.715H45.3639V107.037Z" fill="#EBEBEB"/>
<path d="M48.9264 107.037H46.9168V117.715H48.9264V107.037Z" fill="#EBEBEB"/>
<path d="M52.486 107.037H50.4764V117.715H52.486V107.037Z" fill="#EBEBEB"/>
<path d="M67.016 24.8371H54.2805V117.715H67.016V24.8371Z" fill="#DBDBDB"/>
<path d="M67.57 22.9879H54.2805V24.8371H67.57V22.9879Z" fill="#C7C7C7"/>
<path d="M58.0817 27.5625H56.0721V117.715H58.0817V27.5625Z" fill="#C7C7C7"/>
<path d="M61.6443 27.5625H59.6346V117.715H61.6443V27.5625Z" fill="#C7C7C7"/>
<path d="M65.2038 27.5625H63.1942V117.715H65.2038V27.5625Z" fill="#C7C7C7"/>
<path d="M58.0817 29.8998H56.0721V33.5513H58.0817V29.8998Z" fill="#DBDBDB"/>
<path d="M61.6443 29.8998H59.6346V33.5513H61.6443V29.8998Z" fill="#DBDBDB"/>
<path d="M65.2038 29.8998H63.1942V33.5513H65.2038V29.8998Z" fill="#DBDBDB"/>
<path d="M58.0817 35.8327H56.0721V39.4842H58.0817V35.8327Z" fill="#DBDBDB"/>
<path d="M61.6443 35.8327H59.6346V39.4842H61.6443V35.8327Z" fill="#DBDBDB"/>
<path d="M65.2038 35.8327H63.1942V39.4842H65.2038V35.8327Z" fill="#DBDBDB"/>
<path d="M58.0817 41.7656H56.0721V45.4171H58.0817V41.7656Z" fill="#DBDBDB"/>
<path d="M61.6443 41.7656H59.6346V45.4171H61.6443V41.7656Z" fill="#DBDBDB"/>
<path d="M65.2038 41.7656H63.1942V45.4171H65.2038V41.7656Z" fill="#DBDBDB"/>
<path d="M58.0817 47.7015H56.0721V51.353H58.0817V47.7015Z" fill="#DBDBDB"/>
<path d="M61.6443 47.7015H59.6346V51.353H61.6443V47.7015Z" fill="#DBDBDB"/>
<path d="M65.2038 47.7015H63.1942V51.353H65.2038V47.7015Z" fill="#DBDBDB"/>
<path d="M58.0817 53.6344H56.0721V57.2859H58.0817V53.6344Z" fill="#DBDBDB"/>
<path d="M61.6443 53.6344H59.6346V57.2859H61.6443V53.6344Z" fill="#DBDBDB"/>
<path d="M65.2038 53.6344H63.1942V57.2859H65.2038V53.6344Z" fill="#DBDBDB"/>
<path d="M58.0817 59.5674H56.0721V63.2188H58.0817V59.5674Z" fill="#DBDBDB"/>
<path d="M61.6443 59.5674H59.6346V63.2188H61.6443V59.5674Z" fill="#DBDBDB"/>
<path d="M65.2038 59.5674H63.1942V63.2188H65.2038V59.5674Z" fill="#DBDBDB"/>
<path d="M58.0817 65.5002H56.0721V69.1517H58.0817V65.5002Z" fill="#DBDBDB"/>
<path d="M61.6443 65.5002H59.6346V69.1517H61.6443V65.5002Z" fill="#DBDBDB"/>
<path d="M65.2038 65.5002H63.1942V69.1517H65.2038V65.5002Z" fill="#DBDBDB"/>
<path d="M58.0817 71.4361H56.0721V75.0876H58.0817V71.4361Z" fill="#DBDBDB"/>
<path d="M61.6443 71.4361H59.6346V75.0876H61.6443V71.4361Z" fill="#DBDBDB"/>
<path d="M65.2038 71.4361H63.1942V75.0876H65.2038V71.4361Z" fill="#DBDBDB"/>
<path d="M58.0817 77.369H56.0721V81.0205H58.0817V77.369Z" fill="#DBDBDB"/>
<path d="M61.6443 77.369H59.6346V81.0205H61.6443V77.369Z" fill="#DBDBDB"/>
<path d="M65.2038 77.369H63.1942V81.0205H65.2038V77.369Z" fill="#DBDBDB"/>
<path d="M58.0817 83.302H56.0721V86.9534H58.0817V83.302Z" fill="#DBDBDB"/>
<path d="M61.6443 83.302H59.6346V86.9534H61.6443V83.302Z" fill="#DBDBDB"/>
<path d="M65.2038 83.302H63.1942V86.9534H65.2038V83.302Z" fill="#DBDBDB"/>
<path d="M58.0817 89.2349H56.0721V92.8863H58.0817V89.2349Z" fill="#DBDBDB"/>
<path d="M61.6443 89.2349H59.6346V92.8863H61.6443V89.2349Z" fill="#DBDBDB"/>
<path d="M65.2038 89.2349H63.1942V92.8863H65.2038V89.2349Z" fill="#DBDBDB"/>
<path d="M58.0817 95.1678H56.0721V98.8193H58.0817V95.1678Z" fill="#DBDBDB"/>
<path d="M61.6443 95.1678H59.6346V98.8193H61.6443V95.1678Z" fill="#DBDBDB"/>
<path d="M65.2038 95.1678H63.1942V98.8193H65.2038V95.1678Z" fill="#DBDBDB"/>
<path d="M58.0817 101.104H56.0721V104.755H58.0817V101.104Z" fill="#DBDBDB"/>
<path d="M61.6443 101.104H59.6346V104.755H61.6443V101.104Z" fill="#DBDBDB"/>
<path d="M65.2038 101.104H63.1942V104.755H65.2038V101.104Z" fill="#DBDBDB"/>
<path d="M58.0817 107.037H56.0721V117.715H58.0817V107.037Z" fill="#DBDBDB"/>
<path d="M61.6443 107.037H59.6346V117.715H61.6443V107.037Z" fill="#DBDBDB"/>
<path d="M65.2038 107.037H63.1942V117.715H65.2038V107.037Z" fill="#DBDBDB"/>
<path d="M30.4037 56.0188H14.0998V117.715H30.4037V56.0188Z" fill="#EBEBEB"/>
<path d="M30.4037 51.9292H16.4188V56.0217H30.4037V51.9292Z" fill="#C7C7C7"/>
<path d="M28.6151 58.1561H15.8855V104.276H28.6151V58.1561Z" fill="#DBDBDB"/>
<path d="M28.6151 62.5573H15.8855V63.648H28.6151V62.5573Z" fill="white"/>
<path d="M28.6151 67.0702H15.8855V68.161H28.6151V67.0702Z" fill="white"/>
<path d="M28.6151 71.5861H15.8855V72.6768H28.6151V71.5861Z" fill="white"/>
<path d="M28.6151 76.099H15.8855V77.1897H28.6151V76.099Z" fill="white"/>
<path d="M28.6151 80.6148H15.8855V81.7055H28.6151V80.6148Z" fill="white"/>
<path d="M28.6151 85.1277H15.8855V86.2184H28.6151V85.1277Z" fill="white"/>
<path d="M28.6151 89.6436H15.8855V90.7343H28.6151V89.6436Z" fill="white"/>
<path d="M28.6151 94.1565H15.8855V95.2472H28.6151V94.1565Z" fill="white"/>
<path d="M28.6151 98.6722H15.8855V99.763H28.6151V98.6722Z" fill="white"/>
<path d="M28.6151 103.185H15.8855V104.276H28.6151V103.185Z" fill="white"/>
<path d="M40.6168 56.0188H30.4037V117.715H40.6168V56.0188Z" fill="#DBDBDB"/>
<path d="M39.0846 51.9292H30.4037V56.0217H39.0846V51.9292Z" fill="#A6A6A6"/>
<path d="M39.6651 58.1561H31.8122V104.276H39.6651V58.1561Z" fill="#C7C7C7"/>
<path d="M39.6651 62.5573H31.8122V63.648H39.6651V62.5573Z" fill="white"/>
<path d="M39.6651 67.0702H31.8122V68.161H39.6651V67.0702Z" fill="white"/>
<path d="M39.6651 71.5861H31.8122V72.6768H39.6651V71.5861Z" fill="white"/>
<path d="M39.6651 76.099H31.8122V77.1897H39.6651V76.099Z" fill="white"/>
<path d="M39.6651 80.6148H31.8122V81.7055H39.6651V80.6148Z" fill="white"/>
<path d="M39.6651 85.1277H31.8122V86.2184H39.6651V85.1277Z" fill="white"/>
<path d="M39.6651 89.6436H31.8122V90.7343H39.6651V89.6436Z" fill="white"/>
<path d="M39.6651 94.1565H31.8122V95.2472H39.6651V94.1565Z" fill="white"/>
<path d="M39.6651 98.6722H31.8122V99.763H39.6651V98.6722Z" fill="white"/>
<path d="M39.6651 103.185H31.8122V104.276H39.6651V103.185Z" fill="white"/>
<path d="M193.458 57.0595H184.75V67.3231H193.458V57.0595Z" fill="#DBDBDB"/>
<path d="M198.98 57.0595H193.458V67.6994H198.98V57.0595Z" fill="#C7C7C7"/>
<path d="M199.348 61.593H193.867V67.6994H199.348V61.593Z" fill="#DBDBDB"/>
<path d="M202.766 61.593H199.348V67.6994H202.766V61.593Z" fill="#C7C7C7"/>
<path d="M195.491 66.6557H181.409V117.715H195.491V66.6557Z" fill="#EBEBEB"/>
<path d="M187.449 68.8518H183.02V70.657H187.449V68.8518Z" fill="white"/>
<path d="M193.113 68.8518H188.684V70.657H193.113V68.8518Z" fill="white"/>
<path d="M187.449 71.9153H183.02V73.7205H187.449V71.9153Z" fill="white"/>
<path d="M193.113 71.9153H188.684V73.7205H193.113V71.9153Z" fill="white"/>
<path d="M187.449 74.9788H183.02V76.784H187.449V74.9788Z" fill="white"/>
<path d="M193.113 74.9788H188.684V76.784H193.113V74.9788Z" fill="white"/>
<path d="M187.449 78.0452H183.02V79.8504H187.449V78.0452Z" fill="white"/>
<path d="M193.113 78.0452H188.684V79.8504H193.113V78.0452Z" fill="white"/>
<path d="M187.449 81.1087H183.02V82.9139H187.449V81.1087Z" fill="white"/>
<path d="M193.113 81.1087H188.684V82.9139H193.113V81.1087Z" fill="white"/>
<path d="M187.449 84.1751H183.02V85.9803H187.449V84.1751Z" fill="white"/>
<path d="M193.113 84.1751H188.684V85.9803H193.113V84.1751Z" fill="white"/>
<path d="M187.449 87.2386H183.02V89.0438H187.449V87.2386Z" fill="white"/>
<path d="M193.113 87.2386H188.684V89.0438H193.113V87.2386Z" fill="white"/>
<path d="M187.449 90.3051H183.02V92.1102H187.449V90.3051Z" fill="white"/>
<path d="M193.113 90.3051H188.684V92.1102H193.113V90.3051Z" fill="white"/>
<path d="M187.449 93.3685H183.02V95.1737H187.449V93.3685Z" fill="white"/>
<path d="M193.113 93.3685H188.684V95.1737H193.113V93.3685Z" fill="white"/>
<path d="M187.449 96.432H183.02V98.2371H187.449V96.432Z" fill="white"/>
<path d="M193.113 96.432H188.684V98.2371H193.113V96.432Z" fill="white"/>
<path d="M187.449 99.4984H183.02V101.304H187.449V99.4984Z" fill="white"/>
<path d="M193.113 99.4984H188.684V101.304H193.113V99.4984Z" fill="white"/>
<path d="M187.449 102.562H183.02V104.367H187.449V102.562Z" fill="white"/>
<path d="M193.113 102.562H188.684V104.367H193.113V102.562Z" fill="white"/>
<path d="M187.449 105.628H183.02V107.433H187.449V105.628Z" fill="white"/>
<path d="M193.113 105.628H188.684V107.433H193.113V105.628Z" fill="white"/>
<path d="M187.449 108.692H183.02V110.497H187.449V108.692Z" fill="white"/>
<path d="M193.113 108.692H188.684V110.497H193.113V108.692Z" fill="white"/>
<path d="M206.9 66.6557H195.491V117.715H206.9V66.6557Z" fill="#C7C7C7"/>
<path d="M202.121 110.497H205.757V108.692H202.121V110.497Z" fill="#EBEBEB"/>
<path d="M197.468 110.497H201.104V108.692H197.468V110.497Z" fill="#EBEBEB"/>
<path d="M202.121 107.431H205.757V105.625H202.121V107.431Z" fill="#EBEBEB"/>
<path d="M197.468 107.431H201.104V105.625H197.468V107.431Z" fill="#EBEBEB"/>
<path d="M202.121 104.367H205.757V102.562H202.121V104.367Z" fill="#EBEBEB"/>
<path d="M197.468 104.367H201.104V102.562H197.468V104.367Z" fill="#EBEBEB"/>
<path d="M202.121 101.304H205.757V99.4984H202.121V101.304Z" fill="#EBEBEB"/>
<path d="M197.468 101.304H201.104V99.4984H197.468V101.304Z" fill="#EBEBEB"/>
<path d="M202.121 98.2401H205.757V96.435H202.121V98.2401Z" fill="#EBEBEB"/>
<path d="M197.468 98.2401H201.104V96.435H197.468V98.2401Z" fill="#EBEBEB"/>
<path d="M202.121 95.1737H205.757V93.3685H202.121V95.1737Z" fill="#EBEBEB"/>
<path d="M197.468 95.1737H201.104V93.3685H197.468V95.1737Z" fill="#EBEBEB"/>
<path d="M202.121 92.1072H205.757V90.3021H202.121V92.1072Z" fill="#EBEBEB"/>
<path d="M197.468 92.1072H201.104V90.3021H197.468V92.1072Z" fill="#EBEBEB"/>
<path d="M202.121 89.0438H205.757V87.2386H202.121V89.0438Z" fill="#EBEBEB"/>
<path d="M197.468 89.0438H201.104V87.2386H197.468V89.0438Z" fill="#EBEBEB"/>
<path d="M202.121 85.9774H205.757V84.1722H202.121V85.9774Z" fill="#EBEBEB"/>
<path d="M197.468 85.9774H201.104V84.1722H197.468V85.9774Z" fill="#EBEBEB"/>
<path d="M202.121 82.9168H205.757V81.1117H202.121V82.9168Z" fill="#EBEBEB"/>
<path d="M197.468 82.9168H201.104V81.1117H197.468V82.9168Z" fill="#EBEBEB"/>
<path d="M202.121 79.8504H205.757V78.0452H202.121V79.8504Z" fill="#EBEBEB"/>
<path d="M197.468 79.8504H201.104V78.0452H197.468V79.8504Z" fill="#EBEBEB"/>
<path d="M202.121 76.7869H205.757V74.9817H202.121V76.7869Z" fill="#EBEBEB"/>
<path d="M197.468 76.7869H201.104V74.9817H197.468V76.7869Z" fill="#EBEBEB"/>
<path d="M202.121 73.7205H205.757V71.9153H202.121V73.7205Z" fill="#EBEBEB"/>
<path d="M197.468 73.7205H201.104V71.9153H197.468V73.7205Z" fill="#EBEBEB"/>
<path d="M202.121 70.6541H205.757V68.8489H202.121V70.6541Z" fill="#EBEBEB"/>
<path d="M197.468 70.6541H201.104V68.8489H197.468V70.6541Z" fill="#EBEBEB"/>
<path d="M80.3762 77.0985H63.7364V117.715H80.3762V77.0985Z" fill="#C7C7C7"/>
<path d="M69.2968 80.6148H66.353V83.102H69.2968V80.6148Z" fill="#DBDBDB"/>
<path d="M69.2968 85.9303H66.353V88.4176H69.2968V85.9303Z" fill="#DBDBDB"/>
<path d="M69.2968 91.2458H66.353V93.7331H69.2968V91.2458Z" fill="#DBDBDB"/>
<path d="M69.2968 96.5584H66.353V99.0457H69.2968V96.5584Z" fill="#DBDBDB"/>
<path d="M69.2968 101.874H66.353V104.361H69.2968V101.874Z" fill="#DBDBDB"/>
<path d="M69.2968 107.189H66.353V109.677H69.2968V107.189Z" fill="#DBDBDB"/>
<path d="M69.2968 112.505H66.353V114.992H69.2968V112.505Z" fill="#DBDBDB"/>
<path d="M73.5311 80.6148H70.5874V83.102H73.5311V80.6148Z" fill="#DBDBDB"/>
<path d="M73.5311 85.9303H70.5874V88.4176H73.5311V85.9303Z" fill="#DBDBDB"/>
<path d="M73.5311 91.2458H70.5874V93.7331H73.5311V91.2458Z" fill="#DBDBDB"/>
<path d="M73.5311 96.5584H70.5874V99.0457H73.5311V96.5584Z" fill="#DBDBDB"/>
<path d="M73.5311 101.874H70.5874V104.361H73.5311V101.874Z" fill="#DBDBDB"/>
<path d="M73.5311 107.189H70.5874V109.677H73.5311V107.189Z" fill="#DBDBDB"/>
<path d="M73.5311 112.505H70.5874V114.992H73.5311V112.505Z" fill="#DBDBDB"/>
<path d="M77.7567 80.6148H74.8129V83.102H77.7567V80.6148Z" fill="#DBDBDB"/>
<path d="M77.7567 85.9303H74.8129V88.4176H77.7567V85.9303Z" fill="#DBDBDB"/>
<path d="M77.7567 91.2458H74.8129V93.7331H77.7567V91.2458Z" fill="#DBDBDB"/>
<path d="M77.7567 96.5584H74.8129V99.0457H77.7567V96.5584Z" fill="#DBDBDB"/>
<path d="M77.7567 101.874H74.8129V104.361H77.7567V101.874Z" fill="#DBDBDB"/>
<path d="M77.7567 107.189H74.8129V109.677H77.7567V107.189Z" fill="#DBDBDB"/>
<path d="M77.7567 112.505H74.8129V114.992H77.7567V112.505Z" fill="#DBDBDB"/>
<path d="M80.3733 72.8679H69.2968V77.0985H80.3733V72.8679Z" fill="#DBDBDB"/>
<path d="M80.3733 70.2484H73.3513V72.8679H80.3733V70.2484Z" fill="#EBEBEB"/>
<path d="M92.048 77.0985H80.3733V117.715H92.048V77.0985Z" fill="#A6A6A6"/>
<path d="M88.456 114.595H90.8516V112.108H88.456V114.595Z" fill="#C7C7C7"/>
<path d="M88.456 109.283H90.8516V106.795H88.456V109.283Z" fill="#C7C7C7"/>
<path d="M88.456 103.967H90.8516V101.48H88.456V103.967Z" fill="#C7C7C7"/>
<path d="M88.456 98.6517H90.8516V96.1645H88.456V98.6517Z" fill="#C7C7C7"/>
<path d="M88.456 93.3362H90.8516V90.8489H88.456V93.3362Z" fill="#C7C7C7"/>
<path d="M88.456 88.0206H90.8516V85.5334H88.456V88.0206Z" fill="#C7C7C7"/>
<path d="M88.456 82.7081H90.8516V80.2208H88.456V82.7081Z" fill="#C7C7C7"/>
<path d="M85.0084 114.595H87.404V112.108H85.0084V114.595Z" fill="#C7C7C7"/>
<path d="M85.0084 109.283H87.404V106.795H85.0084V109.283Z" fill="#C7C7C7"/>
<path d="M85.0084 103.967H87.404V101.48H85.0084V103.967Z" fill="#C7C7C7"/>
<path d="M85.0084 98.6517H87.404V96.1645H85.0084V98.6517Z" fill="#C7C7C7"/>
<path d="M85.0084 93.3362H87.404V90.8489H85.0084V93.3362Z" fill="#C7C7C7"/>
<path d="M85.0084 88.0206H87.404V85.5334H85.0084V88.0206Z" fill="#C7C7C7"/>
<path d="M85.0084 82.7081H87.404V80.2208H85.0084V82.7081Z" fill="#C7C7C7"/>
<path d="M81.5696 114.595H83.9653V112.108H81.5696V114.595Z" fill="#C7C7C7"/>
<path d="M81.5696 109.283H83.9653V106.795H81.5696V109.283Z" fill="#C7C7C7"/>
<path d="M81.5696 103.967H83.9653V101.48H81.5696V103.967Z" fill="#C7C7C7"/>
<path d="M81.5696 98.6517H83.9653V96.1645H81.5696V98.6517Z" fill="#C7C7C7"/>
<path d="M81.5696 93.3362H83.9653V90.8489H81.5696V93.3362Z" fill="#C7C7C7"/>
<path d="M81.5696 88.0206H83.9653V85.5334H81.5696V88.0206Z" fill="#C7C7C7"/>
<path d="M81.5696 82.7081H83.9653V80.2208H81.5696V82.7081Z" fill="#C7C7C7"/>
<path d="M90.28 72.8679H80.3733V77.0985H90.28V72.8679Z" fill="#C7C7C7"/>
<path d="M85.7421 70.2484H80.3733V72.8679H85.7421V70.2484Z" fill="#DBDBDB"/>
<path d="M13.8493 129.783C75.7676 129.601 145.226 129.601 207.151 129.783C145.232 129.963 75.7735 129.963 13.8493 129.783Z" fill="#263238"/>
<path d="M13.8493 117.715C75.7676 117.535 145.226 117.532 207.151 117.715C145.232 117.897 75.7735 117.894 13.8493 117.715Z" fill="#263238"/>
<path d="M20.9213 104.467C20.9213 104.467 24.5133 112.426 18.6495 112.434C12.7856 112.443 16.5868 104.202 16.5868 104.202C16.5868 104.202 15.2284 103.614 16.796 99.1633C18.3636 94.7121 19.0708 94.718 19.725 94.718C20.5501 94.718 21.3221 96.6407 20.7622 99.5925C20.7563 99.5925 22.8219 103.273 20.9213 104.467Z" fill="#37474F"/>
<path d="M18.1367 117.715L18.6907 105.719L19.2683 117.715H18.1367Z" fill="#263238"/>
<path d="M18.4638 110.747L20.5942 108.263L18.9235 111.076L18.4638 110.747Z" fill="#263238"/>
<path d="M92.6903 105.323C92.6903 105.323 91.0196 104.664 89.6936 106.969C88.3352 109.321 90.0442 110.888 91.3968 109.959C91.3968 109.959 92.4605 112.182 94.5821 111.649C96.7037 111.117 97.0485 109.424 97.0485 109.424C97.0485 109.424 98.9343 109.553 98.9844 108.151C99.0345 106.748 97.6555 105.505 97.6555 105.505C97.6555 105.505 97.573 102.009 95.2981 102.039C93.0233 102.068 92.6903 105.323 92.6903 105.323Z" fill="#455A64"/>
<path d="M94.258 117.709L94.7235 107.307L95.2127 117.709H94.258Z" fill="#263238"/>
<path d="M94.588 111.217L93.1176 108.301L94.8267 110.762L94.588 111.217Z" fill="#263238"/>
<path d="M64.5909 105.323C64.5909 105.323 62.9172 104.664 61.5912 106.969C60.2358 109.321 61.9419 110.888 63.2944 109.959C63.2944 109.959 64.3581 112.182 66.4827 111.649C68.6072 111.117 68.9491 109.424 68.9491 109.424C68.9491 109.424 70.832 109.553 70.885 108.151C70.9381 106.748 69.5531 105.505 69.5531 105.505C69.5531 105.505 69.4706 102.009 67.1958 102.039C64.921 102.068 64.5909 105.323 64.5909 105.323Z" fill="#455A64"/>
<path d="M66.1556 117.709L66.6241 107.307L67.1133 117.709H66.1556Z" fill="#263238"/>
<path d="M66.4856 111.217L65.0182 108.301L66.7243 110.762L66.4856 111.217Z" fill="#263238"/>
<path d="M204.537 104.414C204.537 104.414 208.129 112.373 202.265 112.379C196.401 112.384 200.202 104.147 200.202 104.147C200.202 104.147 198.844 103.559 200.415 99.1074C201.985 94.6562 202.678 94.668 203.32 94.668C204.148 94.668 204.917 96.5878 204.357 99.5425C204.369 99.5396 206.438 103.22 204.537 104.414Z" fill="#37474F"/>
<path d="M201.752 117.662L202.303 105.664L202.881 117.659L201.752 117.662Z" fill="#263238"/>
<path d="M202.079 110.694L204.207 108.21L202.539 111.023L202.079 110.694Z" fill="#263238"/>
<path d="M182.024 104.414C182.024 104.414 185.616 112.373 179.753 112.379C173.889 112.384 177.69 104.147 177.69 104.147C177.69 104.147 176.331 103.559 177.902 99.1074C179.473 94.6562 180.168 94.668 180.819 94.668C181.647 94.668 182.419 96.5878 181.856 99.5425C181.856 99.5396 183.925 103.22 182.024 104.414Z" fill="#37474F"/>
<path d="M179.24 117.662L179.791 105.664L180.371 117.659L179.24 117.662Z" fill="#263238"/>
<path d="M179.567 110.694L181.694 108.21L180.027 111.023L179.567 110.694Z" fill="#263238"/>
<path d="M84.6253 106.105C84.6253 106.105 81.496 113.084 86.632 113.078C91.768 113.072 88.4324 105.864 88.4324 105.864C88.4324 105.864 89.6111 105.34 88.235 101.454C86.8589 97.5668 86.2371 97.5639 85.6625 97.5668C84.9406 97.5668 84.2688 99.2515 84.7785 101.836C84.7638 101.833 82.9604 105.064 84.6253 106.105Z" fill="#37474F"/>
<path d="M87.0917 117.703L86.5848 107.195L86.1016 117.703H87.0917Z" fill="#263238"/>
<path d="M86.7911 111.602L84.9229 109.427L86.3904 111.891L86.7911 111.602Z" fill="#263238"/>
<path d="M130.944 106.105C130.944 106.105 127.815 113.084 132.951 113.078C138.087 113.072 134.748 105.864 134.748 105.864C134.748 105.864 135.927 105.34 134.554 101.454C133.18 97.5668 132.556 97.5639 131.981 97.5668C131.259 97.5668 130.587 99.2515 131.097 101.836C131.082 101.833 129.279 105.064 130.944 106.105Z" fill="#37474F"/>
<path d="M133.41 117.703L132.903 107.195L132.42 117.703H133.41Z" fill="#263238"/>
<path d="M133.11 111.602L131.242 109.427L132.709 111.891L133.11 111.602Z" fill="#263238"/>
<path d="M185.242 105.281C185.242 105.281 183.568 104.62 182.242 106.925C180.884 109.292 182.593 110.844 183.946 109.918C183.946 109.918 185.009 112.14 187.134 111.608C189.259 111.076 189.597 109.38 189.597 109.38C189.597 109.38 191.483 109.512 191.533 108.107C191.583 106.701 190.204 105.461 190.204 105.461C190.204 105.461 190.122 101.965 187.847 101.994C185.572 102.024 185.242 105.281 185.242 105.281Z" fill="#455A64"/>
<path d="M186.807 117.668L187.272 107.266L187.762 117.665L186.807 117.668Z" fill="#263238"/>
<path d="M187.131 111.161L185.667 108.257L187.42 110.715L187.131 111.161Z" fill="#263238"/>
<path d="M139.301 59.0617C139.072 58.9475 138.836 58.8493 138.593 58.7677C138.346 58.6742 138.088 58.6149 137.824 58.5913C137.744 58.5852 137.663 58.5942 137.586 58.6177C137.561 58.6271 137.536 58.6379 137.512 58.6501L137.465 58.6853C137.435 58.7059 137.412 58.7294 137.382 58.753C137.279 58.8452 137.18 58.9434 137.088 59.047C136.917 59.241 136.761 59.4439 136.607 59.6526L136.799 59.585C136.541 59.5113 136.278 59.4563 136.012 59.4203C135.876 59.4015 135.74 59.3916 135.603 59.3909C135.53 59.3902 135.457 59.3951 135.385 59.4056C135.344 59.4116 135.305 59.4215 135.267 59.435C135.226 59.45 135.186 59.4687 135.149 59.4909C135.031 59.5728 134.927 59.6719 134.839 59.7849C134.754 59.8907 134.68 59.9995 134.607 60.1112C134.468 60.335 134.345 60.5689 134.241 60.811C134.412 60.6081 134.574 60.4052 134.748 60.223C134.834 60.1259 134.919 60.0319 135.01 59.9466C135.093 59.8634 135.186 59.7913 135.287 59.732C135.382 59.7012 135.483 59.6912 135.582 59.7026C135.706 59.7108 135.829 59.7275 135.95 59.7526C136.198 59.7967 136.448 59.8584 136.69 59.9231L136.811 59.9554L136.881 59.8555C137.023 59.6555 137.176 59.4556 137.329 59.2675C137.403 59.1728 137.481 59.0824 137.565 58.997L137.627 58.9382L137.654 58.9147C137.697 58.8973 137.743 58.8883 137.789 58.8882C138.032 58.8878 138.275 58.9114 138.514 58.9588C138.788 58.9646 139.05 59.0176 139.301 59.0617Z" fill="#263238"/>
<path d="M136.525 66.541C136.224 66.3048 135.908 66.0887 135.579 65.8942C135.243 65.685 134.88 65.5219 134.501 65.4091C134.384 65.3773 134.262 65.3673 134.141 65.3797C134.1 65.3829 134.061 65.3928 134.023 65.4091L133.944 65.4444C133.891 65.4679 133.849 65.4944 133.802 65.5179C133.632 65.6207 133.468 65.7326 133.31 65.8531C132.998 66.0883 132.721 66.3411 132.426 66.5998L132.721 66.5587C132.364 66.3757 131.995 66.2176 131.616 66.0853C131.423 66.0199 131.226 65.9659 131.026 65.9236C130.92 65.903 130.811 65.8902 130.702 65.8854C130.643 65.8811 130.582 65.8811 130.523 65.8854C130.461 65.8854 130.393 65.9177 130.334 65.9324C130.136 66.019 129.953 66.1361 129.792 66.2794C129.638 66.4092 129.491 66.5476 129.353 66.6939C129.082 66.9805 128.835 67.2882 128.613 67.6141C128.908 67.3672 129.217 67.1173 129.53 66.8879C129.679 66.77 129.834 66.6601 129.995 66.5587C130.14 66.46 130.298 66.381 130.464 66.3235C130.619 66.305 130.777 66.3211 130.926 66.3705C131.105 66.4184 131.28 66.4783 131.451 66.5498C131.799 66.688 132.152 66.8438 132.488 67.0173L132.656 67.0996L132.789 66.9732C133.054 66.7174 133.337 66.4705 133.62 66.2323C133.756 66.1138 133.898 66.0029 134.047 65.9001C134.082 65.8795 134.118 65.8531 134.153 65.8354L134.2 65.809C134.2 65.809 134.2 65.809 134.218 65.809C134.286 65.7969 134.356 65.7969 134.424 65.809C134.782 65.8788 135.133 65.9842 135.47 66.1235C135.821 66.2529 136.171 66.3999 136.525 66.541Z" fill="#263238"/>
<path d="M78.6141 36.4266C78.4089 36.2745 78.1933 36.1369 77.9688 36.015C77.7395 35.8848 77.4937 35.7859 77.238 35.721C77.1581 35.7069 77.0763 35.7069 76.9964 35.721C76.9703 35.727 76.9447 35.7348 76.9198 35.7445L76.8667 35.771C76.8353 35.7869 76.8048 35.8045 76.7754 35.8239C76.664 35.8951 76.5567 35.9727 76.4542 36.0562C76.2509 36.2208 76.0652 36.3943 75.8796 36.5736L76.077 36.5383C75.8346 36.4256 75.5857 36.3275 75.3315 36.2443C75.2019 36.209 75.0693 36.1738 74.9308 36.1502C74.8588 36.1373 74.7859 36.1304 74.7127 36.1297C74.6725 36.1269 74.6321 36.1269 74.5919 36.1297C74.5498 36.1383 74.5085 36.1501 74.4681 36.1649C74.3374 36.2275 74.2172 36.3098 74.1116 36.409C74.0129 36.5017 73.9194 36.5999 73.8317 36.703C73.6568 36.9003 73.4972 37.1106 73.3543 37.3321C73.5547 37.1616 73.7492 36.9881 73.9436 36.8264C74.0438 36.7471 74.147 36.6677 74.2383 36.6001C74.3289 36.5318 74.428 36.4755 74.533 36.4325C74.6364 36.417 74.7419 36.424 74.8424 36.4531C74.9622 36.4826 75.0803 36.5189 75.196 36.5618C75.4317 36.6471 75.6704 36.7471 75.8973 36.8558L76.0122 36.9058L76.0977 36.8206C76.2686 36.6442 76.4542 36.4707 76.6369 36.3061C76.7249 36.2246 76.8174 36.148 76.9139 36.0767C76.9375 36.0767 76.961 36.0415 76.9846 36.0297L77.0141 36.0121C77.0141 36.0121 77.0141 36.0121 77.0288 36.0121C77.0736 36.004 77.1195 36.004 77.1643 36.0121C77.4045 36.0528 77.6402 36.1158 77.8686 36.2002C78.1368 36.2502 78.3813 36.3413 78.6141 36.4266Z" fill="#263238"/>
<path d="M87.0769 35.4006C86.8601 35.0848 86.6218 34.7842 86.3639 34.5009C86.1058 34.2018 85.8084 33.9387 85.4799 33.7189C85.378 33.654 85.2652 33.6081 85.1469 33.5836C85.1068 33.5775 85.0661 33.5775 85.0261 33.5836C84.9966 33.5819 84.9671 33.5819 84.9377 33.5836L84.7815 33.616C84.5877 33.6613 84.3968 33.7182 84.2098 33.7865C83.8445 33.9188 83.4967 34.0805 83.1431 34.2393L83.4378 34.2863C83.1503 34.0072 82.8441 33.7479 82.5214 33.5101C82.3564 33.3885 82.1831 33.2785 82.0028 33.1809C81.9076 33.1285 81.8092 33.0824 81.7081 33.0427C81.6502 33.0242 81.5911 33.0094 81.5313 32.9986C81.4666 32.994 81.4016 32.994 81.3368 32.9986C81.1229 33.0228 80.9141 33.0804 80.718 33.1691C80.5294 33.2485 80.3526 33.3396 80.1758 33.4337C79.8321 33.6285 79.504 33.8497 79.1946 34.0952C79.56 33.9482 79.9224 33.8012 80.2849 33.6718C80.463 33.6034 80.645 33.5455 80.83 33.4984C80.9978 33.445 81.1725 33.4162 81.3486 33.4131C81.502 33.4394 81.6473 33.5008 81.7729 33.5925C81.9292 33.6913 82.0789 33.8004 82.2208 33.9188C82.5155 34.154 82.8102 34.4127 83.0724 34.6714L83.208 34.8008L83.373 34.7185C83.703 34.5538 84.0478 34.401 84.3866 34.2569C84.5518 34.1844 84.721 34.1215 84.8935 34.0687C84.9331 34.0556 84.9734 34.0448 85.0143 34.0364H85.0673H85.0879C85.1567 34.0461 85.2234 34.0669 85.2854 34.0981C85.6053 34.2666 85.9083 34.4655 86.19 34.692C86.4876 34.9155 86.7764 35.1595 87.0769 35.4006Z" fill="#263238"/>
<path d="M147.646 64.7065C147.429 64.3907 147.191 64.0901 146.933 63.8068C146.675 63.5069 146.378 63.2438 146.049 63.0248C145.948 62.9582 145.834 62.9122 145.716 62.8896C145.675 62.8849 145.635 62.8849 145.595 62.8896H145.509C145.45 62.8896 145.403 62.9101 145.35 62.919C145.158 62.9662 144.968 63.0241 144.782 63.0924C144.413 63.2247 144.065 63.3864 143.712 63.5452L144.007 63.5922C143.72 63.3123 143.414 63.0529 143.09 62.8161C142.924 62.6945 142.751 62.5835 142.572 62.4838C142.477 62.4313 142.378 62.3861 142.277 62.3486C142.22 62.3291 142.162 62.3143 142.103 62.3045C142.038 62.3001 141.973 62.3001 141.909 62.3045C141.694 62.3282 141.484 62.3857 141.287 62.475C141.102 62.5519 140.922 62.6403 140.748 62.7396C140.403 62.9335 140.074 63.1536 139.763 63.3982C140.132 63.2541 140.491 63.1042 140.857 62.9748C141.036 62.9101 141.219 62.8484 141.399 62.8014C141.567 62.7508 141.742 62.7221 141.917 62.7161C142.071 62.745 142.217 62.8061 142.345 62.8954C142.499 62.9961 142.648 63.1061 142.79 63.2247C143.084 63.457 143.379 63.7186 143.641 63.9774L143.777 64.1067L143.942 64.0244C144.272 63.8598 144.617 63.7069 144.955 63.5628C145.121 63.4898 145.29 63.4261 145.462 63.3717L145.583 63.3423H145.636C145.636 63.3423 145.636 63.3423 145.657 63.3423C145.726 63.3506 145.793 63.3715 145.854 63.4041C146.175 63.5774 146.478 63.7823 146.759 64.0156C147.056 64.2214 147.348 64.4654 147.646 64.7065Z" fill="#263238"/>
<path d="M33.9545 81.8996C30.3898 82.0995 26.8168 82.0995 23.2522 81.8996C26.8168 81.6997 30.3898 81.6997 33.9545 81.8996Z" fill="#263238"/>
<path d="M25.6949 85.4129C22.0192 85.6128 18.3354 85.6128 14.6597 85.4129C18.3353 85.21 22.0193 85.21 25.6949 85.4129Z" fill="#263238"/>
<path d="M23.6558 83.2314C19.3684 83.4314 15.0457 83.4314 10.7553 83.2314C15.0457 83.0286 19.3684 83.0286 23.6558 83.2314Z" fill="#263238"/>
<path d="M106.08 63.1012C102.515 63.3012 98.9423 63.3012 95.3777 63.1012C98.9423 62.9013 102.515 62.9013 106.08 63.1012Z" fill="#263238"/>
<path d="M90.442 77.4132C86.7654 77.6131 83.0805 77.6131 79.4038 77.4132C83.0805 77.2132 86.7654 77.2132 90.442 77.4132Z" fill="#263238"/>
<path d="M96.3295 74.8406C92.0391 75.0406 87.7164 75.0406 83.426 74.8406C87.7164 74.6407 92.0391 74.6407 96.3295 74.8406Z" fill="#263238"/>
<g opacity="0.8">
<path opacity="0.8" d="M13.92 129.783L16.0416 129.401C16.0416 129.401 13.7845 127.09 15.1576 125.67C16.5308 124.25 18.6347 125.506 18.6347 125.506C18.6347 125.506 18.3224 122.128 20.939 121.422C23.5556 120.716 25.8629 125.767 25.8629 125.767C25.8629 125.767 26.246 124.591 28.2025 125.047C30.1591 125.503 31.7032 128.169 31.7032 128.169L55.9395 129.786" fill="white"/>
<path opacity="0.8" d="M13.92 129.783L16.0387 129.386C15.5584 128.926 15.1757 128.374 14.9131 127.764C14.2118 126.332 15.2077 124.997 16.7371 124.95C17.4152 124.952 18.0813 125.129 18.6701 125.465L18.5935 125.512C18.5589 125.002 18.5926 124.49 18.6936 123.989C19.0708 121.734 21.3957 120.375 23.2698 122.048C24.4485 123.033 25.2529 124.374 25.9218 125.738H25.7981C25.9281 125.433 26.1692 125.188 26.4728 125.053C28.0228 124.427 29.6405 125.488 30.6276 126.632C31.0458 127.081 31.4079 127.58 31.7061 128.116L55.9395 129.777L31.7002 128.208C31.6708 128.208 31.6767 128.208 31.6619 128.184C31.3375 127.661 30.9656 127.169 30.551 126.714C29.7407 125.811 28.674 125.003 27.4069 125.009C26.8176 124.985 26.1517 125.226 25.9336 125.794L25.8747 125.932L25.8098 125.8C25.1468 124.462 24.3365 123.154 23.1903 122.163C21.9527 121.034 20.2848 121.26 19.3596 122.642C18.8486 123.508 18.62 124.511 18.7054 125.512V125.603L18.6259 125.559C18.0539 125.229 17.4063 125.053 16.7459 125.047C15.7882 125.047 14.7392 125.77 14.7628 126.796C14.7864 127.822 15.4258 128.687 16.0711 129.419H16.0505L13.9259 129.789L13.92 129.783Z" fill="#263238"/>
</g>
<g opacity="0.8">
<path opacity="0.8" d="M19.7162 129.783L21.8348 129.401C21.8348 129.401 19.5777 127.09 20.9508 125.67C22.324 124.25 24.4279 125.506 24.4279 125.506C24.4279 125.506 24.1037 122.128 26.7233 121.419C29.3429 120.711 31.6443 125.764 31.6443 125.764C31.6443 125.764 32.0303 124.588 33.9839 125.044C35.9376 125.5 37.4846 128.166 37.4846 128.166L61.7209 129.783" fill="white"/>
<path opacity="0.8" d="M19.7162 129.783L21.8319 129.386C21.3535 128.924 20.971 128.373 20.7062 127.764C20.0049 126.332 21.0009 124.997 22.5302 124.95C23.2064 124.952 23.8706 125.129 24.4573 125.464L24.3837 125.512C24.3491 125.002 24.3828 124.49 24.4839 123.989C24.8581 121.734 27.183 120.375 29.0571 122.048C30.2358 123.033 31.0431 124.374 31.7091 125.738H31.5883C31.7183 125.433 31.9594 125.188 32.2631 125.053C33.813 124.427 35.4278 125.488 36.4149 126.632C36.8331 127.081 37.1952 127.58 37.4934 128.116L61.7268 129.777L37.4875 128.207C37.458 128.207 37.4639 128.207 37.4521 128.184C37.1258 127.662 36.754 127.171 36.3412 126.714C35.5309 125.811 34.4613 125.003 33.1972 125.009C32.6078 124.985 31.9419 125.226 31.7238 125.794L31.6678 125.932L31.603 125.8C30.9371 124.462 30.1297 123.154 28.9805 122.163C27.7429 121.034 26.0751 121.26 25.1498 122.642C24.638 123.508 24.4084 124.51 24.4927 125.512V125.603L24.4131 125.559C23.8417 125.228 23.1938 125.052 22.5332 125.047C21.5755 125.047 20.5265 125.77 20.5501 126.796C20.5736 127.822 21.2131 128.687 21.8613 129.419H21.8378L19.7162 129.789V129.783Z" fill="#263238"/>
</g>
<path d="M107.468 74.1439C105.532 75.852 103.493 78.204 100.909 78.8802C98.8813 79.4035 96.7509 78.8067 94.9416 77.8718C90.9607 75.8138 87.186 71.4949 88.5621 66.7204C89.1131 64.8123 91.6325 62.5456 93.7895 63.2512C94.8945 63.6157 95.7372 64.4272 96.6595 65.1004C97.2156 65.5367 97.863 65.8425 98.5537 65.9951C99.2443 66.1478 99.9606 66.1435 100.649 65.9824C103.531 65.3591 104.878 63.945 107.262 62.3574C107.488 62.1847 107.747 62.0606 108.023 61.9928C108.3 61.925 108.587 61.915 108.868 61.9634C110.092 62.2186 111.19 62.8899 111.973 63.8627C112.663 64.9299 112.513 66.6028 112.563 67.817C112.613 69.0312 112.292 69.875 111.369 70.7188C110.082 71.8801 108.767 73.0031 107.468 74.1439Z" fill="#263238"/>
<path d="M106.719 75.1494C108.393 73.4794 110.032 71.7772 111.685 70.0867C111.685 70.0867 111.685 70.0573 111.685 70.069C110.285 71.4214 108.868 72.7532 107.486 74.1233C106.104 75.4933 104.834 76.9427 103.36 78.1628C100.066 80.9059 95.9435 78.5627 93.8248 75.5933C93.7276 75.458 93.5302 75.6256 93.6245 75.7579C95.5693 78.3069 98.8194 80.6031 102.143 79.1801C103.95 78.4039 105.349 76.5165 106.719 75.1494Z" fill="#263238"/>
<path d="M107.568 62.3721C107.603 62.3427 107.568 62.2927 107.521 62.3192C105.614 63.7069 103.522 65.5061 101.08 65.7443C99.8765 65.8593 98.6666 65.6093 97.6083 65.0269C96.7715 64.5624 96.1586 63.8509 95.4367 63.2423C92.6167 60.8698 88.7801 63.895 88.9392 67.132C88.9392 67.1996 89.0601 67.1966 89.0601 67.132C89.0601 64.78 90.7632 62.6191 93.2443 62.5661C95.2363 62.522 96.3 64.6447 98.0002 65.4003C101.524 66.9585 104.94 64.5683 107.568 62.3721Z" fill="#263238"/>
<path d="M94.8827 85.9274C94.8827 85.9274 94.6676 83.8958 94.6794 83.4754C94.6911 83.055 96.8422 81.6056 96.8422 81.6056C96.8422 81.6056 97.349 77.7248 97.7557 76.8487C97.8677 76.6046 101.536 76.2607 102.014 76.6958C102.491 77.1309 104.839 86.0861 104.839 86.0861L94.8827 85.9274Z" fill="white"/>
<path opacity="0.5" d="M94.8827 85.9274C94.8827 85.9274 94.6676 83.8958 94.6794 83.4754C94.6911 83.055 96.8422 81.6056 96.8422 81.6056C96.8422 81.6056 97.349 77.7248 97.7557 76.8487C97.8677 76.6046 101.536 76.2607 102.014 76.6958C102.491 77.1309 104.839 86.0861 104.839 86.0861L94.8827 85.9274Z" fill="white"/>
<path d="M108.476 75.5874C110.538 79.7034 113.88 84.428 114.958 85.063C116.34 85.8656 123.283 85.801 123.663 85.751C124.603 85.6216 124.529 79.2565 123.518 79.3506C121.983 79.4947 117.775 80.0885 117.372 79.8357C116.968 79.5829 113.977 77.2514 110.848 74.5761C108.7 72.7268 107.197 73.0355 108.476 75.5874Z" fill="#D3766A"/>
<path d="M126.362 78.692C127.475 78.4558 128.634 78.6019 129.653 79.1066C130.605 79.577 130.803 81.2145 130.632 81.5762C130.461 81.9378 129.029 84.0222 128.071 83.5724C127.113 83.1226 128.51 81.6585 128.569 81.4439C128.628 81.2292 128.71 80.9558 128.522 80.8912C128.333 80.8265 124.455 80.8294 124.455 80.8294L126.362 78.692Z" fill="#D3766A"/>
<path d="M126.533 78.6597C126.586 78.6832 129.633 78.8831 130.584 79.3535C131.536 79.8239 131.731 81.4615 131.56 81.8231C131.389 82.1848 129.96 84.2692 129.002 83.8194C128.044 83.3696 129.441 81.9055 129.5 81.6908C129.559 81.4762 129.642 81.2057 129.45 81.1381C129.258 81.0705 125.387 81.0764 125.387 81.0764L126.533 78.6597Z" fill="#D3766A"/>
<path d="M128.734 83.5431C128.712 83.3238 128.749 83.1027 128.84 82.9022C128.918 82.6911 129.027 82.4928 129.164 82.3141C129.299 82.1679 129.421 82.0105 129.53 81.8437C129.613 81.6668 129.649 81.4714 129.636 81.2763C129.636 81.1058 129.465 81.0852 129.323 81.0705C129.112 81.0588 128.901 81.0588 128.69 81.0705L128.012 81.094C127.778 81.093 127.543 81.1068 127.311 81.1352C127.308 81.1366 127.305 81.1388 127.303 81.1417C127.301 81.1446 127.3 81.1479 127.3 81.1514C127.3 81.1548 127.301 81.1582 127.303 81.161C127.305 81.1639 127.308 81.1662 127.311 81.1675C127.507 81.1779 127.704 81.1779 127.9 81.1675C128.121 81.1675 128.345 81.1675 128.566 81.1675C128.787 81.1675 128.981 81.1675 129.191 81.1675C129.291 81.1568 129.393 81.172 129.485 81.2116C129.55 81.2616 129.485 81.4586 129.485 81.5233C129.445 81.7145 129.348 81.8894 129.208 82.026C129.077 82.1726 128.96 82.3322 128.861 82.5023C128.765 82.6614 128.699 82.8368 128.666 83.0197C128.655 83.1939 128.666 83.3687 128.699 83.5401C128.699 83.5725 128.737 83.5666 128.734 83.5431Z" fill="#263238"/>
<path d="M126.975 78.5833C127.034 78.5833 130.06 78.1922 131.085 78.4657C132.111 78.7391 132.629 80.3032 132.532 80.6912C132.435 81.0793 131.448 83.4078 130.419 83.152C129.391 82.8962 130.473 81.191 130.484 80.9705C130.496 80.75 130.529 80.4649 130.328 80.4355C130.128 80.4061 126.332 81.1793 126.332 81.1793L126.975 78.5833Z" fill="#D3766A"/>
<path d="M130.101 82.9374C130.038 82.7262 130.031 82.5024 130.081 82.2877C130.113 82.063 130.181 81.8447 130.281 81.6409C130.383 81.4695 130.471 81.2906 130.546 81.1058C130.595 80.9129 130.595 80.7107 130.546 80.5178C130.502 80.3532 130.337 80.3649 130.196 80.3796C129.986 80.4047 129.778 80.443 129.574 80.4943C129.353 80.5413 129.135 80.5972 128.914 80.6472C128.684 80.6941 128.458 80.7549 128.236 80.8294C128.218 80.8294 128.221 80.8618 128.236 80.8588C128.434 80.8344 128.631 80.7991 128.825 80.753L129.482 80.6295C129.686 80.5942 129.889 80.5472 130.095 80.5149C130.192 80.4909 130.293 80.4909 130.39 80.5149C130.464 80.5501 130.455 80.753 130.455 80.8089C130.453 81.0039 130.393 81.1941 130.284 81.3557C130.182 81.5247 130.099 81.7041 130.036 81.8908C129.975 82.0664 129.945 82.2516 129.948 82.4376C129.973 82.6101 130.018 82.7789 130.084 82.9404C130.072 82.9727 130.11 82.958 130.101 82.9374Z" fill="#263238"/>
<path d="M126.826 88.5571L128.248 89.277L133.334 79.278L131.912 78.5581L126.826 88.5571Z" fill="#263238"/>
<path d="M133.581 83.9799L130.746 82.9314L130.122 84.613L132.956 85.6614L133.581 83.9799Z" fill="#263238"/>
<path d="M134.533 83.9497L132.69 83.2681L131.813 85.6279L133.656 86.3095L134.533 83.9497Z" fill="#263238"/>
<path d="M122.301 79.7357C122.301 79.7357 125.731 78.7773 126.533 78.6597C127.594 78.5009 129.258 79.0213 129.314 79.8651C129.314 80.1091 128.26 81.1322 128.183 81.3351C127.965 81.879 128.003 83.0991 128.908 83.5019C129.812 83.9047 131.006 82.8727 131.893 83.1138C132.78 83.3549 131.53 84.6014 130.54 85.1953C129.537 85.7455 128.398 86.0003 127.255 85.9303C126.347 85.8568 123.471 85.7569 123.471 85.7569L122.301 79.7357Z" fill="#D3766A"/>
<path d="M130.31 83.3843C129.851 83.4842 129.312 83.6401 128.861 83.449C128.41 83.2579 128.239 82.8139 128.204 82.3435C128.144 81.8678 128.268 81.3872 128.551 80.9999C128.837 80.665 129.214 80.419 129.636 80.2914C130.152 80.138 130.688 80.0598 131.227 80.0591C131.25 80.0591 131.245 80.0209 131.227 80.0209C130.729 80.0209 129.205 79.9298 128.416 80.9353C128.13 81.3324 128.006 81.8235 128.071 82.3082C128.06 82.5363 128.107 82.7635 128.206 82.969C128.306 83.1745 128.456 83.3516 128.643 83.4842C129.149 83.7782 129.807 83.5607 130.337 83.4196C130.355 83.4019 130.334 83.3784 130.31 83.3843Z" fill="#263238"/>
<path d="M123.465 78.8831L122.932 86.6447C122.932 86.6447 116.329 86.3742 114.905 85.4305C113.482 84.4868 109.878 78.7214 108.529 75.8285C107.179 72.9355 108.738 72.6415 110.618 74.2144C112.498 75.7873 117.148 79.5858 117.372 79.6387C117.596 79.6916 123.465 78.8831 123.465 78.8831Z" fill="#455A64"/>
<path d="M121.55 83.5842C121.621 82.6669 121.697 81.7496 121.733 80.8294C121.753 80.3061 121.777 79.7857 121.795 79.2624C121.795 79.2418 121.759 79.2389 121.759 79.2624C121.65 80.1797 121.547 81.0999 121.479 82.0231C121.412 82.9462 121.344 83.8576 121.291 84.7749C121.261 85.2982 121.247 85.8186 121.249 86.3419H121.267C121.403 85.4276 121.479 84.5073 121.55 83.5842Z" fill="#263238"/>
<path d="M122.973 85.8715L122.92 86.6447C122.92 86.6447 116.314 86.3743 114.893 85.4335C113.473 84.4927 109.866 78.7214 108.517 75.8285C107.53 73.7146 108.098 72.9855 109.209 73.3648C112.663 76.44 119.187 82.2906 122.973 85.8715Z" fill="#37474F"/>
<path d="M99.0876 88.1794L114.537 88.4323L113.326 83.8165C113.326 83.8165 114.608 82.6405 113.971 80.3208C113.603 78.9625 111.891 76.3988 110.815 75.1082C108.19 71.9594 105.909 73.3824 105.181 74.1909C102.403 77.2838 99.0876 88.1794 99.0876 88.1794Z" fill="#455A64"/>
<path d="M105.841 73.6441L109.286 73.7235L109.424 73.8146L105.715 73.7293C105.756 73.6999 105.785 73.6705 105.841 73.6441ZM104.639 74.8818L110.739 75.02L110.662 74.9289L104.704 74.7936L104.639 74.8818ZM103.911 76.0372L111.67 76.2166L111.605 76.1284L103.964 75.9549C103.945 75.9812 103.927 76.0087 103.911 76.0372ZM103.295 77.2132L112.483 77.4249C112.462 77.3955 112.445 77.3632 112.424 77.3308L103.337 77.125C103.322 77.1427 103.307 77.1721 103.295 77.2015V77.2132ZM102.736 78.3892L113.202 78.6274L113.152 78.5421L102.777 78.304L102.736 78.3892ZM102.223 79.5652L113.788 79.8298C113.788 79.8004 113.765 79.771 113.753 79.7387L102.261 79.477L102.223 79.5652ZM101.74 80.7265L114.116 81.0205C114.116 80.9941 114.116 80.9647 114.116 80.9353L101.793 80.6413C101.76 80.6354 101.748 80.6648 101.74 80.6913V80.7265ZM101.277 81.9025L114.104 82.1965C114.104 82.1671 114.104 82.1377 114.104 82.1083L101.301 81.8143L101.277 81.9025ZM100.838 83.0785L113.703 83.3725L113.75 83.2873L100.87 82.9933L100.838 83.0785ZM100.417 84.2545L113.5 84.5485L113.476 84.4603L100.449 84.1663C100.434 84.1311 100.428 84.1605 100.417 84.1899V84.2545ZM100.007 85.4305L113.809 85.7481L113.786 85.6599L100.039 85.26C100.031 85.2921 100.02 85.3235 100.007 85.3541V85.4305ZM99.618 86.6065L114.121 86.9388L114.098 86.8476L99.6592 86.5183L99.618 86.6065ZM99.2408 87.7825L114.431 88.1295L114.407 88.0383L99.2673 87.612C99.2555 87.6326 99.2496 87.6649 99.2408 87.6914V87.7825Z" fill="white"/>
<path d="M109.192 83.546C109.852 83.4868 110.516 83.4759 111.178 83.5136C111.508 83.5372 111.832 83.5754 112.159 83.6195C112.321 83.643 112.486 83.6606 112.648 83.6753C112.818 83.6974 112.991 83.6974 113.161 83.6753C113.179 83.6753 113.181 83.6959 113.161 83.6989C113.003 83.737 112.842 83.7635 112.681 83.7782C112.524 83.7885 112.366 83.7885 112.209 83.7782C111.873 83.7577 111.54 83.7224 111.207 83.6959C110.535 83.6489 109.864 83.6018 109.189 83.6018C109.183 83.5996 109.178 83.5956 109.175 83.5904C109.171 83.5852 109.17 83.579 109.17 83.5728C109.17 83.5666 109.172 83.5607 109.176 83.5559C109.18 83.551 109.186 83.5476 109.192 83.546Z" fill="#263238"/>
<path d="M107.689 84.4103C108.215 84.2584 108.749 84.1357 109.289 84.0428C109.557 83.9958 109.828 83.9664 110.102 83.9429L110.491 83.9164C110.636 83.9164 110.786 83.9164 110.924 83.9164C110.939 83.9164 110.945 83.937 110.924 83.937C110.792 83.9517 110.656 83.987 110.524 84.0076L110.12 84.0693L109.31 84.1987C108.77 84.2781 108.231 84.3604 107.695 84.4574C107.668 84.4603 107.662 84.4192 107.689 84.4103Z" fill="#263238"/>
<path d="M107.002 73.794C107.082 74.0704 108.505 75.8138 109.781 75.6903C110.196 75.6492 110.076 73.3795 110.076 73.3795L110.105 73.2119L110.5 70.854L107.648 69.2194L107.235 69.0048C107.235 69.0048 107.167 69.6633 107.088 70.4748V70.5924C107.088 70.6394 107.088 70.6835 107.073 70.7247C107.058 70.8481 107.046 70.9716 107.035 71.098C107.023 71.2245 107.02 71.2833 107.014 71.392C107.008 71.5008 107.014 71.589 106.993 71.686C106.949 72.3881 106.952 73.0924 107.002 73.794Z" fill="#D3766A"/>
<path d="M107.1 70.4718C107.371 71.1197 107.779 71.7011 108.298 72.1757C108.816 72.6504 109.432 73.0069 110.102 73.2207L110.5 70.854L107.648 69.2194L107.235 69.0048C107.235 69.0048 107.179 69.6545 107.1 70.4718Z" fill="#263238"/>
<path d="M113.547 66.5792C114.673 70.657 112.368 71.7889 111.484 72.03C110.686 72.2505 107.933 72.8944 106.392 68.9548C104.851 65.0152 106.375 63.21 108.184 62.622C109.993 62.034 112.421 62.5044 113.547 66.5792Z" fill="#D3766A"/>
<path d="M112.778 66.0353C112.678 66.0353 112.583 66.0353 112.483 66.0353C112.382 66.0513 112.279 66.0348 112.188 65.9883C112.163 65.9678 112.144 65.9394 112.137 65.9075C112.129 65.8757 112.131 65.8421 112.144 65.8119C112.179 65.7553 112.229 65.7091 112.288 65.678C112.347 65.647 112.414 65.6323 112.48 65.6355C112.617 65.6226 112.753 65.6602 112.863 65.7413C112.891 65.7607 112.912 65.7882 112.923 65.82C112.934 65.8519 112.935 65.8864 112.926 65.9188C112.917 65.9513 112.897 65.9799 112.871 66.0008C112.844 66.0217 112.812 66.0338 112.778 66.0353Z" fill="#263238"/>
<path d="M109.911 66.6145C110.005 66.5792 110.085 66.5322 110.176 66.4881C110.274 66.4557 110.359 66.3916 110.418 66.3058C110.431 66.2753 110.434 66.2411 110.426 66.2086C110.418 66.1761 110.4 66.1472 110.373 66.1265C110.316 66.0932 110.25 66.0757 110.183 66.0757C110.117 66.0757 110.051 66.0932 109.993 66.1265C109.864 66.1773 109.759 66.275 109.699 66.3999C109.683 66.4296 109.678 66.4634 109.683 66.4964C109.688 66.5294 109.703 66.5599 109.727 66.5837C109.75 66.6074 109.781 66.6232 109.814 66.6288C109.847 66.6343 109.881 66.6293 109.911 66.6145Z" fill="#263238"/>
<path d="M110.862 67.5759C110.862 67.5759 110.842 67.5965 110.848 67.6082C110.933 67.8817 110.983 68.1962 110.759 68.3726C110.759 68.3726 110.759 68.3932 110.759 68.3873C111.06 68.2609 110.986 67.8229 110.862 67.5759Z" fill="#263238"/>
<path d="M110.532 67.3554C110.076 67.4436 110.288 68.3491 110.712 68.2668C111.136 68.1845 110.915 67.279 110.532 67.3554Z" fill="#263238"/>
<path d="M110.364 67.4436C110.3 67.5142 110.244 67.6229 110.149 67.6553C110.055 67.6876 109.934 67.6171 109.855 67.5436C109.855 67.5436 109.837 67.5436 109.855 67.5436C109.893 67.72 110.002 67.8817 110.194 67.864C110.385 67.8464 110.456 67.6641 110.459 67.4818C110.432 67.4583 110.394 67.4171 110.364 67.4436Z" fill="#263238"/>
<path d="M112.409 67.1525C112.409 67.1525 112.433 67.1525 112.436 67.1702C112.492 67.4642 112.601 67.7582 112.878 67.8052V67.8199C112.563 67.8464 112.415 67.4289 112.409 67.1525Z" fill="#263238"/>
<path d="M112.592 66.7997C113.037 66.6645 113.279 67.5612 112.869 67.6817C112.46 67.8023 112.221 66.9144 112.592 66.7997Z" fill="#263238"/>
<path d="M112.798 66.8086C112.881 66.838 112.975 66.9056 113.061 66.8879C113.146 66.8703 113.208 66.7527 113.246 66.6439C113.246 66.6439 113.246 66.6439 113.261 66.6439C113.298 66.7187 113.307 66.8042 113.287 66.8851C113.266 66.9659 113.217 67.0368 113.149 67.0849C113.005 67.1555 112.854 67.0379 112.769 66.8762C112.751 66.8527 112.763 66.7997 112.798 66.8086Z" fill="#263238"/>
<path d="M111.384 69.8838C111.456 69.9548 111.551 69.9985 111.652 70.0073C111.758 69.9855 111.859 69.9414 111.947 69.8779C111.947 69.8779 111.967 69.8779 111.962 69.8779C111.932 69.9415 111.886 69.9957 111.828 70.0346C111.769 70.0735 111.702 70.0956 111.632 70.0984C111.571 70.0964 111.512 70.0754 111.463 70.0386C111.415 70.0017 111.379 69.9507 111.36 69.8926C111.34 69.8868 111.36 69.8779 111.384 69.8838Z" fill="#263238"/>
<path d="M112.292 68.5843C112.371 68.7767 112.441 68.973 112.501 69.1723C112.501 69.1929 112.462 69.2135 112.395 69.2341C112.233 69.3071 112.055 69.3342 111.879 69.3124C111.704 69.2906 111.537 69.2208 111.399 69.1106C111.381 69.0959 111.399 69.0694 111.422 69.0753C111.716 69.184 112.037 69.1964 112.339 69.1106C112.339 69.0518 112.044 68.4285 112.071 68.4197C112.227 68.3972 112.386 68.3972 112.542 68.4197C112.23 67.57 111.785 66.7792 111.487 65.9266C111.487 65.9206 111.488 65.9145 111.491 65.9093C111.494 65.9041 111.498 65.8999 111.504 65.8973C111.509 65.8948 111.516 65.8939 111.521 65.895C111.527 65.896 111.533 65.8988 111.537 65.9031C112.041 66.7414 112.459 67.6278 112.787 68.5491C112.822 68.6461 112.38 68.599 112.292 68.5843Z" fill="#263238"/>
<path d="M112.342 69.1576C112.275 69.3469 112.16 69.516 112.009 69.6486C111.925 69.7176 111.822 69.7596 111.714 69.7691C111.475 69.7691 111.402 69.581 111.387 69.3957C111.375 69.2981 111.375 69.1994 111.387 69.1017C111.691 69.2219 112.026 69.2415 112.342 69.1576Z" fill="#263238"/>
<path d="M112.009 69.6486C111.925 69.7176 111.822 69.7596 111.714 69.7691C111.475 69.7691 111.402 69.581 111.387 69.3957C111.504 69.3631 111.629 69.3703 111.741 69.4161C111.854 69.4618 111.948 69.5436 112.009 69.6486Z" fill="#FF9BBC"/>
<path d="M106.578 69.4281C106.817 69.2411 107.005 68.9957 107.121 68.7156C107.238 68.4354 107.28 68.1299 107.244 67.8287C107.906 67.356 108.43 66.7156 108.761 65.9736C108.761 66.0647 108.682 66.7262 108.635 67.0614C111.178 66.0118 111.581 63.8274 111.581 63.8274C112.185 64.1848 112.701 64.6731 113.09 65.2562C113.09 65.2562 112.766 63.6333 111.699 62.7249C111.348 62.4028 110.917 62.1804 110.451 62.0806C109.984 61.9808 109.5 62.0073 109.047 62.1575C108.36 62.1383 107.68 62.3039 107.08 62.6371C106.479 62.9702 105.979 63.4585 105.632 64.0508C104.312 66.2735 106.578 69.4281 106.578 69.4281Z" fill="#263238"/>
<path d="M110.556 66.2C110.18 66.522 109.758 66.7866 109.304 66.985C110.005 66.6251 110.592 66.0774 110.998 65.4032C111.17 65.1155 111.304 64.8073 111.399 64.486C111.517 64.1381 111.564 63.7703 111.537 63.404C111.537 63.3776 111.576 63.3746 111.578 63.404C111.64 63.763 111.64 64.1299 111.578 64.4889C111.507 64.8432 111.37 65.1812 111.175 65.4856C111.001 65.7554 110.79 65.999 110.547 66.2088L110.556 66.2Z" fill="#263238"/>
<path d="M105.567 69.384L105.385 69.334C105.408 69.2488 105.62 68.5079 106.012 68.355C106.404 68.2021 108.882 67.9111 108.988 67.8993L109.009 68.0845C108.293 68.1698 106.357 68.4167 106.08 68.5285C105.803 68.6402 105.62 69.1723 105.567 69.384Z" fill="#A6A6A6"/>
<path d="M111.581 67.7082L111.434 67.5935C111.605 67.376 112.023 67.0379 112.445 67.3231L112.339 67.4759C111.973 67.2202 111.599 67.6906 111.581 67.7082Z" fill="#A6A6A6"/>
<g opacity="0.9">
<path opacity="0.9" d="M110.75 69.3282C110.641 69.3665 110.527 69.3921 110.412 69.4046C110.151 69.4306 109.888 69.3829 109.653 69.2669C109.417 69.151 109.22 68.9715 109.082 68.7489C108.944 68.5263 108.872 68.2695 108.873 68.0079C108.874 67.7462 108.949 67.4902 109.09 67.269C109.23 67.0478 109.429 66.8704 109.665 66.7568C109.902 66.6433 110.165 66.5983 110.426 66.6269C110.687 66.6555 110.934 66.7566 111.14 66.9187C111.346 67.0808 111.502 67.2973 111.59 67.5436C111.642 67.6831 111.67 67.8301 111.673 67.9787C111.68 68.2717 111.595 68.5595 111.429 68.8016C111.264 69.0438 111.026 69.2279 110.75 69.3282Z" fill="#37474F"/>
<g opacity="0.1">
<path opacity="0.1" d="M110.618 66.6586L108.959 68.4814C108.874 68.2418 108.856 67.9835 108.909 67.7347L109.864 66.6821C110.108 66.6055 110.369 66.5974 110.618 66.6586Z" fill="white"/>
<path opacity="0.1" d="M111.431 67.229L109.616 69.237C109.537 69.1925 109.462 69.1414 109.392 69.0841L111.272 67.0261C111.332 67.0884 111.385 67.1564 111.431 67.229Z" fill="white"/>
<path opacity="0.1" d="M111.614 67.62L110.005 69.384H109.943L111.596 67.5612L111.614 67.62Z" fill="white"/>
</g>
</g>
<g opacity="0.9">
<path opacity="0.9" d="M113.638 68.6931C113.608 68.6957 113.577 68.6957 113.547 68.6931C113.014 68.746 112.477 68.2492 112.324 67.5347C112.243 67.1965 112.272 66.8412 112.406 66.5204C112.458 66.3811 112.544 66.257 112.656 66.1596C112.769 66.0622 112.904 65.9947 113.049 65.9634C113.195 65.932 113.346 65.9378 113.488 65.9802C113.631 66.0225 113.761 66.1002 113.865 66.2059C114.117 66.4416 114.289 66.7499 114.357 67.0879C114.525 67.8611 114.198 68.5755 113.638 68.6931Z" fill="#37474F"/>
<g opacity="0.1">
<path opacity="0.1" d="M114.354 67.0938L113.008 68.5638C112.848 68.4671 112.71 68.3378 112.604 68.1845L114.119 66.5146C114.232 66.6919 114.311 66.8881 114.354 67.0938Z" fill="white"/>
<path opacity="0.1" d="M113.591 66.0354L112.306 67.4524C112.305 67.4299 112.305 67.4073 112.306 67.3848L113.55 66.0148L113.591 66.0354Z" fill="white"/>
</g>
</g>
<path d="M106.669 70.3718C106.737 70.3802 106.805 70.3802 106.873 70.3718C106.94 70.3724 107.007 70.3614 107.07 70.3395C107.153 70.3169 107.23 70.2757 107.294 70.219C107.346 70.1757 107.392 70.1252 107.43 70.069C107.484 69.9897 107.523 69.9009 107.544 69.8074L107.108 68.7372C107.108 68.7372 105.959 67.6082 105.429 68.0404C104.898 68.4726 105.936 70.2425 106.669 70.3718Z" fill="#D3766A"/>
<path d="M105.744 68.549C105.744 68.549 105.744 68.5667 105.744 68.5696C105.988 68.6387 106.214 68.7581 106.409 68.9202C106.603 69.0823 106.761 69.2834 106.873 69.5104C106.835 69.4669 106.789 69.432 106.737 69.4081C106.685 69.3842 106.628 69.3718 106.571 69.3718C106.513 69.3718 106.457 69.3842 106.404 69.4081C106.352 69.432 106.306 69.4669 106.269 69.5104C106.269 69.5104 106.269 69.5369 106.289 69.5339C106.369 69.4909 106.461 69.4737 106.551 69.4848C106.641 69.4958 106.726 69.5346 106.793 69.5957C106.902 69.7008 107.001 69.816 107.088 69.9397C107.117 69.9779 107.191 69.9397 107.164 69.8926C107.061 69.2664 106.419 68.502 105.744 68.549Z" fill="#263238"/>
<path d="M104.772 74.626C102.414 76.978 96.5623 86.0156 98.2596 87.759C99.9568 89.5024 110.252 87.4003 113.034 86.192C113.859 85.8333 110.468 80.553 109.498 80.6853C108.697 80.7971 104.568 82.2788 104.459 82.0407C104.35 81.8025 105.049 79.8445 106.151 76.3488C107.435 72.324 105.812 73.5852 104.772 74.626Z" fill="#D3766A"/>
<path d="M107.707 82.2729C108.8 81.1745 110.015 80.2039 111.328 79.38C112.607 78.6362 115.568 77.322 119.423 79.4741C120.339 79.9856 121.279 81.3586 119.481 81.0675C118.206 80.8588 117.46 80.3443 116.694 80.359C116.694 80.359 117.684 82.2465 117.136 83.1402C116.658 83.923 116.124 84.6706 115.539 85.3776C115.385 85.2993 115.237 85.2119 115.094 85.1159C115.094 85.1159 114.505 85.9038 113.031 86.1949L107.707 82.2729Z" fill="#D3766A"/>
<path d="M112.663 78.8625C113.423 79.0066 115.02 79.3418 116.252 80.0738C117.61 80.8853 120.003 82.8139 119.39 83.8076C118.942 84.5368 117.964 83.8782 117.964 83.8782C117.964 83.8782 118.786 84.8837 118.235 85.454C117.737 85.9715 117.009 85.4188 117.009 85.4188C117.009 85.4188 117.401 86.1155 116.824 86.5213C116.128 87.0093 115.418 85.4746 114.286 85.3629C114.036 85.3364 112.663 78.8625 112.663 78.8625Z" fill="#D3766A"/>
<path d="M115.156 81.3616C116.324 81.8854 117.305 82.752 117.967 83.8459C117.982 83.8753 117.967 83.9017 117.949 83.8782C117.12 82.9335 116.179 82.0924 115.147 81.3733C115.147 81.3733 115.147 81.3586 115.156 81.3616Z" fill="#263238"/>
<path d="M114.372 82.7493C115.479 83.377 116.395 84.2912 117.024 85.3952C117.024 85.4246 117.024 85.4511 117.006 85.4276C116.226 84.4408 115.336 83.5452 114.354 82.7581C114.354 82.7581 114.366 82.7463 114.372 82.7493Z" fill="#263238"/>
<path d="M116.688 80.3443C117.304 80.365 117.912 80.4944 118.483 80.7265C118.793 80.8335 119.11 80.9219 119.431 80.9911C119.726 81.0529 120.156 81.1469 120.36 80.8529C120.403 80.7682 120.422 80.6734 120.415 80.5786C120.408 80.4838 120.376 80.3927 120.321 80.3149C120.17 80.0922 119.985 79.8939 119.773 79.7269C119.773 79.7269 119.773 79.7063 119.773 79.7122C119.977 79.8642 120.164 80.0366 120.333 80.2267C120.445 80.358 120.515 80.5198 120.533 80.6912C120.533 81.0587 120.156 81.2234 119.844 81.2146C119.656 81.2026 119.469 81.1731 119.287 81.1264C119.113 81.0852 118.939 81.0352 118.765 80.9823C118.412 80.8706 118.067 80.7412 117.713 80.6265C117.373 80.5221 117.027 80.4396 116.676 80.3796L116.688 80.3443Z" fill="#263238"/>
<path d="M118.639 82.123C118.026 81.4933 117.372 80.9041 116.682 80.359C116.682 80.359 116.682 80.3384 116.682 80.3414C117.434 80.795 118.127 81.3401 118.745 81.9643C119.079 82.3009 119.342 82.7007 119.52 83.1403C119.599 83.3158 119.608 83.5154 119.543 83.6969C119.478 83.8784 119.345 84.0277 119.172 84.1134C118.995 84.2026 118.792 84.2295 118.597 84.1898C118.365 84.1274 118.148 84.0195 117.958 83.8723C117.958 83.8723 117.958 83.8488 117.958 83.8547C118.113 83.9648 118.292 84.0379 118.48 84.0685C118.668 84.0991 118.86 84.0863 119.042 84.0311C119.194 83.9679 119.315 83.8474 119.378 83.6959C119.427 83.5123 119.409 83.3171 119.325 83.1461C119.154 82.7698 118.922 82.4241 118.639 82.123Z" fill="#263238"/>
<path d="M108.293 80.9088L111.184 87.5591C111.184 87.5591 98.896 89.8758 97.9236 87.7208C96.9512 85.5657 101.964 77.4308 104.182 75.0993C106.752 72.3857 107.035 73.35 106.404 75.8108C105.744 78.3863 104.512 82.1024 104.512 82.1024L108.293 80.9088Z" fill="#455A64"/>
<path d="M100.741 83.7194C101.321 83.3486 101.928 83.0204 102.556 82.7375C103.177 82.4593 103.818 82.2274 104.474 82.0436C104.845 81.9349 105.223 81.8437 105.6 81.7496C105.6 81.7496 105.614 81.7643 105.6 81.7673C104.942 81.9548 104.295 82.1806 103.664 82.4435C103.036 82.6963 102.411 82.9639 101.79 83.2402C101.439 83.399 101.097 83.5724 100.752 83.74L100.741 83.7194Z" fill="#263238"/>
<path d="M108.261 80.8882C108.199 80.9029 104.663 81.9172 104.551 81.9643C104.565 81.9143 105.482 79.1477 105.494 79.1213C105.558 79.0096 105.891 78.401 105.968 78.2393C105.883 78.3833 105.626 78.7303 105.591 78.7979C105.659 78.6156 105.947 77.6865 106.036 77.3925C106.036 77.3925 106.036 77.3925 106.021 77.3925C105.564 78.2393 104.227 82.2671 104.232 82.2641C104.238 82.2612 108.207 80.9588 108.278 80.9323C108.284 80.93 108.289 80.9254 108.291 80.9196C108.294 80.9138 108.294 80.9073 108.291 80.9014C108.289 80.8956 108.285 80.8909 108.279 80.8884C108.273 80.886 108.266 80.8859 108.261 80.8882Z" fill="#263238"/>
<path d="M108.337 85.1659C108.022 84.4221 107.71 83.6783 107.362 82.9491C107.167 82.5346 106.973 82.1171 106.772 81.7026C106.772 81.7026 106.737 81.7026 106.743 81.7026C107.038 82.4611 107.332 83.2196 107.648 83.9634C107.963 84.7073 108.287 85.4481 108.62 86.1832C108.816 86.6046 109.018 87.0171 109.224 87.4209H109.239C108.977 86.6594 108.658 85.9127 108.337 85.1659Z" fill="#263238"/>
<path d="M111.34 87.6679C111.222 87.4621 111.081 87.1651 110.957 86.9652C110.924 86.9123 110.883 86.9211 110.91 86.9652C110.995 87.1504 111.066 87.3592 111.151 87.5532L110.633 87.6355L110.043 87.7414C109.654 87.806 109.262 87.8678 108.865 87.9266C108.079 88.0442 107.283 88.1422 106.478 88.2206C104.88 88.4009 103.274 88.499 101.666 88.5146C101.218 88.5146 100.782 88.5146 100.319 88.4852C99.8757 88.4727 99.433 88.4364 98.9933 88.3764C98.9933 88.3764 98.9786 88.394 98.9933 88.397C99.3709 88.4899 99.7551 88.5538 100.143 88.5881C100.549 88.6204 100.956 88.6439 101.362 88.6528C102.173 88.6704 102.986 88.6527 103.793 88.5998C105.399 88.5087 107.002 88.347 108.594 88.1236C109.041 88.0589 109.478 87.9913 109.931 87.9178L110.603 87.8031C110.852 87.7793 111.099 87.7341 111.34 87.6679Z" fill="#263238"/>
<path d="M135.933 82.661C135.249 83.0148 134.626 83.4753 134.088 84.0252C133.354 84.8337 132.42 87.3533 132.42 87.3533C132.42 87.3533 140.833 88.2088 140.809 87.5826C140.786 86.9564 135.933 82.661 135.933 82.661Z" fill="#263238"/>
<path d="M78.346 84.5544C78.346 84.5544 77.2027 77.322 76.7224 76.9957C76.2421 76.6693 69.5119 76.6311 69.061 76.9222C68.6102 77.2132 68.3892 80.3825 68.0061 80.4502C67.6231 80.5178 65.3276 80.7853 64.588 81.0587C63.8484 81.3322 63.816 83.7753 63.816 83.7753L78.346 84.5544Z" fill="white"/>
<path opacity="0.5" d="M78.346 84.5544C78.346 84.5544 77.2027 77.322 76.7224 76.9957C76.2421 76.6693 69.5119 76.6311 69.061 76.9222C68.6102 77.2132 68.3892 80.3825 68.0061 80.4502C67.6231 80.5178 65.3276 80.7853 64.588 81.0587C63.8484 81.3322 63.816 83.7753 63.816 83.7753L78.346 84.5544Z" fill="white"/>
<path d="M185.41 118.988L149.028 119.229C149.028 119.229 150.972 96.776 168.476 98.2842C185.979 99.7924 185.41 118.988 185.41 118.988Z" fill="white"/>
<path opacity="0.5" d="M185.41 118.988L149.028 119.229C149.028 119.229 150.972 96.776 168.476 98.2842C185.979 99.7924 185.41 118.988 185.41 118.988Z" fill="black"/>
<path d="M76.5132 118.964L40.2338 116.23C40.2338 116.23 44.0144 94.0094 61.3349 96.9465C78.6554 99.8835 76.5132 118.964 76.5132 118.964Z" fill="white"/>
<path opacity="0.5" d="M76.5132 118.964L40.2338 116.23C40.2338 116.23 44.0144 94.0094 61.3349 96.9465C78.6554 99.8835 76.5132 118.964 76.5132 118.964Z" fill="black"/>
<path opacity="0.6" d="M157.057 85.4482L157.829 85.8892C157.829 85.8892 152.953 86.339 151.877 86.2184C150.802 86.0979 131.716 74.2967 131.451 74.1821C131.186 74.0674 118.765 69.384 118.765 69.384C118.765 69.384 135.782 74.7907 136.881 75.1876C137.981 75.5845 157.057 85.4482 157.057 85.4482Z" fill="white"/>
<path d="M200.833 115.483C200.833 115.483 197.161 118.832 196.021 119.143C194.881 119.455 184.323 120.399 183.698 120.193C183.073 119.987 186.297 100.842 168.255 99.7689C150.212 98.6958 152.195 120.996 151.753 120.987C151.311 120.978 74.6656 120.399 74.3208 120.084C73.9761 119.77 76.6369 99.5484 59.116 99.3279C42.3407 99.1162 43.2954 117.629 42.6324 117.65C41.9694 117.671 29.1013 116.13 28.0199 115.836C26.9384 115.542 25.3679 112.423 25.2529 112.152C25.138 111.882 25.4798 111.167 25.4798 111.167C25.4798 111.167 23.8179 105.875 23.7325 103.77C23.647 101.665 27.6221 95.8175 27.6221 95.8175L30.4126 86.4477C30.4126 86.4477 29.1101 85.6716 28.9392 85.404C28.7683 85.1365 28.5827 84.1281 28.5827 84.1281L55.474 81.9231C55.7812 81.7082 56.1089 81.5241 56.4523 81.3733C56.7469 81.2969 58.4766 81.2469 58.4766 81.2469C58.4766 81.2469 61.2936 83.3754 62.4458 83.6518C63.5979 83.9282 139.967 87.6531 140.391 87.5179C140.815 87.3827 129.886 76.5958 128.769 75.5727C127.653 74.5496 118.138 71.93 118.023 71.6507C117.908 71.3714 117.881 69.1517 118.182 69.1841C118.483 69.2164 130.49 73.6176 131.866 74.382C133.242 75.1464 151.609 85.9626 152.151 86.1773C152.693 86.3919 157.779 85.9244 157.829 85.8833C157.879 85.8421 157.057 85.554 157.057 85.4481C157.057 85.3423 158.41 85.6539 158.702 85.6539C158.993 85.6539 180.914 88.9115 184.517 90.1904C188.121 91.4693 193.502 94.765 195.918 97.0817C198.334 99.3984 200.559 102.926 200.963 103.165C201.366 103.403 202.339 103.459 202.51 104.996C202.681 106.534 202.463 108.113 202.121 108.442C201.779 108.771 200.68 109.115 200.568 109.242C200.456 109.368 200.309 113.064 200.365 113.199C200.42 113.334 200.865 113.44 200.913 113.766C200.96 114.093 201.057 115.116 200.833 115.483Z" fill="white"/>
<path opacity="0.3" d="M154.641 107.016C154.22 107.821 153.857 108.655 153.554 109.512C140.294 109.098 80.1553 107.187 80.2731 106.604C80.391 106.022 144.054 106.854 154.641 107.016Z" fill="white"/>
<path d="M182.194 117.319C183.293 109.44 177.782 102.165 169.885 101.068C161.989 99.9724 154.697 105.471 153.598 113.35C152.5 121.228 158.011 128.504 165.907 129.6C173.804 130.696 181.096 125.197 182.194 117.319Z" fill="#263238"/>
<path d="M172.126 124.976C177.461 122.652 179.897 116.453 177.567 111.13C175.238 105.808 169.025 103.377 163.69 105.701C158.355 108.026 155.919 114.225 158.249 119.547C160.578 124.87 166.791 127.301 172.126 124.976Z" fill="#DBDBDB"/>
<path d="M174.777 122.198C178.573 118.411 178.573 112.272 174.777 108.485C170.982 104.699 164.829 104.699 161.034 108.485C157.239 112.272 157.239 118.411 161.034 122.198C164.829 125.984 170.982 125.984 174.777 122.198Z" fill="#A6A6A6"/>
<path d="M166.045 113.155L169.065 112.717C167.83 111.397 170.636 105.752 170.636 105.752L168.971 105.458C168.178 107.422 167.727 108.03 166.858 108.157C165.989 108.283 165.385 107.827 164.056 106.172L162.55 106.934C162.55 106.934 166.849 111.538 166.045 113.155Z" fill="#DBDBDB"/>
<path d="M169.345 112.864L170.697 115.595C171.581 114.016 177.82 114.933 177.82 114.933L177.59 113.258C175.474 113.114 174.755 112.872 174.366 112.082C173.977 111.291 174.225 110.579 175.391 108.812L174.213 107.616C174.213 107.616 171.137 113.128 169.345 112.864Z" fill="#DBDBDB"/>
<path d="M170.644 115.904L168.458 118.032C170.226 118.376 171.29 124.585 171.29 124.585L172.816 123.85C172.3 121.792 172.306 121.043 172.937 120.431C173.568 119.82 174.322 119.829 176.37 120.393L177.142 118.894C177.142 118.894 170.945 117.685 170.644 115.904Z" fill="#DBDBDB"/>
<path d="M168.146 118.076L165.444 116.659C165.665 118.453 160.072 121.363 160.072 121.363L161.25 122.583C163.048 121.46 163.77 121.234 164.548 121.64C165.326 122.045 165.55 122.771 165.647 124.888L167.315 125.156C167.315 125.156 166.543 118.914 168.146 118.076Z" fill="#DBDBDB"/>
<path d="M165.308 116.377L165.821 113.375C164.182 114.137 159.668 109.733 159.668 109.733L158.87 111.22C160.496 112.581 160.932 113.196 160.785 114.06C160.638 114.925 160.019 115.36 158.03 116.118L158.289 117.785C158.289 117.785 164.011 115.113 165.308 116.377Z" fill="#DBDBDB"/>
<path d="M165.105 115.68C165.185 116.231 165.427 116.745 165.801 117.159C166.174 117.572 166.662 117.865 167.203 118.002C167.744 118.139 168.313 118.112 168.838 117.926C169.364 117.74 169.823 117.402 170.156 116.956C170.489 116.51 170.683 115.975 170.711 115.42C170.74 114.864 170.603 114.312 170.318 113.834C170.032 113.356 169.611 112.973 169.107 112.734C168.604 112.495 168.04 112.41 167.489 112.49C167.122 112.544 166.77 112.668 166.452 112.857C166.134 113.047 165.856 113.296 165.634 113.593C165.413 113.889 165.252 114.226 165.161 114.584C165.071 114.942 165.051 115.315 165.105 115.68Z" fill="#DBDBDB"/>
<path d="M66.2641 127.578C73.0216 123.356 75.0699 114.469 70.8391 107.727C66.6084 100.984 57.7007 98.9408 50.9432 103.162C44.1857 107.383 42.1374 116.271 46.3681 123.013C50.5989 129.755 59.5066 131.799 66.2641 127.578Z" fill="#263238"/>
<path d="M66.6013 122.225C70.3911 117.816 69.8814 111.177 65.4629 107.396C61.0443 103.615 54.3901 104.123 50.6003 108.532C46.8105 112.94 47.3201 119.579 51.7387 123.361C56.1572 127.142 62.8114 126.633 66.6013 122.225Z" fill="#DBDBDB"/>
<path d="M67.9277 118.102C69.4368 112.963 66.4847 107.577 61.3341 106.071C56.1834 104.565 50.7847 107.511 49.2756 112.65C47.7665 117.789 50.7186 123.175 55.8692 124.681C61.0199 126.186 66.4186 123.241 67.9277 118.102Z" fill="#A6A6A6"/>
<path d="M56.741 113.19L59.7614 112.752C58.5267 111.429 61.3319 105.787 61.3319 105.787L59.6641 105.493C58.8715 107.457 58.4206 108.066 57.5514 108.192C56.6821 108.318 56.078 107.863 54.752 106.208L53.2433 106.969C53.2433 106.969 57.5455 111.573 56.741 113.19Z" fill="#DBDBDB"/>
<path d="M60.0413 112.896L61.3909 115.624C62.2749 114.046 68.5159 114.963 68.5159 114.963L68.2861 113.29C66.1704 113.146 65.4514 112.905 65.0624 112.114C64.6734 111.323 64.918 110.612 66.0878 108.842L64.9092 107.648C64.9092 107.648 61.8299 113.161 60.0413 112.896Z" fill="#DBDBDB"/>
<path d="M61.3378 115.939L59.1544 118.065C60.9224 118.411 61.9861 124.621 61.9861 124.621L63.5095 123.886C62.9939 121.828 63.0027 121.078 63.6303 120.464C64.258 119.849 65.0182 119.876 67.0632 120.428L67.8352 118.926C67.8352 118.926 61.6413 117.721 61.3378 115.939Z" fill="#DBDBDB"/>
<path d="M58.842 118.112L56.1399 116.694C56.358 118.488 50.7652 121.398 50.7652 121.398L51.9439 122.619C53.7413 121.496 54.4633 121.269 55.2412 121.675C56.0191 122.081 56.2431 122.807 56.3373 124.909L58.0052 125.179C58.0052 125.179 57.2361 118.947 58.842 118.112Z" fill="#DBDBDB"/>
<path d="M55.9867 116.424L56.5023 113.422C54.8611 114.184 50.3497 109.78 50.3497 109.78L49.5482 111.267C51.1748 112.628 51.6109 113.243 51.4665 114.107C51.3221 114.972 50.6974 115.407 48.7114 116.151L48.9707 117.818C48.9707 117.818 54.7049 115.148 55.9867 116.424Z" fill="#DBDBDB"/>
<path d="M55.7981 115.715C55.8784 116.266 56.1206 116.78 56.4939 117.194C56.8672 117.607 57.3549 117.901 57.8955 118.037C58.436 118.174 59.005 118.148 59.5306 117.962C60.0562 117.776 60.5148 117.439 60.8484 116.993C61.182 116.547 61.3756 116.013 61.4048 115.457C61.4339 114.902 61.2974 114.35 61.0123 113.872C60.7272 113.394 60.3065 113.011 59.8032 112.771C59.3 112.531 58.7368 112.446 58.1849 112.526C57.445 112.634 56.7783 113.031 56.3309 113.628C55.8835 114.226 55.6919 114.977 55.7981 115.715Z" fill="#DBDBDB"/>
<path d="M30.2947 86.8682C29.2751 87.1622 27.295 89.914 27.1977 90.4521C27.1005 90.9901 26.965 94.5298 27.3804 94.9944C27.7959 95.4589 29.2221 96.5526 30.2947 96.4408C31.3673 96.3291 38.1476 93.1245 38.5454 92.6188C38.9432 92.1132 38.9166 89.4818 38.2507 88.7292C37.5847 87.9766 31.5942 86.5066 30.2947 86.8682Z" fill="white"/>
<path d="M38.5542 92.6335C38.1476 93.1274 31.3673 96.3291 30.3035 96.4408C29.4873 96.5261 28.4619 95.9057 27.8401 95.403C28.6917 95.7852 29.4549 95.8969 30.0207 95.7558C30.5864 95.6147 37.0927 92.8423 37.6319 92.1808C38.1711 91.5193 37.8853 89.3554 37.7468 88.9791C37.6083 88.6028 32.1982 86.9211 32.1982 86.9211C34.6381 87.1416 37.7969 88.2235 38.2566 88.7322C38.9225 89.4936 38.9608 92.1367 38.5542 92.6335Z" fill="#EBEBEB"/>
<path d="M182.119 93.983C182.85 95.6794 189.518 99.472 192.096 100.292C193.72 100.81 199.436 102.018 199.813 101.762C200.191 101.506 197.981 97.2611 196.681 96.1145C195.382 94.9679 188.537 91.5075 186.344 91.287C184.152 91.0665 181.379 92.269 182.119 93.983Z" fill="white"/>
<path d="M199.816 101.768C199.436 102.021 193.723 100.81 192.096 100.298C189.518 99.4749 182.849 95.6852 182.116 93.9859C181.382 92.2866 184.152 91.0812 186.344 91.2988C186.515 91.3157 186.684 91.3442 186.851 91.384C184.715 91.8309 184.066 93.3509 185.169 94.4357C186.271 95.5206 189.913 98.2107 191.43 98.884C192.904 99.5337 198.44 101.251 198.985 100.942C199.096 100.845 199.184 100.724 199.242 100.589C199.3 100.453 199.327 100.307 199.321 100.16C199.728 101.004 199.958 101.674 199.816 101.768Z" fill="#EBEBEB"/>
<g opacity="0.1">
<path opacity="0.1" d="M183.577 117.624C183.613 119.152 183.557 120.146 183.698 120.193C184.323 120.399 194.878 119.461 196.021 119.143C197.164 118.826 200.833 115.48 200.833 115.48C200.833 115.48 200.851 115.451 200.857 115.433C197.016 116.718 193.014 117.457 188.967 117.629C188.23 117.656 186.365 117.653 183.577 117.624Z" fill="black"/>
<path opacity="0.1" d="M74.1588 115.28C74.3798 117.997 74.2 119.984 74.3061 120.084C74.6479 120.408 151.288 120.966 151.736 120.987C151.856 120.987 151.8 119.388 152.004 117.062C128.595 116.574 98.3745 115.874 74.1588 115.28Z" fill="black"/>
<path opacity="0.1" d="M25.2529 112.161C25.3678 112.431 26.9355 115.56 28.0198 115.845C29.1042 116.13 41.9487 117.673 42.6117 117.653C42.7856 117.653 42.8504 116.374 43.151 114.498C38.8996 114.379 34.6594 114.002 30.4538 113.369C28.666 112.976 26.9749 112.23 25.4798 111.176C25.4798 111.176 25.138 111.893 25.2529 112.161Z" fill="black"/>
</g>
<g opacity="0.2">
<path opacity="0.2" d="M145.778 116.93C145.778 112.452 145.928 105.94 146.013 101.395C146.046 100.101 146.078 98.8075 146.096 97.5139C146.123 97.2918 146.103 97.0663 146.037 96.8524C145.017 94.9444 141.549 89.4495 140.391 87.5179C142.197 90.2051 143.983 92.9099 145.671 95.6764C145.895 96.1057 146.261 96.5408 146.358 97.0141C146.323 103.659 146.063 110.294 145.769 116.93H145.778Z" fill="black"/>
<path opacity="0.2" d="M90.8693 85.2012L89.9352 88.9232C89.6082 90.4638 89.0512 92.0161 89.0129 93.589C89.1779 99.0633 89.3371 106.319 89.396 111.817L89.4137 115.654L89.2516 111.832C89.066 106.725 88.8774 99.6631 88.786 94.568C88.786 94.0036 88.7183 93.1862 88.8597 92.6335C89.4078 90.1228 90.1356 87.6708 90.8693 85.2188V85.2012Z" fill="black"/>
<path opacity="0.2" d="M46.4513 105.361C43.8258 104.02 41.2357 102.612 38.6986 101.107C38.2523 100.813 37.8597 100.445 37.5376 100.019C37.0838 99.4955 36.63 98.9692 36.1969 98.4283C35.3129 97.3522 34.4642 96.2674 33.6362 95.1561L35.0093 96.7143C36.0466 97.8697 37.4256 99.5866 38.5306 100.663C41.1502 102.256 43.8346 103.738 46.4513 105.367V105.361Z" fill="black"/>
<path opacity="0.2" d="M181.904 92.904C174.958 92.022 167.91 91.0782 161 89.9228C157.994 88.7939 155.089 87.4679 152.16 86.1861C153.539 86.7153 159.821 89.2584 161.074 89.6759C167.63 90.7137 175.38 91.7897 181.912 92.9099L181.904 92.904Z" fill="black"/>
<path opacity="0.2" d="M101.955 94.2182C101.769 94.8562 101.522 95.647 100.867 95.9499C99.9869 96.0474 99.0997 96.07 98.2153 96.0175C97.3344 96.0012 96.4563 95.9127 95.5899 95.7529C95.4866 95.7304 95.3873 95.6928 95.2952 95.6412C94.8414 95.2266 94.6705 94.6298 94.4849 94.0712C94.7353 94.5622 94.977 95.1384 95.4013 95.4883C95.5714 95.5434 95.7475 95.5779 95.9258 95.5912C97.4551 95.7176 99.0198 95.7647 100.555 95.7735C100.729 95.7938 100.903 95.7452 101.041 95.6382C101.452 95.24 101.767 94.7547 101.964 94.2182H101.955Z" fill="black"/>
<path opacity="0.2" d="M102.008 93.2186C101.857 92.6953 101.681 92.0426 101.242 91.7221C101.063 91.672 100.879 91.6395 100.694 91.6251C99.5179 91.5211 98.3368 91.4926 97.1575 91.5398C96.359 91.5398 95.637 91.6898 95.0772 92.2925C94.7881 92.5533 94.5433 92.8591 94.3523 93.198C94.4996 92.8261 94.7155 92.485 94.9888 92.1925C95.2549 91.8806 95.5857 91.6298 95.9582 91.4575C96.3482 91.3425 96.7511 91.2763 97.1575 91.2605C98.3487 91.184 99.5446 91.2313 100.726 91.4017C100.934 91.4318 101.137 91.485 101.333 91.5604C101.828 91.9661 101.922 92.6335 102.008 93.2186Z" fill="black"/>
<path opacity="0.2" d="M101.766 93.1569C102.983 93.4215 102.906 94.1329 101.689 94.2799C100.166 94.4299 98.6338 94.4093 97.1074 94.4152C96.1645 94.3476 95.1213 94.5328 94.2167 94.1212C93.76 93.8977 93.6274 93.3921 94.1548 93.1392C95.1184 92.7658 96.1939 92.9628 97.1928 92.9217C98.7203 92.9244 100.247 93.0039 101.766 93.1598V93.1569ZM101.766 93.1569C99.506 92.9099 97.184 93.0422 94.921 93.201C94.5467 93.2333 93.6598 93.495 94.3523 93.8654C94.8473 94.1182 95.4131 94.0683 95.97 94.1124C97.8617 94.18 99.8006 94.3387 101.684 94.2388C102.889 94.13 102.974 93.4332 101.766 93.1569Z" fill="black"/>
</g>
<path d="M200.571 109.242C200.571 109.242 193.699 109.85 193.614 109.83C193.528 109.809 193.319 108.865 192.744 108.839C192.17 108.812 190.175 110.512 189.857 112.146C189.538 113.781 189.913 115.007 190.953 114.883C191.993 114.76 193.413 112.661 193.413 112.661C193.413 112.661 198.688 112.367 198.815 112.464C199.026 112.654 199.252 112.828 199.489 112.984C199.776 113.084 200.072 113.156 200.373 113.199L200.571 109.242Z" fill="#263238"/>
<path d="M135.311 90.5785C134.845 89.8817 135.95 84.6985 136.46 84.3545C136.97 84.0105 142.84 84.8014 142.648 88.1236C142.457 91.4458 136.036 91.6692 135.311 90.5785Z" fill="white"/>
<path opacity="0.1" d="M135.311 90.5785C134.845 89.8817 135.95 84.6985 136.46 84.3545C136.97 84.0105 142.84 84.8014 142.648 88.1236C142.457 91.4458 136.036 91.6692 135.311 90.5785Z" fill="black"/>
<g opacity="0.4">
<path opacity="0.4" d="M76.4395 107.772C74.9043 102.865 71.2416 98.637 66.4709 96.6495C60.9165 94.424 54.1568 94.4828 49.0237 97.7579C45.8607 99.8257 43.3961 102.797 41.9517 106.284C42.5742 104.493 43.4773 102.812 44.6273 101.304C49.616 94.6004 58.4118 93.0716 65.9965 95.9087C71.1532 97.8255 75.1312 102.503 76.4248 107.777L76.4395 107.772Z" fill="white"/>
<path opacity="0.4" d="M185.611 108.095C184.075 103.185 180.413 98.9574 175.642 96.97C170.088 94.7444 163.328 94.8062 158.195 98.0813C155.031 100.148 152.566 103.12 151.123 106.607C151.75 104.813 152.659 103.129 153.816 101.618C158.805 94.9179 167.601 93.3862 175.185 96.2232C180.342 98.1401 184.32 102.821 185.614 108.095H185.611Z" fill="white"/>
<path opacity="0.4" d="M135.111 94.08C112.038 93.198 88.733 91.9191 65.7048 90.258C88.7772 91.14 112.082 92.4218 135.111 94.08Z" fill="white"/>
</g>
</svg>
