<svg width="304" height="203" viewBox="0 0 304 203" fill="none" xmlns="http://www.w3.org/2000/svg">
<path d="M84.5485 53.3688C81.014 53.3688 21.5597 53.7748 17.8265 53.6408C17.7636 53.6405 17.7026 53.6196 17.6527 53.5812C17.6028 53.5428 17.5668 53.4891 17.5502 53.4284C17.5337 53.3676 17.5375 53.303 17.561 53.2446C17.5846 53.1862 17.6266 53.1371 17.6806 53.1049C20.0356 51.9396 22.7068 52.1711 25.155 51.3469C26.5939 50.8597 27.4775 49.9178 28.4787 48.8337C29.3057 47.8875 30.3751 47.1855 31.5714 46.8037C32.6651 46.4722 33.8263 46.433 34.9397 46.69C36.1557 46.9783 37.1934 47.6685 38.3445 48.107C41.2021 49.1869 43.9746 48.1598 46.0134 46.0445C47.6956 44.2987 49.3493 42.6503 51.6354 41.7125C53.5526 40.9248 55.6887 40.7624 57.5938 41.6313C59.7745 42.6179 61.2702 44.6113 63.3171 45.805C65.7491 47.23 68.6513 46.893 71.3305 47.3193C74.0098 47.7457 76.0729 50.0111 78.4239 51.3144C79.1895 51.8138 80.0766 52.0945 80.9896 52.1264C81.5132 52.0798 82.034 52.0066 82.5502 51.9072C83.3608 51.8057 84.131 51.83 84.6741 52.504C84.8079 52.6704 84.7795 53.3688 84.5485 53.3688Z" fill="#EBEBEB"/>
<path d="M286.311 57.5302C283.733 57.5302 240.326 57.8144 237.598 57.7291C237.404 57.7291 237.298 57.4327 237.493 57.3231C239.211 56.4705 241.161 56.641 242.949 56.0402C244.003 55.6829 244.647 54.9967 245.381 54.205C245.985 53.5165 246.766 53.0068 247.638 52.7313C248.437 52.4889 249.286 52.4623 250.099 52.6541C250.978 52.8612 251.744 53.3687 252.583 53.6854C254.667 54.473 256.694 53.726 258.185 52.1791C259.401 50.9043 260.617 49.7025 262.287 49.0164C262.969 48.7085 263.707 48.5442 264.455 48.5337C265.204 48.5233 265.946 48.6668 266.636 48.9555C268.229 49.6781 269.32 51.1316 270.815 52.0086C272.591 53.0439 274.711 52.8206 276.668 53.1129C278.626 53.4052 280.13 55.0779 281.844 56.028C282.405 56.3873 283.052 56.588 283.717 56.6086C284.101 56.5746 284.482 56.5204 284.86 56.4462C285.448 56.3731 286.011 56.3934 286.409 56.8846C286.502 57.0186 286.481 57.5302 286.311 57.5302Z" fill="#EBEBEB"/>
<path d="M145.134 67.197C142.556 67.197 99.1486 67.4812 96.4207 67.3959C96.2261 67.3959 96.1207 67.0996 96.3153 66.9899C98.0339 66.1373 99.9633 66.3119 101.771 65.707C102.825 65.3538 103.469 64.6636 104.203 63.8719C104.808 63.1841 105.588 62.6745 106.461 62.3981C107.26 62.1557 108.109 62.1291 108.921 62.3209C109.801 62.528 110.567 63.0355 111.406 63.3522C113.493 64.1398 115.52 63.3928 117.008 61.8459C118.224 60.5751 119.44 59.3693 121.114 58.6832C121.795 58.3751 122.533 58.211 123.28 58.2013C124.028 58.1915 124.769 58.3362 125.459 58.6263C127.052 59.349 128.146 60.7984 129.642 61.6754C131.413 62.7107 133.533 62.4671 135.491 62.7797C137.449 63.0923 138.952 64.7448 140.671 65.6948C141.231 66.0547 141.878 66.2554 142.544 66.2754C142.925 66.2754 143.302 66.1617 143.683 66.117C144.274 66.044 144.834 66.0602 145.231 66.5515C145.324 66.6854 145.304 67.197 145.134 67.197Z" fill="#EBEBEB"/>
<path d="M194.459 84.919C191.881 84.919 148.474 85.2032 145.746 85.1179C145.551 85.1179 145.446 84.8216 145.64 84.7119C147.359 83.8593 149.309 84.0299 151.096 83.4249C152.146 83.0717 152.794 82.3815 153.528 81.5939C154.131 80.9027 154.912 80.3913 155.786 80.116C156.585 79.8736 157.434 79.847 158.246 80.0389C159.126 80.25 159.892 80.7534 160.731 81.0701C162.814 81.8618 164.841 81.1107 166.333 79.5638C167.549 78.2931 168.765 77.0913 170.435 76.4052C171.116 76.0963 171.855 75.9315 172.603 75.9211C173.351 75.9106 174.094 76.0546 174.784 76.3443C176.377 77.0669 177.467 78.5204 178.963 79.3933C180.738 80.4286 182.858 80.185 184.816 80.4977C186.774 80.8103 188.277 82.4627 189.992 83.4127C190.551 83.7757 191.199 83.9766 191.865 83.9933C192.27 83.9933 192.627 83.8796 193.008 83.835C193.595 83.7619 194.159 83.7781 194.556 84.2694C194.649 84.4074 194.629 84.919 194.459 84.919Z" fill="#EBEBEB"/>
<path d="M232.041 38.3386C231.992 38.4847 163.629 38.3386 164.492 38.3386C164.898 38.3386 163.892 37.7499 164.278 37.5631C166.503 36.4547 168.939 36.4222 171.363 36.1989C172.777 36.0731 174.228 35.866 175.501 35.1961C176.774 34.5262 177.593 33.3448 178.509 32.2607C179.919 30.5898 181.73 29.3062 183.773 28.5312C185.815 27.7562 188.021 27.5153 190.182 27.8313C195.046 28.5946 198.873 32.2973 203.745 32.9875C206.667 33.3935 209.419 32.2607 212.293 31.8629C214.648 31.534 216.606 31.9928 218.714 33.0403C220.254 33.8035 221.681 34.4491 223.424 34.5709C224.761 34.6643 226.107 34.51 227.449 34.4978C229.645 34.5382 231.751 35.3815 233.371 36.8688C233.585 37.0597 234.283 38.3386 232.041 38.3386Z" fill="#EBEBEB"/>
<path d="M234.955 43.5312H212.285V162.558H234.955V43.5312Z" fill="#DBDBDB"/>
<path d="M220.209 47.3965H215.803V51.9396H220.209V47.3965Z" fill="#EBEBEB"/>
<path d="M225.848 47.3965H221.442V51.9396H225.848V47.3965Z" fill="#EBEBEB"/>
<path d="M220.209 55.1145H215.803V59.6576H220.209V55.1145Z" fill="#EBEBEB"/>
<path d="M225.848 55.1145H221.442V59.6576H225.848V55.1145Z" fill="#EBEBEB"/>
<path d="M220.209 62.8285H215.803V67.3716H220.209V62.8285Z" fill="#EBEBEB"/>
<path d="M225.848 62.8285H221.442V67.3716H225.848V62.8285Z" fill="#EBEBEB"/>
<path d="M220.209 70.5465H215.803V75.0896H220.209V70.5465Z" fill="#EBEBEB"/>
<path d="M225.848 70.5465H221.442V75.0896H225.848V70.5465Z" fill="#EBEBEB"/>
<path d="M220.209 78.2605H215.803V82.8036H220.209V78.2605Z" fill="#EBEBEB"/>
<path d="M225.848 78.2605H221.442V82.8036H225.848V78.2605Z" fill="#EBEBEB"/>
<path d="M220.209 85.9786H215.803V90.5218H220.209V85.9786Z" fill="#EBEBEB"/>
<path d="M225.848 85.9786H221.442V90.5218H225.848V85.9786Z" fill="#EBEBEB"/>
<path d="M220.209 93.6926H215.803V98.2358H220.209V93.6926Z" fill="#EBEBEB"/>
<path d="M225.848 93.6926H221.442V98.2358H225.848V93.6926Z" fill="#EBEBEB"/>
<path d="M220.209 101.411H215.803V105.954H220.209V101.411Z" fill="#EBEBEB"/>
<path d="M225.848 101.411H221.442V105.954H225.848V101.411Z" fill="#EBEBEB"/>
<path d="M220.209 109.125H215.803V113.668H220.209V109.125Z" fill="#EBEBEB"/>
<path d="M225.848 109.125H221.442V113.668H225.848V109.125Z" fill="#EBEBEB"/>
<path d="M220.209 116.843H215.803V121.386H220.209V116.843Z" fill="#EBEBEB"/>
<path d="M225.848 116.843H221.442V121.386H225.848V116.843Z" fill="#EBEBEB"/>
<path d="M220.209 124.557H215.803V129.1H220.209V124.557Z" fill="#EBEBEB"/>
<path d="M225.848 124.557H221.442V129.1H225.848V124.557Z" fill="#EBEBEB"/>
<path d="M220.209 132.275H215.803V136.818H220.209V132.275Z" fill="#EBEBEB"/>
<path d="M225.848 132.275H221.442V136.818H225.848V132.275Z" fill="#EBEBEB"/>
<path d="M220.209 139.989H215.803V144.532H220.209V139.989Z" fill="#EBEBEB"/>
<path d="M225.848 139.989H221.442V144.532H225.848V139.989Z" fill="#EBEBEB"/>
<path d="M220.209 147.707H215.803V152.25H220.209V147.707Z" fill="#EBEBEB"/>
<path d="M227.031 152.25H231.437V147.707H227.031V152.25Z" fill="#EBEBEB"/>
<path d="M227.031 144.536H231.437V139.993H227.031V144.536Z" fill="#EBEBEB"/>
<path d="M227.031 136.818H231.437V132.275H227.031V136.818Z" fill="#EBEBEB"/>
<path d="M227.031 129.104H231.437V124.561H227.031V129.104Z" fill="#EBEBEB"/>
<path d="M227.031 121.386H231.437V116.843H227.031V121.386Z" fill="#EBEBEB"/>
<path d="M227.031 113.672H231.437V109.129H227.031V113.672Z" fill="#EBEBEB"/>
<path d="M227.031 105.954H231.437V101.411H227.031V105.954Z" fill="#EBEBEB"/>
<path d="M227.031 98.2397H231.437V93.6966H227.031V98.2397Z" fill="#EBEBEB"/>
<path d="M227.031 90.5217H231.437V85.9786H227.031V90.5217Z" fill="#EBEBEB"/>
<path d="M227.031 82.8077H231.437V78.2646H227.031V82.8077Z" fill="#EBEBEB"/>
<path d="M227.031 75.0897H231.437V70.5466H227.031V75.0897Z" fill="#EBEBEB"/>
<path d="M227.031 67.3757H231.437V62.8326H227.031V67.3757Z" fill="#EBEBEB"/>
<path d="M227.031 59.6576H231.437V55.1144H227.031V59.6576Z" fill="#EBEBEB"/>
<path d="M227.031 51.9436H231.437V47.4005H227.031V51.9436Z" fill="#EBEBEB"/>
<path d="M225.848 147.707H221.442V152.25H225.848V147.707Z" fill="#EBEBEB"/>
<path d="M252.831 43.5312H234.955V162.558H252.831V43.5312Z" fill="#A6A6A6"/>
<path d="M247.351 152.25H250.99V147.707H247.351V152.25Z" fill="#C7C7C7"/>
<path d="M242.693 152.25H246.333V147.707H242.693V152.25Z" fill="#C7C7C7"/>
<path d="M247.351 144.536H250.99V139.993H247.351V144.536Z" fill="#C7C7C7"/>
<path d="M242.693 144.536H246.333V139.993H242.693V144.536Z" fill="#C7C7C7"/>
<path d="M247.351 136.818H250.99V132.275H247.351V136.818Z" fill="#C7C7C7"/>
<path d="M242.693 136.818H246.333V132.275H242.693V136.818Z" fill="#C7C7C7"/>
<path d="M247.351 129.104H250.99V124.561H247.351V129.104Z" fill="#C7C7C7"/>
<path d="M242.693 129.104H246.333V124.561H242.693V129.104Z" fill="#C7C7C7"/>
<path d="M247.351 121.386H250.99V116.843H247.351V121.386Z" fill="#C7C7C7"/>
<path d="M242.693 121.386H246.333V116.843H242.693V121.386Z" fill="#C7C7C7"/>
<path d="M247.351 113.672H250.99V109.129H247.351V113.672Z" fill="#C7C7C7"/>
<path d="M242.693 113.672H246.333V109.129H242.693V113.672Z" fill="#C7C7C7"/>
<path d="M247.351 105.954H250.99V101.411H247.351V105.954Z" fill="#C7C7C7"/>
<path d="M242.693 105.954H246.333V101.411H242.693V105.954Z" fill="#C7C7C7"/>
<path d="M247.351 98.2397H250.99V93.6966H247.351V98.2397Z" fill="#C7C7C7"/>
<path d="M242.693 98.2397H246.333V93.6966H242.693V98.2397Z" fill="#C7C7C7"/>
<path d="M247.351 90.5217H250.99V85.9786H247.351V90.5217Z" fill="#C7C7C7"/>
<path d="M242.693 90.5217H246.333V85.9786H242.693V90.5217Z" fill="#C7C7C7"/>
<path d="M247.351 82.8077H250.99V78.2646H247.351V82.8077Z" fill="#C7C7C7"/>
<path d="M242.693 82.8077H246.333V78.2646H242.693V82.8077Z" fill="#C7C7C7"/>
<path d="M247.351 75.0897H250.99V70.5466H247.351V75.0897Z" fill="#C7C7C7"/>
<path d="M242.693 75.0897H246.333V70.5466H242.693V75.0897Z" fill="#C7C7C7"/>
<path d="M247.351 67.3757H250.99V62.8326H247.351V67.3757Z" fill="#C7C7C7"/>
<path d="M242.693 67.3757H246.333V62.8326H242.693V67.3757Z" fill="#C7C7C7"/>
<path d="M247.351 59.6576H250.99V55.1144H247.351V59.6576Z" fill="#C7C7C7"/>
<path d="M242.693 59.6576H246.333V55.1144H242.693V59.6576Z" fill="#C7C7C7"/>
<path d="M247.351 51.9436H250.99V47.4005H247.351V51.9436Z" fill="#C7C7C7"/>
<path d="M241.716 47.3965H238.077V51.9396H241.716V47.3965Z" fill="#C7C7C7"/>
<path d="M241.716 55.1145H238.077V59.6576H241.716V55.1145Z" fill="#C7C7C7"/>
<path d="M241.716 62.8285H238.077V67.3716H241.716V62.8285Z" fill="#C7C7C7"/>
<path d="M241.716 70.5465H238.077V75.0896H241.716V70.5465Z" fill="#C7C7C7"/>
<path d="M241.716 78.2605H238.077V82.8036H241.716V78.2605Z" fill="#C7C7C7"/>
<path d="M241.716 85.9786H238.077V90.5218H241.716V85.9786Z" fill="#C7C7C7"/>
<path d="M241.716 93.6926H238.077V98.2358H241.716V93.6926Z" fill="#C7C7C7"/>
<path d="M241.716 101.411H238.077V105.954H241.716V101.411Z" fill="#C7C7C7"/>
<path d="M241.716 109.125H238.077V113.668H241.716V109.125Z" fill="#C7C7C7"/>
<path d="M241.716 116.843H238.077V121.386H241.716V116.843Z" fill="#C7C7C7"/>
<path d="M241.716 124.557H238.077V129.1H241.716V124.557Z" fill="#C7C7C7"/>
<path d="M241.716 132.275H238.077V136.818H241.716V132.275Z" fill="#C7C7C7"/>
<path d="M241.716 139.989H238.077V144.532H241.716V139.989Z" fill="#C7C7C7"/>
<path d="M241.716 147.707H238.077V152.25H241.716V147.707Z" fill="#C7C7C7"/>
<path d="M242.693 51.9436H246.333V47.4005H242.693V51.9436Z" fill="#C7C7C7"/>
<path d="M74.6664 34.2988H47.3753V162.558H74.6664V34.2988Z" fill="#EBEBEB"/>
<path d="M74.6665 31.7451H46.7187V34.2989H74.6665V31.7451Z" fill="#C7C7C7"/>
<path d="M52.6082 38.0625H49.8438V162.558H52.6082V38.0625Z" fill="white"/>
<path d="M57.5046 38.0625H54.7403V162.558H57.5046V38.0625Z" fill="white"/>
<path d="M62.4011 38.0625H59.6367V162.558H62.4011V38.0625Z" fill="white"/>
<path d="M67.3015 38.0625H64.5372V162.558H67.3015V38.0625Z" fill="white"/>
<path d="M72.198 38.0625H69.4336V162.558H72.198V38.0625Z" fill="white"/>
<path d="M52.6082 41.2902H49.8438V46.3327H52.6082V41.2902Z" fill="#EBEBEB"/>
<path d="M57.5046 41.2902H54.7403V46.3327H57.5046V41.2902Z" fill="#EBEBEB"/>
<path d="M62.4011 41.2902H59.6367V46.3327H62.4011V41.2902Z" fill="#EBEBEB"/>
<path d="M67.3015 41.2902H64.5372V46.3327H67.3015V41.2902Z" fill="#EBEBEB"/>
<path d="M72.198 41.2902H69.4336V46.3327H72.198V41.2902Z" fill="#EBEBEB"/>
<path d="M52.6082 49.4833H49.8438V54.5258H52.6082V49.4833Z" fill="#EBEBEB"/>
<path d="M57.5046 49.4833H54.7403V54.5258H57.5046V49.4833Z" fill="#EBEBEB"/>
<path d="M62.4011 49.4833H59.6367V54.5258H62.4011V49.4833Z" fill="#EBEBEB"/>
<path d="M67.3015 49.4833H64.5372V54.5258H67.3015V49.4833Z" fill="#EBEBEB"/>
<path d="M72.198 49.4833H69.4336V54.5258H72.198V49.4833Z" fill="#EBEBEB"/>
<path d="M52.6082 57.6764H49.8438V62.7189H52.6082V57.6764Z" fill="#EBEBEB"/>
<path d="M57.5046 57.6764H54.7403V62.7189H57.5046V57.6764Z" fill="#EBEBEB"/>
<path d="M62.4011 57.6764H59.6367V62.7189H62.4011V57.6764Z" fill="#EBEBEB"/>
<path d="M67.3015 57.6764H64.5372V62.7189H67.3015V57.6764Z" fill="#EBEBEB"/>
<path d="M72.198 57.6764H69.4336V62.7189H72.198V57.6764Z" fill="#EBEBEB"/>
<path d="M52.6082 65.8735H49.8438V70.9161H52.6082V65.8735Z" fill="#EBEBEB"/>
<path d="M57.5046 65.8735H54.7403V70.9161H57.5046V65.8735Z" fill="#EBEBEB"/>
<path d="M62.4011 65.8735H59.6367V70.9161H62.4011V65.8735Z" fill="#EBEBEB"/>
<path d="M67.3015 65.8735H64.5372V70.9161H67.3015V65.8735Z" fill="#EBEBEB"/>
<path d="M72.198 65.8735H69.4336V70.9161H72.198V65.8735Z" fill="#EBEBEB"/>
<path d="M52.6082 74.0665H49.8438V79.109H52.6082V74.0665Z" fill="#EBEBEB"/>
<path d="M57.5046 74.0665H54.7403V79.109H57.5046V74.0665Z" fill="#EBEBEB"/>
<path d="M62.4011 74.0665H59.6367V79.109H62.4011V74.0665Z" fill="#EBEBEB"/>
<path d="M67.3015 74.0665H64.5372V79.109H67.3015V74.0665Z" fill="#EBEBEB"/>
<path d="M72.198 74.0665H69.4336V79.109H72.198V74.0665Z" fill="#EBEBEB"/>
<path d="M52.6082 82.2596H49.8438V87.3022H52.6082V82.2596Z" fill="#EBEBEB"/>
<path d="M57.5046 82.2596H54.7403V87.3022H57.5046V82.2596Z" fill="#EBEBEB"/>
<path d="M62.4011 82.2596H59.6367V87.3022H62.4011V82.2596Z" fill="#EBEBEB"/>
<path d="M67.3015 82.2596H64.5372V87.3022H67.3015V82.2596Z" fill="#EBEBEB"/>
<path d="M72.198 82.2596H69.4336V87.3022H72.198V82.2596Z" fill="#EBEBEB"/>
<path d="M52.6082 90.4528H49.8438V95.4953H52.6082V90.4528Z" fill="#EBEBEB"/>
<path d="M57.5046 90.4528H54.7403V95.4953H57.5046V90.4528Z" fill="#EBEBEB"/>
<path d="M62.4011 90.4528H59.6367V95.4953H62.4011V90.4528Z" fill="#EBEBEB"/>
<path d="M67.3015 90.4528H64.5372V95.4953H67.3015V90.4528Z" fill="#EBEBEB"/>
<path d="M72.198 90.4528H69.4336V95.4953H72.198V90.4528Z" fill="#EBEBEB"/>
<path d="M52.6082 98.6499H49.8438V103.692H52.6082V98.6499Z" fill="#EBEBEB"/>
<path d="M57.5046 98.6499H54.7403V103.692H57.5046V98.6499Z" fill="#EBEBEB"/>
<path d="M62.4011 98.6499H59.6367V103.692H62.4011V98.6499Z" fill="#EBEBEB"/>
<path d="M67.3015 98.6499H64.5372V103.692H67.3015V98.6499Z" fill="#EBEBEB"/>
<path d="M72.198 98.6499H69.4336V103.692H72.198V98.6499Z" fill="#EBEBEB"/>
<path d="M52.6082 106.843H49.8438V111.885H52.6082V106.843Z" fill="#EBEBEB"/>
<path d="M57.5046 106.843H54.7403V111.885H57.5046V106.843Z" fill="#EBEBEB"/>
<path d="M62.4011 106.843H59.6367V111.885H62.4011V106.843Z" fill="#EBEBEB"/>
<path d="M67.3015 106.843H64.5372V111.885H67.3015V106.843Z" fill="#EBEBEB"/>
<path d="M72.198 106.843H69.4336V111.885H72.198V106.843Z" fill="#EBEBEB"/>
<path d="M52.6082 115.036H49.8438V120.079H52.6082V115.036Z" fill="#EBEBEB"/>
<path d="M57.5046 115.036H54.7403V120.079H57.5046V115.036Z" fill="#EBEBEB"/>
<path d="M62.4011 115.036H59.6367V120.079H62.4011V115.036Z" fill="#EBEBEB"/>
<path d="M67.3015 115.036H64.5372V120.079H67.3015V115.036Z" fill="#EBEBEB"/>
<path d="M72.198 115.036H69.4336V120.079H72.198V115.036Z" fill="#EBEBEB"/>
<path d="M52.6082 123.229H49.8438V128.272H52.6082V123.229Z" fill="#EBEBEB"/>
<path d="M57.5046 123.229H54.7403V128.272H57.5046V123.229Z" fill="#EBEBEB"/>
<path d="M62.4011 123.229H59.6367V128.272H62.4011V123.229Z" fill="#EBEBEB"/>
<path d="M67.3015 123.229H64.5372V128.272H67.3015V123.229Z" fill="#EBEBEB"/>
<path d="M72.198 123.229H69.4336V128.272H72.198V123.229Z" fill="#EBEBEB"/>
<path d="M52.6082 131.422H49.8438V136.465H52.6082V131.422Z" fill="#EBEBEB"/>
<path d="M57.5046 131.422H54.7403V136.465H57.5046V131.422Z" fill="#EBEBEB"/>
<path d="M62.4011 131.422H59.6367V136.465H62.4011V131.422Z" fill="#EBEBEB"/>
<path d="M67.3015 131.422H64.5372V136.465H67.3015V131.422Z" fill="#EBEBEB"/>
<path d="M72.198 131.422H69.4336V136.465H72.198V131.422Z" fill="#EBEBEB"/>
<path d="M52.6082 139.619H49.8438V144.662H52.6082V139.619Z" fill="#EBEBEB"/>
<path d="M57.5046 139.619H54.7403V144.662H57.5046V139.619Z" fill="#EBEBEB"/>
<path d="M62.4011 139.619H59.6367V144.662H62.4011V139.619Z" fill="#EBEBEB"/>
<path d="M67.3015 139.619H64.5372V144.662H67.3015V139.619Z" fill="#EBEBEB"/>
<path d="M72.198 139.619H69.4336V144.662H72.198V139.619Z" fill="#EBEBEB"/>
<path d="M52.6082 147.812H49.8438V162.558H52.6082V147.812Z" fill="#EBEBEB"/>
<path d="M57.5046 147.812H54.7403V162.558H57.5046V147.812Z" fill="#EBEBEB"/>
<path d="M62.4011 147.812H59.6367V162.558H62.4011V147.812Z" fill="#EBEBEB"/>
<path d="M67.3015 147.812H64.5372V162.558H67.3015V147.812Z" fill="#EBEBEB"/>
<path d="M72.198 147.812H69.4336V162.558H72.198V147.812Z" fill="#EBEBEB"/>
<path d="M92.1849 34.2988H74.6664V162.558H92.1849V34.2988Z" fill="#DBDBDB"/>
<path d="M92.9469 31.7451H74.6664V34.2989H92.9469V31.7451Z" fill="#C7C7C7"/>
<path d="M79.8952 38.0625H77.1309V162.558H79.8952V38.0625Z" fill="#C7C7C7"/>
<path d="M84.7957 38.0625H82.0313V162.558H84.7957V38.0625Z" fill="#C7C7C7"/>
<path d="M89.6921 38.0625H86.9278V162.558H89.6921V38.0625Z" fill="#C7C7C7"/>
<path d="M79.8952 41.2902H77.1309V46.3327H79.8952V41.2902Z" fill="#DBDBDB"/>
<path d="M84.7957 41.2902H82.0313V46.3327H84.7957V41.2902Z" fill="#DBDBDB"/>
<path d="M89.6921 41.2902H86.9278V46.3327H89.6921V41.2902Z" fill="#DBDBDB"/>
<path d="M79.8952 49.4833H77.1309V54.5258H79.8952V49.4833Z" fill="#DBDBDB"/>
<path d="M84.7957 49.4833H82.0313V54.5258H84.7957V49.4833Z" fill="#DBDBDB"/>
<path d="M89.6921 49.4833H86.9278V54.5258H89.6921V49.4833Z" fill="#DBDBDB"/>
<path d="M79.8952 57.6764H77.1309V62.7189H79.8952V57.6764Z" fill="#DBDBDB"/>
<path d="M84.7957 57.6764H82.0313V62.7189H84.7957V57.6764Z" fill="#DBDBDB"/>
<path d="M89.6921 57.6764H86.9278V62.7189H89.6921V57.6764Z" fill="#DBDBDB"/>
<path d="M79.8952 65.8735H77.1309V70.9161H79.8952V65.8735Z" fill="#DBDBDB"/>
<path d="M84.7957 65.8735H82.0313V70.9161H84.7957V65.8735Z" fill="#DBDBDB"/>
<path d="M89.6921 65.8735H86.9278V70.9161H89.6921V65.8735Z" fill="#DBDBDB"/>
<path d="M79.8952 74.0665H77.1309V79.109H79.8952V74.0665Z" fill="#DBDBDB"/>
<path d="M84.7957 74.0665H82.0313V79.109H84.7957V74.0665Z" fill="#DBDBDB"/>
<path d="M89.6921 74.0665H86.9278V79.109H89.6921V74.0665Z" fill="#DBDBDB"/>
<path d="M79.8952 82.2596H77.1309V87.3022H79.8952V82.2596Z" fill="#DBDBDB"/>
<path d="M84.7957 82.2596H82.0313V87.3022H84.7957V82.2596Z" fill="#DBDBDB"/>
<path d="M89.6921 82.2596H86.9278V87.3022H89.6921V82.2596Z" fill="#DBDBDB"/>
<path d="M79.8952 90.4528H77.1309V95.4953H79.8952V90.4528Z" fill="#DBDBDB"/>
<path d="M84.7957 90.4528H82.0313V95.4953H84.7957V90.4528Z" fill="#DBDBDB"/>
<path d="M89.6921 90.4528H86.9278V95.4953H89.6921V90.4528Z" fill="#DBDBDB"/>
<path d="M79.8952 98.6499H77.1309V103.692H79.8952V98.6499Z" fill="#DBDBDB"/>
<path d="M84.7957 98.6499H82.0313V103.692H84.7957V98.6499Z" fill="#DBDBDB"/>
<path d="M89.6921 98.6499H86.9278V103.692H89.6921V98.6499Z" fill="#DBDBDB"/>
<path d="M79.8952 106.843H77.1309V111.885H79.8952V106.843Z" fill="#DBDBDB"/>
<path d="M84.7957 106.843H82.0313V111.885H84.7957V106.843Z" fill="#DBDBDB"/>
<path d="M89.6921 106.843H86.9278V111.885H89.6921V106.843Z" fill="#DBDBDB"/>
<path d="M79.8952 115.036H77.1309V120.079H79.8952V115.036Z" fill="#DBDBDB"/>
<path d="M84.7957 115.036H82.0313V120.079H84.7957V115.036Z" fill="#DBDBDB"/>
<path d="M89.6921 115.036H86.9278V120.079H89.6921V115.036Z" fill="#DBDBDB"/>
<path d="M79.8952 123.229H77.1309V128.272H79.8952V123.229Z" fill="#DBDBDB"/>
<path d="M84.7957 123.229H82.0313V128.272H84.7957V123.229Z" fill="#DBDBDB"/>
<path d="M89.6921 123.229H86.9278V128.272H89.6921V123.229Z" fill="#DBDBDB"/>
<path d="M79.8952 131.422H77.1309V136.465H79.8952V131.422Z" fill="#DBDBDB"/>
<path d="M84.7957 131.422H82.0313V136.465H84.7957V131.422Z" fill="#DBDBDB"/>
<path d="M89.6921 131.422H86.9278V136.465H89.6921V131.422Z" fill="#DBDBDB"/>
<path d="M79.8952 139.619H77.1309V144.662H79.8952V139.619Z" fill="#DBDBDB"/>
<path d="M84.7957 139.619H82.0313V144.662H84.7957V139.619Z" fill="#DBDBDB"/>
<path d="M89.6921 139.619H86.9278V144.662H89.6921V139.619Z" fill="#DBDBDB"/>
<path d="M79.8952 147.812H77.1309V162.558H79.8952V147.812Z" fill="#DBDBDB"/>
<path d="M84.7957 147.812H82.0313V162.558H84.7957V147.812Z" fill="#DBDBDB"/>
<path d="M89.6921 147.812H86.9278V162.558H89.6921V147.812Z" fill="#DBDBDB"/>
<path d="M41.8223 77.3593H19.3952V162.558H41.8223V77.3593Z" fill="#EBEBEB"/>
<path d="M41.8223 71.7118H22.5851V77.3633H41.8223V71.7118Z" fill="#C7C7C7"/>
<path d="M39.3619 80.3108H21.8515V144H39.3619V80.3108Z" fill="#DBDBDB"/>
<path d="M39.3619 86.3887H21.8515V87.8949H39.3619V86.3887Z" fill="white"/>
<path d="M39.3619 92.6207H21.8515V94.127H39.3619V92.6207Z" fill="white"/>
<path d="M39.3619 98.8569H21.8515V100.363H39.3619V98.8569Z" fill="white"/>
<path d="M39.3619 105.089H21.8515V106.595H39.3619V105.089Z" fill="white"/>
<path d="M39.3619 111.325H21.8515V112.831H39.3619V111.325Z" fill="white"/>
<path d="M39.3619 117.557H21.8515V119.064H39.3619V117.557Z" fill="white"/>
<path d="M39.3619 123.793H21.8515V125.3H39.3619V123.793Z" fill="white"/>
<path d="M39.3619 130.026H21.8515V131.532H39.3619V130.026Z" fill="white"/>
<path d="M39.3619 136.262H21.8515V137.768H39.3619V136.262Z" fill="white"/>
<path d="M39.3619 142.494H21.8515V144H39.3619V142.494Z" fill="white"/>
<path d="M55.8711 77.3593H41.8223V162.558H55.8711V77.3593Z" fill="#DBDBDB"/>
<path d="M53.7634 71.7118H41.8223V77.3633H53.7634V71.7118Z" fill="#A6A6A6"/>
<path d="M54.5619 80.3108H43.7598V144H54.5619V80.3108Z" fill="#C7C7C7"/>
<path d="M54.5619 86.3887H43.7598V87.8949H54.5619V86.3887Z" fill="white"/>
<path d="M54.5619 92.6207H43.7598V94.127H54.5619V92.6207Z" fill="white"/>
<path d="M54.5619 98.8569H43.7598V100.363H54.5619V98.8569Z" fill="white"/>
<path d="M54.5619 105.089H43.7598V106.595H54.5619V105.089Z" fill="white"/>
<path d="M54.5619 111.325H43.7598V112.831H54.5619V111.325Z" fill="white"/>
<path d="M54.5619 117.557H43.7598V119.064H54.5619V117.557Z" fill="white"/>
<path d="M54.5619 123.793H43.7598V125.3H54.5619V123.793Z" fill="white"/>
<path d="M54.5619 130.026H43.7598V131.532H54.5619V130.026Z" fill="white"/>
<path d="M54.5619 136.262H43.7598V137.768H54.5619V136.262Z" fill="white"/>
<path d="M54.5619 142.494H43.7598V144H54.5619V142.494Z" fill="white"/>
<path d="M266.113 78.7965H254.136V92.97H266.113V78.7965Z" fill="#DBDBDB"/>
<path d="M273.709 78.7965H266.113V93.4896H273.709V78.7965Z" fill="#C7C7C7"/>
<path d="M274.216 85.057H266.677V93.4896H274.216V85.057Z" fill="#DBDBDB"/>
<path d="M278.918 85.057H274.216V93.4896H278.918V85.057Z" fill="#C7C7C7"/>
<path d="M268.91 92.0483H249.539V162.558H268.91V92.0483Z" fill="#EBEBEB"/>
<path d="M257.849 95.0811H251.757V97.5739H257.849V95.0811Z" fill="white"/>
<path d="M265.639 95.0811H259.547V97.5739H265.639V95.0811Z" fill="white"/>
<path d="M257.849 99.3116H251.757V101.805H257.849V99.3116Z" fill="white"/>
<path d="M265.639 99.3116H259.547V101.805H265.639V99.3116Z" fill="white"/>
<path d="M257.849 103.542H251.757V106.035H257.849V103.542Z" fill="white"/>
<path d="M265.639 103.542H259.547V106.035H265.639V103.542Z" fill="white"/>
<path d="M257.849 107.777H251.757V110.27H257.849V107.777Z" fill="white"/>
<path d="M265.639 107.777H259.547V110.27H265.639V107.777Z" fill="white"/>
<path d="M257.849 112.007H251.757V114.5H257.849V112.007Z" fill="white"/>
<path d="M265.639 112.007H259.547V114.5H265.639V112.007Z" fill="white"/>
<path d="M257.849 116.242H251.757V118.735H257.849V116.242Z" fill="white"/>
<path d="M265.639 116.242H259.547V118.735H265.639V116.242Z" fill="white"/>
<path d="M257.849 120.472H251.757V122.965H257.849V120.472Z" fill="white"/>
<path d="M265.639 120.472H259.547V122.965H265.639V120.472Z" fill="white"/>
<path d="M257.849 124.707H251.757V127.2H257.849V124.707Z" fill="white"/>
<path d="M265.639 124.707H259.547V127.2H265.639V124.707Z" fill="white"/>
<path d="M257.849 128.938H251.757V131.43H257.849V128.938Z" fill="white"/>
<path d="M265.639 128.938H259.547V131.43H265.639V128.938Z" fill="white"/>
<path d="M257.849 133.168H251.757V135.661H257.849V133.168Z" fill="white"/>
<path d="M265.639 133.168H259.547V135.661H265.639V133.168Z" fill="white"/>
<path d="M257.849 137.403H251.757V139.895H257.849V137.403Z" fill="white"/>
<path d="M265.639 137.403H259.547V139.895H265.639V137.403Z" fill="white"/>
<path d="M257.849 141.633H251.757V144.126H257.849V141.633Z" fill="white"/>
<path d="M265.639 141.633H259.547V144.126H265.639V141.633Z" fill="white"/>
<path d="M257.849 145.868H251.757V148.361H257.849V145.868Z" fill="white"/>
<path d="M265.639 145.868H259.547V148.361H265.639V145.868Z" fill="white"/>
<path d="M257.849 150.098H251.757V152.591H257.849V150.098Z" fill="white"/>
<path d="M265.639 150.098H259.547V152.591H265.639V150.098Z" fill="white"/>
<path d="M284.605 92.0483H268.91V162.558H284.605V92.0483Z" fill="#C7C7C7"/>
<path d="M278.03 152.591H283.032V150.098H278.03V152.591Z" fill="#EBEBEB"/>
<path d="M271.63 152.591H276.632V150.098H271.63V152.591Z" fill="#EBEBEB"/>
<path d="M278.03 148.356H283.032V145.864H278.03V148.356Z" fill="#EBEBEB"/>
<path d="M271.63 148.356H276.632V145.864H271.63V148.356Z" fill="#EBEBEB"/>
<path d="M278.03 144.126H283.032V141.633H278.03V144.126Z" fill="#EBEBEB"/>
<path d="M271.63 144.126H276.632V141.633H271.63V144.126Z" fill="#EBEBEB"/>
<path d="M278.03 139.895H283.032V137.403H278.03V139.895Z" fill="#EBEBEB"/>
<path d="M271.63 139.895H276.632V137.403H271.63V139.895Z" fill="#EBEBEB"/>
<path d="M278.03 135.665H283.032V133.172H278.03V135.665Z" fill="#EBEBEB"/>
<path d="M271.63 135.665H276.632V133.172H271.63V135.665Z" fill="#EBEBEB"/>
<path d="M278.03 131.43H283.032V128.937H278.03V131.43Z" fill="#EBEBEB"/>
<path d="M271.63 131.43H276.632V128.937H271.63V131.43Z" fill="#EBEBEB"/>
<path d="M278.03 127.196H283.032V124.703H278.03V127.196Z" fill="#EBEBEB"/>
<path d="M271.63 127.196H276.632V124.703H271.63V127.196Z" fill="#EBEBEB"/>
<path d="M278.03 122.965H283.032V120.472H278.03V122.965Z" fill="#EBEBEB"/>
<path d="M271.63 122.965H276.632V120.472H271.63V122.965Z" fill="#EBEBEB"/>
<path d="M278.03 118.731H283.032V116.238H278.03V118.731Z" fill="#EBEBEB"/>
<path d="M271.63 118.731H276.632V116.238H271.63V118.731Z" fill="#EBEBEB"/>
<path d="M278.03 114.504H283.032V112.011H278.03V114.504Z" fill="#EBEBEB"/>
<path d="M271.63 114.504H276.632V112.011H271.63V114.504Z" fill="#EBEBEB"/>
<path d="M278.03 110.27H283.032V107.777H278.03V110.27Z" fill="#EBEBEB"/>
<path d="M271.63 110.27H276.632V107.777H271.63V110.27Z" fill="#EBEBEB"/>
<path d="M278.03 106.039H283.032V103.546H278.03V106.039Z" fill="#EBEBEB"/>
<path d="M271.63 106.039H276.632V103.546H271.63V106.039Z" fill="#EBEBEB"/>
<path d="M278.03 101.804H283.032V99.3116H278.03V101.804Z" fill="#EBEBEB"/>
<path d="M271.63 101.804H276.632V99.3116H271.63V101.804Z" fill="#EBEBEB"/>
<path d="M278.03 97.5699H283.032V95.0771H278.03V97.5699Z" fill="#EBEBEB"/>
<path d="M271.63 97.5699H276.632V95.0771H271.63V97.5699Z" fill="#EBEBEB"/>
<path d="M110.563 106.469H87.6736V162.558H110.563V106.469Z" fill="#C7C7C7"/>
<path d="M95.3222 111.325H91.2729V114.76H95.3222V111.325Z" fill="#DBDBDB"/>
<path d="M95.3222 118.666H91.2729V122.1H95.3222V118.666Z" fill="#DBDBDB"/>
<path d="M95.3222 126.006H91.2729V129.441H95.3222V126.006Z" fill="#DBDBDB"/>
<path d="M95.3222 133.343H91.2729V136.777H95.3222V133.343Z" fill="#DBDBDB"/>
<path d="M95.3222 140.683H91.2729V144.118H95.3222V140.683Z" fill="#DBDBDB"/>
<path d="M95.3222 148.023H91.2729V151.458H95.3222V148.023Z" fill="#DBDBDB"/>
<path d="M95.3222 155.364H91.2729V158.799H95.3222V155.364Z" fill="#DBDBDB"/>
<path d="M101.147 111.325H97.0976V114.76H101.147V111.325Z" fill="#DBDBDB"/>
<path d="M101.147 118.666H97.0976V122.1H101.147V118.666Z" fill="#DBDBDB"/>
<path d="M101.147 126.006H97.0976V129.441H101.147V126.006Z" fill="#DBDBDB"/>
<path d="M101.147 133.343H97.0976V136.777H101.147V133.343Z" fill="#DBDBDB"/>
<path d="M101.147 140.683H97.0976V144.118H101.147V140.683Z" fill="#DBDBDB"/>
<path d="M101.147 148.023H97.0976V151.458H101.147V148.023Z" fill="#DBDBDB"/>
<path d="M101.147 155.364H97.0976V158.799H101.147V155.364Z" fill="#DBDBDB"/>
<path d="M106.959 111.325H102.91V114.76H106.959V111.325Z" fill="#DBDBDB"/>
<path d="M106.959 118.666H102.91V122.1H106.959V118.666Z" fill="#DBDBDB"/>
<path d="M106.959 126.006H102.91V129.441H106.959V126.006Z" fill="#DBDBDB"/>
<path d="M106.959 133.343H102.91V136.777H106.959V133.343Z" fill="#DBDBDB"/>
<path d="M106.959 140.683H102.91V144.118H106.959V140.683Z" fill="#DBDBDB"/>
<path d="M106.959 148.023H102.91V151.458H106.959V148.023Z" fill="#DBDBDB"/>
<path d="M106.959 155.364H102.91V158.799H106.959V155.364Z" fill="#DBDBDB"/>
<path d="M110.559 100.627H95.3222V106.469H110.559V100.627Z" fill="#DBDBDB"/>
<path d="M110.559 97.0096H100.9V100.627H110.559V97.0096Z" fill="#EBEBEB"/>
<path d="M126.618 106.469H110.559V162.558H126.618V106.469Z" fill="#A6A6A6"/>
<path d="M121.677 158.251H124.972V154.816H121.677V158.251Z" fill="#C7C7C7"/>
<path d="M121.677 150.914H124.972V147.479H121.677V150.914Z" fill="#C7C7C7"/>
<path d="M121.677 143.574H124.972V140.139H121.677V143.574Z" fill="#C7C7C7"/>
<path d="M121.677 136.233H124.972V132.799H121.677V136.233Z" fill="#C7C7C7"/>
<path d="M121.677 128.893H124.972V125.458H121.677V128.893Z" fill="#C7C7C7"/>
<path d="M121.677 121.552H124.972V118.118H121.677V121.552Z" fill="#C7C7C7"/>
<path d="M121.677 114.216H124.972V110.781H121.677V114.216Z" fill="#C7C7C7"/>
<path d="M116.935 158.251H120.23V154.816H116.935V158.251Z" fill="#C7C7C7"/>
<path d="M116.935 150.914H120.23V147.479H116.935V150.914Z" fill="#C7C7C7"/>
<path d="M116.935 143.574H120.23V140.139H116.935V143.574Z" fill="#C7C7C7"/>
<path d="M116.935 136.233H120.23V132.799H116.935V136.233Z" fill="#C7C7C7"/>
<path d="M116.935 128.893H120.23V125.458H116.935V128.893Z" fill="#C7C7C7"/>
<path d="M116.935 121.552H120.23V118.118H116.935V121.552Z" fill="#C7C7C7"/>
<path d="M116.935 114.216H120.23V110.781H116.935V114.216Z" fill="#C7C7C7"/>
<path d="M112.204 158.251H115.5V154.816H112.204V158.251Z" fill="#C7C7C7"/>
<path d="M112.204 150.914H115.5V147.479H112.204V150.914Z" fill="#C7C7C7"/>
<path d="M112.204 143.574H115.5V140.139H112.204V143.574Z" fill="#C7C7C7"/>
<path d="M112.204 136.233H115.5V132.799H112.204V136.233Z" fill="#C7C7C7"/>
<path d="M112.204 128.893H115.5V125.458H112.204V128.893Z" fill="#C7C7C7"/>
<path d="M112.204 121.552H115.5V118.118H112.204V121.552Z" fill="#C7C7C7"/>
<path d="M112.204 114.216H115.5V110.781H112.204V114.216Z" fill="#C7C7C7"/>
<path d="M124.186 100.627H110.559V106.469H124.186V100.627Z" fill="#C7C7C7"/>
<path d="M117.944 97.0096H110.559V100.627H117.944V97.0096Z" fill="#DBDBDB"/>
<path d="M19.0507 179.225C104.223 178.973 199.769 178.973 284.949 179.225C199.777 179.472 104.231 179.472 19.0507 179.225Z" fill="#263238"/>
<path d="M19.0507 162.558C104.223 162.311 199.769 162.307 284.949 162.558C199.777 162.81 104.231 162.806 19.0507 162.558Z" fill="#263238"/>
<path d="M28.7787 144.264C28.7787 144.264 33.7197 155.254 25.6535 155.267C17.5874 155.279 22.8162 143.899 22.8162 143.899C22.8162 143.899 20.9476 143.087 23.104 136.94C25.2604 130.793 26.2332 130.801 27.133 130.801C28.2679 130.801 29.3299 133.456 28.5598 137.532C28.5517 137.532 31.3931 142.616 28.7787 144.264Z" fill="#37474F"/>
<path d="M24.9483 162.558L25.7103 145.993L26.5047 162.558H24.9483Z" fill="#263238"/>
<path d="M25.3982 152.936L28.3288 149.505L26.0305 153.391L25.3982 152.936Z" fill="#263238"/>
<path d="M127.502 145.445C127.502 145.445 125.203 144.536 123.379 147.719C121.511 150.967 123.862 153.131 125.722 151.848C125.722 151.848 127.186 154.917 130.104 154.183C133.022 153.448 133.497 151.109 133.497 151.109C133.497 151.109 136.091 151.288 136.16 149.351C136.228 147.415 134.332 145.697 134.332 145.697C134.332 145.697 134.218 140.87 131.089 140.91C127.96 140.951 127.502 145.445 127.502 145.445Z" fill="#455A64"/>
<path d="M129.658 162.55L130.298 148.186L130.971 162.55H129.658Z" fill="#263238"/>
<path d="M130.112 153.586L128.089 149.558L130.44 152.956L130.112 153.586Z" fill="#263238"/>
<path d="M88.849 145.445C88.849 145.445 86.5468 144.536 84.7228 147.719C82.8582 150.967 85.2051 153.131 87.0656 151.848C87.0656 151.848 88.5288 154.917 91.4513 154.183C94.3737 153.448 94.8439 151.109 94.8439 151.109C94.8439 151.109 97.434 151.288 97.507 149.351C97.5799 147.415 95.6749 145.697 95.6749 145.697C95.6749 145.697 95.5614 140.87 92.4322 140.91C89.303 140.951 88.849 145.445 88.849 145.445Z" fill="#455A64"/>
<path d="M91.0014 162.55L91.6459 148.186L92.3187 162.55H91.0014Z" fill="#263238"/>
<path d="M91.4553 153.586L89.4368 149.558L91.7837 152.956L91.4553 153.586Z" fill="#263238"/>
<path d="M281.354 144.191C281.354 144.191 286.295 155.181 278.229 155.189C270.163 155.198 275.392 143.821 275.392 143.821C275.392 143.821 273.523 143.009 275.683 136.863C277.844 130.716 278.796 130.732 279.68 130.732C280.819 130.732 281.877 133.383 281.107 137.463C281.123 137.459 283.968 142.542 281.354 144.191Z" fill="#37474F"/>
<path d="M277.524 162.485L278.282 145.916L279.076 162.481L277.524 162.485Z" fill="#263238"/>
<path d="M277.974 152.863L280.9 149.432L278.606 153.318L277.974 152.863Z" fill="#263238"/>
<path d="M250.387 144.191C250.387 144.191 255.328 155.181 247.261 155.189C239.195 155.198 244.424 143.821 244.424 143.821C244.424 143.821 242.556 143.009 244.716 136.863C246.876 130.716 247.833 130.732 248.729 130.732C249.868 130.732 250.93 133.383 250.156 137.463C250.156 137.459 253.001 142.542 250.387 144.191Z" fill="#37474F"/>
<path d="M246.556 162.485L247.314 145.916L248.113 162.481L246.556 162.485Z" fill="#263238"/>
<path d="M247.006 152.863L249.933 149.432L247.638 153.318L247.006 152.863Z" fill="#263238"/>
<path d="M116.408 146.525C116.408 146.525 112.103 156.164 119.168 156.156C126.233 156.148 121.645 146.192 121.645 146.192C121.645 146.192 123.266 145.47 121.373 140.102C119.48 134.735 118.625 134.731 117.834 134.735C116.841 134.735 115.917 137.061 116.618 140.63C116.598 140.626 114.118 145.088 116.408 146.525Z" fill="#37474F"/>
<path d="M119.8 162.542L119.103 148.032L118.438 162.542H119.8Z" fill="#263238"/>
<path d="M119.387 154.118L116.817 151.113L118.836 154.515L119.387 154.118Z" fill="#263238"/>
<path d="M180.122 146.525C180.122 146.525 175.817 156.164 182.882 156.156C189.947 156.148 185.355 146.192 185.355 146.192C185.355 146.192 186.976 145.47 185.087 140.102C183.198 134.735 182.339 134.731 181.549 134.735C180.556 134.735 179.632 137.061 180.333 140.63C180.313 140.626 177.832 145.088 180.122 146.525Z" fill="#37474F"/>
<path d="M183.515 162.542L182.817 148.032L182.153 162.542H183.515Z" fill="#263238"/>
<path d="M183.101 154.118L180.531 151.113L182.55 154.515L183.101 154.118Z" fill="#263238"/>
<path d="M254.813 145.389C254.813 145.389 252.51 144.475 250.686 147.658C248.818 150.926 251.169 153.07 253.029 151.791C253.029 151.791 254.493 154.861 257.415 154.126C260.337 153.391 260.804 151.048 260.804 151.048C260.804 151.048 263.398 151.231 263.467 149.29C263.536 147.35 261.639 145.636 261.639 145.636C261.639 145.636 261.525 140.809 258.396 140.849C255.267 140.89 254.813 145.389 254.813 145.389Z" fill="#455A64"/>
<path d="M256.965 162.493L257.606 148.129L258.278 162.489L256.965 162.493Z" fill="#263238"/>
<path d="M257.411 153.509L255.396 149.497L257.808 152.891L257.411 153.509Z" fill="#263238"/>
<path d="M191.617 81.5613C191.303 81.4036 190.978 81.268 190.644 81.1553C190.305 81.0263 189.949 80.9443 189.587 80.9117C189.476 80.9034 189.364 80.9158 189.258 80.9482C189.224 80.9612 189.19 80.9761 189.157 80.9929L189.092 81.0416C189.051 81.07 189.019 81.1025 188.979 81.135C188.836 81.2624 188.7 81.398 188.573 81.541C188.338 81.8089 188.123 82.0891 187.913 82.3773L188.176 82.284C187.821 82.1822 187.459 82.1062 187.094 82.0566C186.907 82.0305 186.719 82.017 186.53 82.016C186.43 82.015 186.33 82.0217 186.23 82.0363C186.175 82.0446 186.121 82.0582 186.068 82.0769C186.012 82.0976 185.958 82.1234 185.906 82.1541C185.745 82.2672 185.601 82.404 185.481 82.5601C185.363 82.7062 185.262 82.8564 185.16 83.0107C184.969 83.3198 184.801 83.6428 184.658 83.977C184.893 83.6968 185.116 83.4167 185.355 83.165C185.472 83.031 185.59 82.9011 185.716 82.7833C185.829 82.6685 185.957 82.5689 186.097 82.487C186.227 82.4444 186.365 82.4306 186.502 82.4464C186.672 82.4577 186.842 82.4807 187.009 82.5154C187.349 82.5763 187.694 82.6616 188.026 82.7509L188.192 82.7955L188.289 82.6575C188.484 82.3814 188.695 82.1053 188.906 81.8455C189.006 81.7147 189.115 81.59 189.23 81.472L189.315 81.3908L189.351 81.3583C189.411 81.3343 189.474 81.3219 189.538 81.3218C189.873 81.3211 190.207 81.3538 190.535 81.4192C190.912 81.4273 191.273 81.5004 191.617 81.5613Z" fill="#263238"/>
<path d="M187.799 91.89C187.386 91.5638 186.951 91.2654 186.498 90.9968C186.036 90.7079 185.537 90.4826 185.014 90.3269C184.853 90.283 184.686 90.2692 184.52 90.2863C184.464 90.2907 184.409 90.3044 184.358 90.3269L184.248 90.3756C184.175 90.4081 184.119 90.4446 184.054 90.4771C183.82 90.6191 183.594 90.7736 183.377 90.94C182.947 91.2648 182.566 91.6139 182.161 91.9712L182.566 91.9143C182.075 91.6617 181.567 91.4433 181.046 91.2607C180.781 91.1703 180.51 91.0957 180.236 91.0374C180.088 91.0089 179.939 90.9912 179.79 90.9846C179.707 90.9787 179.625 90.9787 179.542 90.9846C179.457 90.9846 179.364 91.0293 179.283 91.0496C179.011 91.1692 178.759 91.3308 178.537 91.5287C178.325 91.7079 178.124 91.899 177.933 92.1011C177.561 92.4969 177.221 92.9218 176.916 93.3719C177.321 93.0308 177.747 92.6857 178.176 92.3691C178.382 92.2062 178.595 92.0544 178.817 91.9143C179.016 91.7781 179.233 91.6689 179.461 91.5895C179.676 91.5641 179.893 91.5862 180.098 91.6545C180.344 91.7206 180.585 91.8034 180.819 91.9022C181.297 92.093 181.784 92.3082 182.246 92.5477L182.477 92.6614L182.659 92.4868C183.024 92.1336 183.413 91.7925 183.802 91.4637C183.99 91.3001 184.186 91.1469 184.39 91.0049C184.439 90.9765 184.487 90.9399 184.536 90.9156L184.601 90.879C184.601 90.879 184.601 90.879 184.625 90.879C184.719 90.8623 184.815 90.8623 184.909 90.879C185.402 90.9755 185.884 91.121 186.348 91.3135C186.83 91.4921 187.313 91.6951 187.799 91.89Z" fill="#263238"/>
<path d="M108.139 50.3034C107.857 50.0933 107.56 49.9034 107.251 49.735C106.936 49.5552 106.598 49.4187 106.246 49.329C106.136 49.3096 106.024 49.3096 105.914 49.329C105.878 49.3373 105.843 49.3481 105.808 49.3615L105.735 49.398C105.692 49.42 105.65 49.4444 105.61 49.4711C105.456 49.5695 105.309 49.6766 105.168 49.7919C104.888 50.0192 104.633 50.2588 104.377 50.5064L104.649 50.4577C104.315 50.3021 103.973 50.1665 103.623 50.0517C103.445 50.003 103.263 49.9543 103.072 49.9218C102.973 49.9039 102.873 49.8944 102.772 49.8934C102.717 49.8896 102.661 49.8896 102.606 49.8934C102.548 49.9053 102.491 49.9216 102.436 49.9421C102.256 50.0285 102.091 50.1421 101.945 50.2791C101.81 50.4071 101.681 50.5427 101.56 50.6851C101.32 50.9576 101.1 51.248 100.904 51.5539C101.179 51.3184 101.447 51.0789 101.714 50.8556C101.852 50.746 101.994 50.6363 102.12 50.543C102.244 50.4488 102.381 50.371 102.525 50.3115C102.667 50.2902 102.812 50.2999 102.951 50.34C103.115 50.3807 103.278 50.4309 103.437 50.4902C103.761 50.6079 104.09 50.746 104.402 50.8962L104.56 50.9652L104.677 50.8475C104.912 50.6039 105.168 50.3643 105.419 50.137C105.54 50.0245 105.667 49.9188 105.8 49.8203C105.833 49.8203 105.865 49.7716 105.897 49.7553L105.938 49.731C105.938 49.731 105.938 49.731 105.958 49.731C106.02 49.7199 106.083 49.7199 106.145 49.731C106.475 49.7872 106.799 49.8742 107.113 49.9908C107.482 50.0598 107.819 50.1857 108.139 50.3034Z" fill="#263238"/>
<path d="M119.78 48.8864C119.482 48.4504 119.154 48.0353 118.799 47.6441C118.444 47.231 118.035 46.8677 117.583 46.5641C117.443 46.4745 117.288 46.4112 117.125 46.3774C117.07 46.369 117.014 46.369 116.959 46.3774C116.918 46.375 116.878 46.375 116.837 46.3774L116.623 46.422C116.356 46.4846 116.093 46.5633 115.836 46.6575C115.334 46.8402 114.855 47.0635 114.369 47.2827L114.774 47.3477C114.379 46.9623 113.957 46.6042 113.514 46.2759C113.287 46.1079 113.048 45.956 112.8 45.8211C112.669 45.7489 112.534 45.6851 112.395 45.6303C112.315 45.6048 112.234 45.5844 112.152 45.5694C112.063 45.5631 111.973 45.5631 111.884 45.5694C111.59 45.6029 111.303 45.6824 111.033 45.8049C110.774 45.9145 110.53 46.0404 110.287 46.1703C109.814 46.4394 109.363 46.7448 108.937 47.0838C109.44 46.8808 109.939 46.6778 110.437 46.4992C110.682 46.4046 110.933 46.3247 111.187 46.2596C111.418 46.1859 111.658 46.1462 111.9 46.1419C112.111 46.1782 112.311 46.2629 112.484 46.3895C112.699 46.5261 112.905 46.6767 113.1 46.8402C113.505 47.165 113.911 47.5223 114.272 47.8796L114.458 48.0582L114.685 47.9445C115.139 47.7172 115.613 47.506 116.079 47.3071C116.306 47.207 116.539 47.1202 116.777 47.0473C116.831 47.0291 116.886 47.0142 116.943 47.0026H117.016H117.044C117.139 47.016 117.23 47.0448 117.316 47.0879C117.756 47.3205 118.172 47.5952 118.56 47.908C118.969 48.2165 119.367 48.5535 119.78 48.8864Z" fill="#263238"/>
<path d="M203.096 89.3565C202.798 88.9204 202.47 88.5053 202.115 88.1141C201.762 87.6999 201.352 87.3365 200.899 87.0342C200.761 86.9421 200.605 86.8786 200.441 86.8474C200.386 86.8409 200.33 86.8409 200.275 86.8474H200.158C200.077 86.8474 200.012 86.8758 199.939 86.888C199.674 86.9532 199.413 87.0332 199.157 87.1275C198.65 87.3102 198.172 87.5335 197.685 87.7528L198.09 87.8177C197.696 87.4312 197.275 87.073 196.83 86.7459C196.602 86.578 196.364 86.4248 196.116 86.2871C195.986 86.2146 195.851 86.1521 195.711 86.1004C195.633 86.0734 195.553 86.053 195.472 86.0395C195.383 86.0334 195.294 86.0334 195.204 86.0395C194.909 86.0722 194.62 86.1516 194.349 86.2749C194.095 86.3812 193.847 86.5032 193.607 86.6403C193.133 86.908 192.681 87.2121 192.254 87.5498C192.76 87.3508 193.255 87.1438 193.757 86.9651C194.005 86.8758 194.256 86.7906 194.503 86.7256C194.735 86.6558 194.975 86.6162 195.217 86.6079C195.428 86.6477 195.628 86.7322 195.804 86.8555C196.017 86.9945 196.222 87.1464 196.416 87.3102C196.822 87.631 197.227 87.9923 197.588 88.3496L197.774 88.5282L198.001 88.4146C198.455 88.1872 198.93 87.9761 199.396 87.7771C199.623 87.6764 199.856 87.5883 200.093 87.5132L200.259 87.4726H200.332C200.332 87.4726 200.332 87.4726 200.36 87.4726C200.455 87.4841 200.547 87.513 200.632 87.5579C201.074 87.7973 201.491 88.0802 201.876 88.4024C202.286 88.6866 202.687 89.0236 203.096 89.3565Z" fill="#263238"/>
<path d="M46.7066 113.099C41.8032 113.375 36.8882 113.375 31.9849 113.099C36.8882 112.823 41.8032 112.823 46.7066 113.099V113.099Z" fill="#263238"/>
<path d="M35.3451 117.951C30.2889 118.227 25.2215 118.227 20.1653 117.951C25.2214 117.671 30.289 117.671 35.3451 117.951V117.951Z" fill="#263238"/>
<path d="M32.5402 114.939C26.6426 115.215 20.6963 115.215 14.7947 114.939C20.6963 114.658 26.6426 114.658 32.5402 114.939Z" fill="#263238"/>
<path d="M145.92 87.1398C141.017 87.4159 136.102 87.4159 131.198 87.1398C136.102 86.8637 141.017 86.8637 145.92 87.1398V87.1398Z" fill="#263238"/>
<path d="M124.409 106.904C119.351 107.18 114.283 107.18 109.225 106.904C114.283 106.628 119.351 106.628 124.409 106.904Z" fill="#263238"/>
<path d="M132.508 103.351C126.606 103.627 120.66 103.627 114.758 103.351C120.66 103.075 126.606 103.075 132.508 103.351Z" fill="#263238"/>
<g opacity="0.8">
<path opacity="0.8" d="M19.1479 179.225L22.0663 178.697C22.0663 178.697 18.9615 175.506 20.8503 173.545C22.7392 171.584 25.6333 173.317 25.6333 173.317C25.6333 173.317 25.2036 168.652 28.803 167.678C32.4024 166.704 35.5761 173.679 35.5761 173.679C35.5761 173.679 36.1031 172.055 38.7945 172.684C41.4859 173.313 43.6098 176.996 43.6098 176.996L76.9485 179.229" fill="white"/>
<path opacity="0.8" d="M19.1479 179.225L22.0623 178.676C21.4017 178.041 20.8751 177.279 20.5139 176.435C19.5492 174.458 20.9193 172.615 23.0229 172.55C23.9558 172.552 24.872 172.797 25.6819 173.26L25.5765 173.325C25.529 172.621 25.5754 171.914 25.7144 171.222C26.2332 168.108 29.4313 166.233 32.0092 168.543C33.6305 169.903 34.7371 171.754 35.6572 173.638H35.4869C35.6658 173.216 35.9974 172.878 36.4152 172.692C38.5472 171.827 40.7725 173.293 42.1304 174.872C42.7056 175.493 43.2037 176.182 43.6139 176.923L76.9485 179.216L43.6058 177.048C43.5652 177.048 43.5733 177.048 43.5531 177.016C43.1068 176.294 42.5953 175.614 42.025 174.986C40.9103 173.74 39.443 172.623 37.7001 172.631C36.8894 172.599 35.9733 172.932 35.6734 173.715L35.5923 173.906L35.5032 173.723C34.5912 171.876 33.4765 170.069 31.8997 168.701C30.1973 167.142 27.9032 167.455 26.6304 169.363C25.9276 170.558 25.6131 171.943 25.7306 173.325V173.451L25.6211 173.39C24.8343 172.936 23.9435 172.692 23.0351 172.684C21.7178 172.684 20.2748 173.683 20.3072 175.1C20.3396 176.517 21.2192 177.71 22.1069 178.721H22.0785L19.1561 179.233L19.1479 179.225Z" fill="#263238"/>
</g>
<g opacity="0.8">
<path opacity="0.8" d="M27.1208 179.225L30.0352 178.697C30.0352 178.697 26.9303 175.506 28.8192 173.545C30.708 171.584 33.6021 173.317 33.6021 173.317C33.6021 173.317 33.1563 168.652 36.7597 167.674C40.3631 166.696 43.5287 173.675 43.5287 173.675C43.5287 173.675 44.0597 172.051 46.7471 172.68C49.4344 173.309 51.5624 176.992 51.5624 176.992L84.9011 179.225" fill="white"/>
<path opacity="0.8" d="M27.1208 179.225L30.0311 178.677C29.3731 178.039 28.8469 177.277 28.4828 176.435C27.5181 174.458 28.8881 172.615 30.9918 172.55C31.922 172.553 32.8355 172.797 33.6427 173.261L33.5413 173.326C33.4938 172.622 33.5402 171.914 33.6791 171.222C34.1939 168.108 37.392 166.233 39.9699 168.543C41.5913 169.903 42.7019 171.754 43.6179 173.638H43.4517C43.6306 173.217 43.9622 172.879 44.3799 172.692C46.512 171.827 48.7332 173.293 50.0911 174.872C50.6663 175.493 51.1644 176.182 51.5746 176.923L84.9092 179.217L51.5665 177.049C51.526 177.049 51.5341 177.049 51.5179 177.016C51.0689 176.296 50.5576 175.617 49.9898 174.986C48.8751 173.74 47.4037 172.623 45.6649 172.631C44.8542 172.599 43.9381 172.932 43.6382 173.715L43.5612 173.906L43.472 173.723C42.5559 171.876 41.4453 170.069 39.8645 168.701C38.1621 167.142 35.8679 167.455 34.5952 169.363C33.8912 170.558 33.5753 171.943 33.6913 173.326V173.451L33.5819 173.391C32.7959 172.934 31.9045 172.69 30.9958 172.684C29.6785 172.684 28.2355 173.683 28.2679 175.1C28.3004 176.517 29.1799 177.71 30.0717 178.721H30.0392L27.1208 179.233V179.225Z" fill="#263238"/>
</g>
<path d="M147.829 102.389C145.166 104.748 142.361 107.996 138.806 108.93C136.018 109.653 133.087 108.828 130.598 107.537C125.122 104.695 119.93 98.7311 121.823 92.1377C122.581 89.5028 126.047 86.3725 129.014 87.3469C130.534 87.8503 131.693 88.9709 132.961 89.9006C133.726 90.5031 134.617 90.9253 135.567 91.1362C136.517 91.347 137.502 91.341 138.45 91.1186C142.414 90.2579 144.266 88.3051 147.545 86.1127C147.856 85.8742 148.213 85.7028 148.593 85.6092C148.973 85.5155 149.369 85.5017 149.754 85.5686C151.439 85.921 152.949 86.848 154.027 88.1914C154.975 89.6652 154.768 91.9753 154.837 93.6521C154.906 95.3289 154.464 96.4941 153.196 97.6593C151.424 99.263 149.617 100.814 147.829 102.389Z" fill="#263238"/>
<path d="M146.8 103.778C149.102 101.472 151.356 99.1209 153.629 96.7864C153.629 96.7864 153.629 96.7458 153.629 96.762C151.704 98.6296 149.754 100.469 147.853 102.361C145.952 104.253 144.205 106.254 142.179 107.939C137.647 111.727 131.977 108.491 129.062 104.391C128.928 104.204 128.657 104.435 128.787 104.618C131.462 108.138 135.933 111.309 140.505 109.344C142.989 108.272 144.915 105.666 146.8 103.778Z" fill="#263238"/>
<path d="M147.967 86.133C148.016 86.0924 147.967 86.0234 147.902 86.0599C145.28 87.9762 142.402 90.4609 139.041 90.7898C137.387 90.9486 135.722 90.6033 134.267 89.7992C133.116 89.1577 132.272 88.1752 131.279 87.3347C127.4 84.0583 122.123 88.2361 122.342 92.7061C122.342 92.7995 122.508 92.7954 122.508 92.7061C122.508 89.4581 124.851 86.474 128.264 86.4009C131.004 86.34 132.467 89.2714 134.806 90.3148C139.654 92.4666 144.351 89.1658 147.967 86.133Z" fill="#263238"/>
<path d="M130.517 118.662C130.517 118.662 130.221 115.856 130.238 115.276C130.254 114.695 133.213 112.694 133.213 112.694C133.213 112.694 133.91 107.334 134.469 106.124C134.623 105.787 139.67 105.312 140.326 105.913C140.983 106.514 144.214 118.881 144.214 118.881L130.517 118.662Z" fill="#C53F3F"/>
<path opacity="0.5" d="M130.517 118.662C130.517 118.662 130.221 115.856 130.238 115.276C130.254 114.695 133.213 112.694 133.213 112.694C133.213 112.694 133.91 107.334 134.469 106.124C134.623 105.787 139.67 105.312 140.326 105.913C140.983 106.514 144.214 118.881 144.214 118.881L130.517 118.662Z" fill="white"/>
<path d="M149.215 104.383C152.053 110.067 156.649 116.591 158.133 117.468C160.034 118.576 169.583 118.487 170.106 118.418C171.399 118.239 171.298 109.45 169.908 109.579C167.796 109.778 162.008 110.599 161.452 110.249C160.897 109.9 156.783 106.681 152.478 102.986C149.523 100.432 147.456 100.859 149.215 104.383Z" fill="#D3766A"/>
<path d="M173.819 108.67C175.35 108.344 176.945 108.545 178.347 109.242C179.656 109.892 179.927 112.153 179.692 112.653C179.457 113.152 177.487 116.031 176.17 115.41C174.853 114.788 176.774 112.767 176.855 112.47C176.936 112.174 177.05 111.796 176.79 111.707C176.531 111.618 171.197 111.622 171.197 111.622L173.819 108.67Z" fill="#D3766A"/>
<path d="M174.054 108.625C174.127 108.658 178.318 108.934 179.628 109.584C180.937 110.233 181.204 112.495 180.969 112.994C180.734 113.493 178.768 116.372 177.451 115.751C176.134 115.13 178.055 113.108 178.136 112.811C178.217 112.515 178.33 112.141 178.067 112.048C177.804 111.955 172.477 111.963 172.477 111.963L174.054 108.625Z" fill="#D3766A"/>
<path d="M177.082 115.369C177.052 115.066 177.102 114.761 177.228 114.484C177.335 114.192 177.485 113.919 177.674 113.672C177.859 113.47 178.027 113.253 178.176 113.022C178.291 112.778 178.341 112.508 178.322 112.239C178.322 112.003 178.087 111.975 177.893 111.955C177.602 111.938 177.312 111.938 177.021 111.955L176.089 111.987C175.767 111.986 175.444 112.005 175.124 112.044C175.12 112.046 175.116 112.049 175.114 112.053C175.111 112.057 175.11 112.061 175.11 112.066C175.11 112.071 175.111 112.076 175.114 112.08C175.116 112.084 175.12 112.087 175.124 112.089C175.394 112.103 175.665 112.103 175.935 112.089C176.239 112.089 176.547 112.089 176.851 112.089C177.155 112.089 177.423 112.089 177.71 112.089C177.848 112.074 177.988 112.095 178.116 112.149C178.205 112.218 178.116 112.49 178.116 112.58C178.06 112.844 177.927 113.085 177.735 113.274C177.553 113.476 177.393 113.697 177.256 113.932C177.124 114.152 177.033 114.394 176.989 114.646C176.973 114.887 176.988 115.128 177.033 115.365C177.033 115.41 177.086 115.402 177.082 115.369Z" fill="#263238"/>
<path d="M174.662 108.52C174.743 108.52 178.906 107.98 180.317 108.357C181.727 108.735 182.44 110.895 182.307 111.431C182.173 111.967 180.815 115.182 179.401 114.829C177.986 114.476 179.473 112.121 179.49 111.817C179.506 111.512 179.55 111.118 179.275 111.078C178.999 111.037 173.779 112.105 173.779 112.105L174.662 108.52Z" fill="#D3766A"/>
<path d="M178.963 114.533C178.876 114.241 178.867 113.932 178.934 113.635C178.979 113.325 179.072 113.024 179.21 112.742C179.35 112.506 179.472 112.258 179.575 112.003C179.642 111.737 179.642 111.458 179.575 111.191C179.514 110.964 179.287 110.98 179.092 111C178.804 111.035 178.519 111.088 178.237 111.159C177.933 111.224 177.633 111.301 177.329 111.37C177.014 111.435 176.702 111.519 176.397 111.622C176.373 111.622 176.377 111.666 176.397 111.662C176.67 111.628 176.94 111.58 177.208 111.516L178.112 111.346C178.391 111.297 178.671 111.232 178.955 111.187C179.088 111.154 179.227 111.154 179.36 111.187C179.461 111.236 179.449 111.516 179.449 111.593C179.446 111.863 179.365 112.125 179.214 112.348C179.075 112.582 178.96 112.83 178.874 113.087C178.789 113.33 178.748 113.586 178.752 113.842C178.786 114.081 178.849 114.314 178.938 114.537C178.922 114.581 178.975 114.561 178.963 114.533Z" fill="#263238"/>
<path d="M174.457 122.293L176.413 123.287L183.41 109.479L181.454 108.485L174.457 122.293Z" fill="#263238"/>
<path d="M183.75 115.972L179.85 114.524L178.991 116.846L182.89 118.294L183.75 115.972Z" fill="#263238"/>
<path d="M185.059 115.931L182.524 114.989L181.318 118.248L183.853 119.189L185.059 115.931Z" fill="#263238"/>
<path d="M168.234 110.111C168.234 110.111 172.952 108.788 174.054 108.625C175.513 108.406 177.803 109.125 177.881 110.29C177.881 110.627 176.429 112.04 176.324 112.32C176.024 113.071 176.077 114.756 177.321 115.312C178.566 115.868 180.207 114.443 181.427 114.776C182.647 115.109 180.929 116.831 179.567 117.651C178.186 118.41 176.619 118.762 175.047 118.666C173.799 118.564 169.843 118.426 169.843 118.426L168.234 110.111Z" fill="#D3766A"/>
<path d="M179.251 115.15C178.618 115.288 177.876 115.503 177.256 115.239C176.636 114.975 176.401 114.362 176.352 113.713C176.27 113.056 176.441 112.392 176.831 111.857C177.224 111.395 177.742 111.055 178.322 110.879C179.033 110.667 179.77 110.559 180.511 110.558C180.544 110.558 180.535 110.505 180.511 110.505C179.826 110.505 177.731 110.379 176.644 111.768C176.251 112.316 176.081 112.994 176.17 113.664C176.155 113.979 176.219 114.293 176.356 114.576C176.494 114.86 176.7 115.105 176.956 115.288C177.654 115.694 178.557 115.393 179.287 115.199C179.311 115.174 179.283 115.142 179.251 115.15Z" fill="#263238"/>
<path d="M169.835 108.934L169.101 119.652C169.101 119.652 160.017 119.279 158.06 117.976C156.102 116.672 151.145 108.711 149.288 104.716C147.432 100.721 149.576 100.315 152.162 102.487C154.748 104.659 161.144 109.904 161.452 109.977C161.76 110.05 169.835 108.934 169.835 108.934Z" fill="#455A64"/>
<path d="M167.2 115.426C167.297 114.159 167.403 112.892 167.451 111.622C167.48 110.899 167.512 110.18 167.536 109.458C167.536 109.429 167.488 109.425 167.488 109.458C167.338 110.724 167.196 111.995 167.103 113.27C167.01 114.545 166.916 115.803 166.843 117.07C166.803 117.793 166.783 118.511 166.787 119.234H166.811C166.997 117.971 167.103 116.701 167.2 115.426Z" fill="#263238"/>
<path d="M169.158 118.585L169.085 119.652C169.085 119.652 159.997 119.279 158.043 117.98C156.09 116.68 151.128 108.711 149.272 104.716C147.914 101.796 148.696 100.79 150.225 101.313C154.975 105.56 163.949 113.639 169.158 118.585Z" fill="#37474F"/>
<path d="M136.301 121.772L157.553 122.121L155.887 115.747C155.887 115.747 157.65 114.123 156.775 110.919C156.268 109.043 153.913 105.503 152.434 103.721C148.822 99.3726 145.685 101.338 144.684 102.454C140.861 106.725 136.301 121.772 136.301 121.772Z" fill="#455A64"/>
<path d="M145.592 101.699L150.33 101.809L150.521 101.934L145.417 101.817C145.474 101.776 145.515 101.736 145.592 101.699ZM143.938 103.408L152.328 103.599L152.223 103.473L144.027 103.286L143.938 103.408ZM142.937 105.004L153.609 105.251L153.52 105.13L143.01 104.89C142.983 104.926 142.959 104.964 142.937 105.004V105.004ZM142.09 106.628L154.728 106.92C154.7 106.88 154.675 106.835 154.647 106.79L142.146 106.506C142.126 106.53 142.106 106.571 142.09 106.612V106.628ZM141.319 108.252L155.717 108.581L155.648 108.463L141.376 108.134L141.319 108.252ZM140.614 109.876L156.524 110.241C156.524 110.201 156.491 110.16 156.475 110.115L140.667 109.754L140.614 109.876ZM139.949 111.48L156.973 111.886C156.973 111.849 156.973 111.808 156.973 111.768L140.022 111.362C139.978 111.354 139.962 111.394 139.949 111.431V111.48ZM139.313 113.104L156.957 113.51C156.957 113.469 156.957 113.428 156.957 113.388L139.345 112.982L139.313 113.104ZM138.709 114.728L156.406 115.134L156.471 115.016L138.754 114.61L138.709 114.728ZM138.129 116.352L156.126 116.758L156.094 116.636L138.174 116.23C138.154 116.181 138.146 116.222 138.129 116.262V116.352ZM137.566 117.976L156.552 118.414L156.519 118.292L137.611 117.74C137.599 117.784 137.584 117.828 137.566 117.87V117.976ZM137.031 119.6L156.982 120.058L156.949 119.932L137.088 119.478L137.031 119.6ZM136.512 121.224L157.407 121.703L157.375 121.577L136.549 120.988C136.532 121.016 136.524 121.061 136.512 121.098V121.224Z" fill="white"/>
<path d="M150.2 115.373C151.109 115.291 152.022 115.276 152.932 115.328C153.386 115.361 153.832 115.414 154.282 115.475C154.505 115.507 154.732 115.531 154.955 115.552C155.189 115.582 155.426 115.582 155.66 115.552C155.684 115.552 155.689 115.58 155.66 115.584C155.443 115.637 155.222 115.673 154.999 115.694C154.784 115.708 154.567 115.708 154.351 115.694C153.889 115.665 153.431 115.617 152.973 115.58C152.049 115.515 151.124 115.45 150.196 115.45C150.188 115.447 150.181 115.442 150.177 115.434C150.172 115.427 150.17 115.419 150.17 115.41C150.171 115.402 150.174 115.393 150.179 115.387C150.185 115.38 150.192 115.375 150.2 115.373V115.373Z" fill="#263238"/>
<path d="M148.133 116.567C148.857 116.357 149.592 116.187 150.334 116.059C150.703 115.994 151.076 115.954 151.453 115.921L151.988 115.885C152.186 115.885 152.393 115.885 152.584 115.885C152.604 115.885 152.612 115.913 152.584 115.913C152.401 115.933 152.215 115.982 152.032 116.011L151.477 116.096L150.362 116.274C149.621 116.384 148.879 116.498 148.141 116.632C148.105 116.636 148.097 116.579 148.133 116.567Z" fill="#263238"/>
<path d="M147.189 101.906C147.298 102.288 149.256 104.695 151.011 104.525C151.583 104.468 151.416 101.334 151.416 101.334L151.457 101.102L152 97.8461L148.076 95.5887L147.509 95.2924C147.509 95.2924 147.416 96.2018 147.306 97.3224V97.4848C147.306 97.5497 147.306 97.6106 147.286 97.6675C147.266 97.838 147.249 98.0085 147.233 98.1831C147.217 98.3577 147.213 98.4389 147.205 98.5891C147.197 98.7393 147.205 98.8611 147.177 98.9951C147.115 99.9646 147.119 100.937 147.189 101.906V101.906Z" fill="#D3766A"/>
<path d="M147.322 97.3183C147.695 98.213 148.258 99.0159 148.971 99.6713C149.684 100.327 150.531 100.819 151.453 101.114L152 97.8461L148.076 95.5887L147.509 95.2924C147.509 95.2924 147.432 96.1896 147.322 97.3183Z" fill="#263238"/>
<path d="M156.191 91.9428C157.739 97.574 154.57 99.1371 153.354 99.47C152.255 99.7745 148.47 100.664 146.35 95.2233C144.23 89.7829 146.325 87.29 148.814 86.478C151.303 85.666 154.643 86.3156 156.191 91.9428Z" fill="#D3766A"/>
<path d="M155.133 91.1917C154.995 91.1917 154.866 91.1917 154.728 91.1917C154.589 91.2137 154.447 91.191 154.323 91.1268C154.287 91.0984 154.262 91.0593 154.251 91.0152C154.24 90.9712 154.244 90.9248 154.262 90.8832C154.31 90.805 154.378 90.7411 154.46 90.6983C154.541 90.6555 154.632 90.6352 154.724 90.6396C154.911 90.6217 155.099 90.6737 155.251 90.7857C155.289 90.8124 155.318 90.8505 155.333 90.8944C155.349 90.9384 155.35 90.9861 155.337 91.0309C155.324 91.0756 155.297 91.1152 155.261 91.1441C155.224 91.1729 155.18 91.1896 155.133 91.1917V91.1917Z" fill="#263238"/>
<path d="M151.189 91.9916C151.319 91.9428 151.428 91.8779 151.554 91.817C151.69 91.7723 151.807 91.6837 151.887 91.5653C151.905 91.5231 151.91 91.4758 151.899 91.4309C151.888 91.3861 151.862 91.3462 151.826 91.3176C151.746 91.2716 151.656 91.2474 151.564 91.2474C151.472 91.2474 151.382 91.2716 151.303 91.3176C151.125 91.3878 150.98 91.5226 150.898 91.6952C150.877 91.7362 150.869 91.7828 150.876 91.8284C150.883 91.874 150.904 91.9161 150.937 91.949C150.969 91.9818 151.011 92.0036 151.056 92.0112C151.101 92.0189 151.148 92.012 151.189 91.9916V91.9916Z" fill="#263238"/>
<path d="M152.499 93.3192C152.499 93.3192 152.47 93.3476 152.478 93.3639C152.596 93.7415 152.665 94.1759 152.357 94.4195C152.357 94.4195 152.357 94.4479 152.357 94.4398C152.77 94.2652 152.669 93.6603 152.499 93.3192Z" fill="#263238"/>
<path d="M152.045 93.0146C151.416 93.1364 151.708 94.3869 152.292 94.2732C152.876 94.1595 152.572 92.9091 152.045 93.0146Z" fill="#263238"/>
<path d="M151.814 93.1365C151.724 93.2339 151.647 93.3841 151.518 93.4288C151.388 93.4734 151.222 93.376 151.112 93.2745C151.112 93.2745 151.088 93.2745 151.112 93.2745C151.165 93.5181 151.315 93.7414 151.578 93.717C151.842 93.6927 151.939 93.441 151.943 93.1892C151.907 93.1568 151.854 93.0999 151.814 93.1365Z" fill="#263238"/>
<path d="M154.627 92.7345C154.627 92.7345 154.659 92.7345 154.663 92.7589C154.74 93.1648 154.89 93.5708 155.271 93.6358V93.6561C154.837 93.6926 154.635 93.1161 154.627 92.7345Z" fill="#263238"/>
<path d="M154.878 92.2473C155.49 92.0605 155.822 93.2988 155.259 93.4653C154.695 93.6317 154.367 92.4056 154.878 92.2473Z" fill="#263238"/>
<path d="M155.162 92.2595C155.275 92.3001 155.405 92.3934 155.522 92.3691C155.64 92.3447 155.725 92.1823 155.778 92.0321C155.778 92.0321 155.778 92.0321 155.798 92.0321C155.849 92.1353 155.862 92.2534 155.833 92.3651C155.805 92.4768 155.738 92.5747 155.644 92.6411C155.445 92.7385 155.239 92.5761 155.121 92.3528C155.097 92.3204 155.113 92.2473 155.162 92.2595Z" fill="#263238"/>
<path d="M153.216 96.5063C153.315 96.6044 153.446 96.6647 153.585 96.6768C153.731 96.6467 153.869 96.5858 153.99 96.4982C153.99 96.4982 154.019 96.4982 154.01 96.4982C153.97 96.5859 153.906 96.6608 153.826 96.7145C153.746 96.7683 153.653 96.7988 153.556 96.8027C153.473 96.7998 153.392 96.7709 153.325 96.72C153.258 96.6691 153.209 96.5987 153.184 96.5185C153.155 96.5104 153.184 96.4982 153.216 96.5063Z" fill="#263238"/>
<path d="M154.464 94.7118C154.574 94.9775 154.67 95.2485 154.752 95.5238C154.752 95.5522 154.7 95.5806 154.606 95.6091C154.384 95.7099 154.139 95.7473 153.897 95.7173C153.655 95.6872 153.427 95.5907 153.236 95.4385C153.212 95.4182 153.236 95.3817 153.269 95.3898C153.673 95.54 154.115 95.557 154.529 95.4385C154.529 95.3573 154.124 94.4966 154.16 94.4844C154.375 94.4534 154.594 94.4534 154.809 94.4844C154.379 93.3111 153.767 92.219 153.358 91.0416C153.357 91.0333 153.359 91.025 153.363 91.0177C153.367 91.0105 153.373 91.0047 153.381 91.0012C153.388 90.9976 153.397 90.9965 153.405 90.9979C153.413 90.9993 153.421 91.0032 153.427 91.0091C154.119 92.1668 154.695 93.3909 155.145 94.6631C155.194 94.7971 154.586 94.7321 154.464 94.7118Z" fill="#263238"/>
<path d="M154.533 95.5034C154.441 95.7649 154.283 95.9983 154.075 96.1814C153.96 96.2767 153.819 96.3348 153.67 96.3479C153.342 96.3479 153.24 96.088 153.22 95.8323C153.204 95.6974 153.204 95.5611 153.22 95.4263C153.638 95.5922 154.099 95.6193 154.533 95.5034V95.5034Z" fill="#263238"/>
<path d="M154.075 96.1814C153.96 96.2767 153.819 96.3348 153.67 96.3479C153.342 96.3479 153.24 96.088 153.22 95.8322C153.381 95.7872 153.552 95.7971 153.707 95.8603C153.862 95.9235 153.992 96.0365 154.075 96.1814Z" fill="#FF9BBC"/>
<path d="M146.605 95.877C146.934 95.6188 147.192 95.2799 147.352 94.893C147.513 94.5061 147.571 94.0843 147.521 93.6683C148.432 93.0155 149.152 92.1311 149.609 91.1065C149.609 91.2323 149.499 92.1458 149.434 92.6087C152.932 91.1593 153.488 88.1427 153.488 88.1427C154.318 88.6362 155.028 89.3106 155.563 90.1158C155.563 90.1158 155.117 87.8747 153.65 86.6202C153.167 86.1754 152.574 85.8682 151.932 85.7304C151.291 85.5926 150.624 85.6293 150.002 85.8366C149.056 85.8101 148.122 86.0389 147.295 86.4989C146.468 86.9589 145.781 87.6333 145.304 88.4512C143.488 91.5206 146.605 95.877 146.605 95.877Z" fill="#263238"/>
<path d="M152.077 91.4191C151.56 91.8638 150.979 92.2291 150.354 92.5031C150.354 92.5031 150.354 92.5031 150.354 92.5031C151.319 92.0062 152.126 91.2498 152.685 90.3188C152.921 89.9215 153.106 89.4959 153.236 89.0521C153.398 88.5717 153.463 88.0638 153.427 87.558C153.427 87.5215 153.479 87.5174 153.484 87.558C153.569 88.0537 153.569 88.5604 153.484 89.0561C153.385 89.5454 153.197 90.0121 152.928 90.4325C152.69 90.8052 152.399 91.1415 152.065 91.4312L152.077 91.4191Z" fill="#263238"/>
<path d="M145.215 95.816L144.963 95.747C144.996 95.6293 145.288 94.6062 145.827 94.395C146.366 94.1839 149.775 93.782 149.921 93.7657L149.949 94.0215C148.964 94.1393 146.301 94.4803 145.92 94.6346C145.539 94.7889 145.288 95.5237 145.215 95.816Z" fill="#A6A6A6"/>
<path d="M153.488 93.5018L153.285 93.3435C153.52 93.043 154.096 92.5761 154.675 92.97L154.529 93.1811C154.027 92.8279 153.512 93.4775 153.488 93.5018Z" fill="#A6A6A6"/>
<g opacity="0.9">
<path opacity="0.9" d="M152.345 95.7389C152.194 95.7917 152.037 95.8272 151.878 95.8444C151.519 95.8803 151.158 95.8144 150.834 95.6543C150.511 95.4942 150.239 95.2463 150.049 94.9389C149.86 94.6315 149.76 94.2769 149.762 93.9156C149.764 93.5542 149.867 93.2007 150.06 92.8953C150.253 92.5898 150.527 92.3447 150.852 92.1879C151.177 92.0312 151.539 91.969 151.898 92.0085C152.257 92.048 152.597 92.1877 152.88 92.4115C153.163 92.6353 153.378 92.9343 153.5 93.2745C153.571 93.4671 153.609 93.6701 153.613 93.8753C153.623 94.2799 153.506 94.6774 153.278 95.0117C153.051 95.3461 152.724 95.6004 152.345 95.7389Z" fill="#37474F"/>
<g opacity="0.1">
<path opacity="0.1" d="M152.162 92.0524L149.88 94.5696C149.763 94.2387 149.739 93.8819 149.811 93.5384L151.124 92.0849C151.461 91.9791 151.82 91.9679 152.162 92.0524V92.0524Z" fill="white"/>
<path opacity="0.1" d="M153.281 92.8401L150.784 95.6131C150.676 95.5516 150.572 95.481 150.476 95.4019L153.062 92.5599C153.144 92.646 153.217 92.7398 153.281 92.8401V92.8401Z" fill="white"/>
<path opacity="0.1" d="M153.532 93.38L151.319 95.816H151.234L153.508 93.2988L153.532 93.38Z" fill="white"/>
</g>
</g>
<g opacity="0.9">
<path opacity="0.9" d="M156.317 94.8619C156.275 94.8655 156.233 94.8655 156.191 94.8619C155.458 94.935 154.72 94.2489 154.509 93.2623C154.397 92.7952 154.437 92.3045 154.623 91.8616C154.693 91.6692 154.811 91.4978 154.966 91.3633C155.121 91.2289 155.306 91.1356 155.507 91.0923C155.707 91.049 155.914 91.057 156.111 91.1155C156.307 91.174 156.485 91.2813 156.629 91.4272C156.976 91.7527 157.212 92.1785 157.306 92.6452C157.537 93.713 157.087 94.6995 156.317 94.8619Z" fill="#37474F"/>
<g opacity="0.1">
<path opacity="0.1" d="M157.302 92.6533L155.449 94.6833C155.23 94.5498 155.04 94.3713 154.894 94.1596L156.978 91.8535C157.133 92.0983 157.243 92.3693 157.302 92.6533V92.6533Z" fill="white"/>
<path opacity="0.1" d="M156.252 91.1918L154.485 93.1487C154.483 93.1176 154.483 93.0864 154.485 93.0553L156.195 91.1633L156.252 91.1918Z" fill="white"/>
</g>
</g>
<path d="M146.731 97.1802C146.824 97.1917 146.917 97.1917 147.01 97.1802C147.103 97.1809 147.195 97.1658 147.282 97.1355C147.396 97.1043 147.501 97.0474 147.59 96.9691C147.662 96.9093 147.724 96.8396 147.776 96.762C147.851 96.6524 147.905 96.5299 147.934 96.4007L147.335 94.9228C147.335 94.9228 145.754 93.3638 145.024 93.9606C144.295 94.5574 145.721 97.0015 146.731 97.1802Z" fill="#D3766A"/>
<path d="M145.458 94.663C145.458 94.663 145.458 94.6874 145.458 94.6914C145.793 94.7868 146.105 94.9518 146.372 95.1756C146.64 95.3994 146.857 95.6771 147.01 95.9906C146.959 95.9306 146.895 95.8824 146.824 95.8494C146.752 95.8163 146.674 95.7992 146.595 95.7992C146.516 95.7992 146.438 95.8163 146.366 95.8494C146.295 95.8824 146.231 95.9306 146.179 95.9906C146.179 95.9906 146.179 96.0272 146.208 96.0231C146.318 95.9637 146.444 95.94 146.568 95.9552C146.692 95.9705 146.808 96.024 146.901 96.1084C147.051 96.2536 147.186 96.4126 147.306 96.5834C147.347 96.6362 147.448 96.5834 147.412 96.5184C147.27 95.6536 146.386 94.5981 145.458 94.663Z" fill="#263238"/>
<path d="M144.12 103.055C140.878 106.303 132.828 118.783 135.162 121.191C137.497 123.599 151.659 120.696 155.486 119.027C156.621 118.532 151.955 111.24 150.622 111.423C149.519 111.577 143.841 113.623 143.691 113.294C143.541 112.965 144.501 110.261 146.017 105.434C147.785 99.876 145.551 101.618 144.12 103.055Z" fill="#D3766A"/>
<path d="M148.157 113.615C149.661 112.098 151.332 110.758 153.139 109.62C154.898 108.593 158.972 106.778 164.273 109.75C165.534 110.456 166.827 112.352 164.355 111.95C162.599 111.662 161.574 110.952 160.52 110.972C160.52 110.972 161.882 113.579 161.128 114.813C160.47 115.894 159.736 116.926 158.931 117.902C158.72 117.794 158.516 117.674 158.319 117.541C158.319 117.541 157.508 118.629 155.482 119.031L148.157 113.615Z" fill="#D3766A"/>
<path d="M154.975 108.906C156.021 109.104 158.218 109.567 159.912 110.578C161.781 111.699 165.072 114.362 164.229 115.734C163.613 116.741 162.267 115.832 162.267 115.832C162.267 115.832 163.398 117.22 162.64 118.008C161.955 118.723 160.954 117.959 160.954 117.959C160.954 117.959 161.493 118.922 160.698 119.482C159.742 120.156 158.765 118.036 157.209 117.882C156.864 117.846 154.975 108.906 154.975 108.906Z" fill="#D3766A"/>
<path d="M158.404 112.356C160.011 113.08 161.36 114.277 162.271 115.787C162.291 115.828 162.271 115.864 162.247 115.832C161.106 114.527 159.812 113.366 158.392 112.373C158.392 112.373 158.392 112.352 158.404 112.356Z" fill="#263238"/>
<path d="M157.326 114.273C158.848 115.14 160.109 116.402 160.974 117.927C160.974 117.967 160.974 118.004 160.95 117.972C159.877 116.609 158.653 115.372 157.302 114.285C157.302 114.285 157.318 114.269 157.326 114.273Z" fill="#263238"/>
<path d="M160.512 110.952C161.359 110.98 162.195 111.159 162.98 111.48C163.408 111.627 163.844 111.749 164.286 111.845C164.691 111.93 165.283 112.06 165.562 111.654C165.622 111.537 165.648 111.406 165.639 111.275C165.63 111.144 165.585 111.019 165.51 110.911C165.301 110.604 165.047 110.33 164.756 110.099C164.756 110.099 164.756 110.071 164.756 110.079C165.036 110.289 165.294 110.527 165.526 110.789C165.68 110.971 165.776 111.194 165.802 111.431C165.802 111.938 165.283 112.166 164.853 112.154C164.595 112.137 164.338 112.096 164.087 112.032C163.848 111.975 163.609 111.906 163.37 111.833C162.883 111.679 162.409 111.5 161.923 111.342C161.455 111.197 160.978 111.083 160.496 111C160.496 111 160.512 110.952 160.512 110.952Z" fill="#263238"/>
<path d="M163.195 113.408C162.352 112.538 161.453 111.725 160.504 110.972C160.504 110.972 160.504 110.944 160.504 110.948C161.539 111.574 162.492 112.327 163.341 113.189C163.801 113.654 164.163 114.206 164.407 114.813C164.517 115.055 164.528 115.331 164.439 115.581C164.35 115.832 164.167 116.038 163.929 116.157C163.685 116.28 163.406 116.317 163.139 116.262C162.819 116.176 162.52 116.027 162.259 115.824C162.259 115.824 162.259 115.791 162.259 115.799C162.473 115.951 162.718 116.052 162.977 116.095C163.235 116.137 163.5 116.119 163.751 116.043C163.959 115.956 164.126 115.789 164.213 115.58C164.28 115.326 164.254 115.057 164.14 114.821C163.905 114.301 163.585 113.824 163.195 113.408V113.408Z" fill="#263238"/>
<path d="M148.964 111.731L152.94 120.915C152.94 120.915 136.038 124.114 134.7 121.138C133.363 118.162 140.257 106.928 143.31 103.709C146.844 99.9614 147.233 101.293 146.366 104.691C145.458 108.248 143.764 113.38 143.764 113.38L148.964 111.731Z" fill="#455A64"/>
<path d="M138.575 115.613C139.374 115.101 140.208 114.647 141.072 114.257C141.927 113.872 142.809 113.552 143.711 113.298C144.222 113.148 144.74 113.022 145.259 112.892C145.259 112.892 145.28 112.913 145.259 112.917C144.354 113.176 143.465 113.488 142.596 113.851C141.733 114.2 140.874 114.569 140.018 114.951C139.536 115.17 139.066 115.41 138.592 115.641L138.575 115.613Z" fill="#263238"/>
<path d="M148.919 111.703C148.834 111.723 143.97 113.124 143.816 113.189C143.837 113.12 145.097 109.299 145.113 109.263C145.203 109.108 145.661 108.268 145.766 108.045C145.648 108.244 145.296 108.723 145.247 108.816C145.34 108.564 145.738 107.281 145.859 106.875C145.859 106.875 145.859 106.875 145.839 106.875C145.211 108.045 143.37 113.607 143.379 113.603C143.387 113.599 148.847 111.8 148.944 111.764C148.952 111.761 148.958 111.754 148.962 111.746C148.965 111.738 148.965 111.729 148.962 111.721C148.959 111.713 148.953 111.707 148.945 111.703C148.937 111.7 148.928 111.7 148.919 111.703V111.703Z" fill="#263238"/>
<path d="M149.025 117.61C148.591 116.583 148.161 115.556 147.683 114.549C147.416 113.976 147.148 113.4 146.873 112.827C146.873 112.827 146.824 112.827 146.832 112.827C147.237 113.875 147.643 114.922 148.076 115.95C148.51 116.977 148.956 118 149.414 119.015C149.684 119.597 149.961 120.167 150.245 120.724H150.265C149.904 119.673 149.467 118.641 149.025 117.61Z" fill="#263238"/>
<path d="M153.155 121.065C152.993 120.781 152.798 120.371 152.628 120.095C152.584 120.022 152.527 120.034 152.563 120.095C152.681 120.351 152.778 120.639 152.896 120.907L152.182 121.021L151.372 121.167C150.837 121.256 150.298 121.341 149.75 121.423C148.669 121.585 147.575 121.72 146.467 121.829C144.269 122.078 142.06 122.213 139.848 122.235C139.232 122.235 138.632 122.235 137.996 122.194C137.385 122.177 136.777 122.126 136.172 122.044C136.172 122.044 136.151 122.068 136.172 122.072C136.691 122.2 137.22 122.289 137.753 122.336C138.312 122.381 138.871 122.413 139.431 122.425C140.545 122.45 141.664 122.425 142.775 122.352C144.984 122.226 147.189 122.003 149.377 121.695C149.994 121.605 150.593 121.512 151.218 121.41L152.142 121.252C152.484 121.219 152.823 121.157 153.155 121.065Z" fill="#263238"/>
<path d="M186.984 114.151C186.044 114.639 185.187 115.275 184.447 116.035C183.438 117.151 182.153 120.631 182.153 120.631C182.153 120.631 193.725 121.812 193.693 120.947C193.66 120.083 186.984 114.151 186.984 114.151Z" fill="#263238"/>
<path d="M107.77 116.766C107.77 116.766 106.197 106.778 105.537 106.327C104.876 105.877 95.6181 105.824 94.998 106.226C94.3778 106.628 94.0738 111.005 93.5469 111.098C93.02 111.191 89.8624 111.561 88.845 111.938C87.8276 112.316 87.7831 115.69 87.7831 115.69L107.77 116.766Z" fill="#C53F3F"/>
<path opacity="0.5" d="M107.77 116.766C107.77 116.766 106.197 106.778 105.537 106.327C104.876 105.877 95.6181 105.824 94.998 106.226C94.3778 106.628 94.0738 111.005 93.5469 111.098C93.02 111.191 89.8624 111.561 88.845 111.938C87.8276 112.316 87.7831 115.69 87.7831 115.69L107.77 116.766Z" fill="white"/>
<path d="M255.044 164.316L204.997 164.649C204.997 164.649 207.673 133.643 231.749 135.726C255.826 137.809 255.044 164.316 255.044 164.316Z" fill="#C53F3F"/>
<path opacity="0.5" d="M255.044 164.316L204.997 164.649C204.997 164.649 207.673 133.643 231.749 135.726C255.826 137.809 255.044 164.316 255.044 164.316Z" fill="black"/>
<path d="M105.249 164.284L55.3442 160.508C55.3442 160.508 60.5446 129.823 84.3701 133.879C108.196 137.934 105.249 164.284 105.249 164.284Z" fill="#C53F3F"/>
<path opacity="0.5" d="M105.249 164.284L55.3442 160.508C55.3442 160.508 60.5446 129.823 84.3701 133.879C108.196 137.934 105.249 164.284 105.249 164.284Z" fill="black"/>
<path opacity="0.6" d="M216.043 118L217.105 118.609C217.105 118.609 210.396 119.23 208.917 119.064C207.437 118.897 181.184 102.6 180.819 102.442C180.454 102.284 163.37 95.816 163.37 95.816C163.37 95.816 186.778 103.282 188.289 103.83C189.801 104.379 216.043 118 216.043 118Z" fill="white"/>
<path d="M276.259 159.477C276.259 159.477 271.209 164.101 269.64 164.532C268.071 164.962 253.548 166.265 252.689 165.981C251.83 165.697 256.264 139.258 231.445 137.776C206.627 136.294 209.355 167.089 208.747 167.077C208.139 167.065 102.707 166.265 102.233 165.831C101.759 165.396 105.419 137.472 81.318 137.167C58.2423 136.875 59.5556 162.441 58.6436 162.469C57.7316 162.498 40.0307 160.37 38.5431 159.964C37.0556 159.558 34.8951 155.25 34.7371 154.877C34.579 154.503 35.0492 153.517 35.0492 153.517C35.0492 153.517 32.7631 146.209 32.6455 143.302C32.528 140.395 37.9959 132.32 37.9959 132.32L41.8345 119.38C41.8345 119.38 40.0429 118.309 39.8078 117.939C39.5727 117.57 39.3173 116.177 39.3173 116.177L76.3081 113.132C76.7307 112.835 77.1814 112.581 77.6538 112.373C78.0591 112.267 80.4384 112.198 80.4384 112.198C80.4384 112.198 84.3134 115.138 85.8982 115.519C87.4831 115.901 192.533 121.045 193.117 120.858C193.701 120.671 178.667 105.775 177.131 104.362C175.594 102.95 162.506 99.3321 162.348 98.9464C162.19 98.5607 162.154 95.4954 162.567 95.54C162.98 95.5847 179.498 101.663 181.391 102.718C183.284 103.774 208.548 118.71 209.294 119.007C210.04 119.303 217.036 118.658 217.105 118.601C217.174 118.544 216.043 118.146 216.043 118C216.043 117.854 217.903 118.284 218.304 118.284C218.706 118.284 248.858 122.783 253.816 124.549C258.773 126.315 266.174 130.866 269.498 134.065C272.822 137.265 275.882 142.137 276.437 142.465C276.993 142.794 278.33 142.872 278.565 144.995C278.8 147.118 278.5 149.298 278.03 149.753C277.56 150.208 276.048 150.683 275.894 150.858C275.74 151.032 275.537 156.136 275.615 156.322C275.692 156.509 276.304 156.655 276.368 157.106C276.433 157.557 276.567 158.969 276.259 159.477Z" fill="#C53F3F"/>
<path opacity="0.3" d="M212.719 147.784C212.14 148.896 211.64 150.048 211.223 151.231C192.983 150.658 110.259 148.019 110.421 147.216C110.583 146.412 198.155 147.561 212.719 147.784Z" fill="white"/>
<path d="M250.62 162.012C252.131 151.132 244.551 141.084 233.688 139.571C222.826 138.057 212.795 145.65 211.284 156.53C209.773 167.411 217.354 177.458 228.216 178.971C239.078 180.485 249.109 172.892 250.62 162.012Z" fill="#263238"/>
<path d="M236.771 172.586C244.109 169.377 247.46 160.816 244.256 153.466C241.051 146.115 232.505 142.759 225.166 145.968C217.828 149.178 214.477 157.739 217.681 165.089C220.886 172.44 229.433 175.796 236.771 172.586Z" fill="#DBDBDB"/>
<path d="M240.418 168.749C245.638 163.52 245.638 155.042 240.418 149.813C235.197 144.584 226.733 144.584 221.513 149.813C216.292 155.042 216.292 163.52 221.513 168.749C226.733 173.979 235.197 173.979 240.418 168.749Z" fill="#A6A6A6"/>
<path d="M228.405 156.261L232.56 155.656C230.862 153.833 234.72 146.038 234.72 146.038L232.43 145.632C231.34 148.344 230.72 149.185 229.524 149.359C228.328 149.534 227.497 148.905 225.669 146.619L223.598 147.67C223.598 147.67 229.512 154.028 228.405 156.261Z" fill="#DBDBDB"/>
<path d="M232.945 155.859L234.806 159.631C236.022 157.451 244.602 158.718 244.602 158.718L244.286 156.403C241.376 156.205 240.387 155.872 239.852 154.779C239.317 153.687 239.657 152.705 241.262 150.265L239.641 148.612C239.641 148.612 235.409 156.225 232.945 155.859Z" fill="#DBDBDB"/>
<path d="M234.733 160.057L231.725 162.997C234.157 163.472 235.62 172.047 235.62 172.047L237.72 171.032C237.011 168.19 237.019 167.154 237.886 166.31C238.754 165.465 239.791 165.478 242.608 166.257L243.67 164.187C243.67 164.187 235.146 162.518 234.733 160.057Z" fill="#DBDBDB"/>
<path d="M231.295 163.058L227.578 161.101C227.882 163.577 220.189 167.597 220.189 167.597L221.811 169.282C224.283 167.731 225.276 167.418 226.346 167.978C227.416 168.539 227.724 169.542 227.858 172.465L230.152 172.834C230.152 172.834 229.09 164.215 231.295 163.058Z" fill="#DBDBDB"/>
<path d="M227.392 160.711L228.097 156.566C225.844 157.617 219.634 151.536 219.634 151.536L218.535 153.59C220.773 155.47 221.373 156.318 221.17 157.512C220.967 158.705 220.116 159.306 217.38 160.354L217.737 162.656C217.737 162.656 225.609 158.965 227.392 160.711Z" fill="#DBDBDB"/>
<path d="M227.112 159.749C227.223 160.509 227.556 161.22 228.07 161.79C228.584 162.361 229.255 162.766 229.999 162.955C230.742 163.144 231.525 163.107 232.248 162.85C232.971 162.593 233.602 162.127 234.061 161.511C234.519 160.895 234.785 160.157 234.825 159.389C234.864 158.622 234.676 157.86 234.283 157.2C233.89 156.539 233.311 156.011 232.618 155.68C231.926 155.35 231.151 155.233 230.391 155.344C229.887 155.417 229.403 155.59 228.965 155.851C228.528 156.112 228.146 156.457 227.841 156.866C227.537 157.275 227.315 157.74 227.19 158.235C227.065 158.729 227.039 159.244 227.112 159.749V159.749Z" fill="#DBDBDB"/>
<path d="M91.1506 176.179C100.446 170.349 103.264 158.076 97.4439 148.765C91.6242 139.455 79.3711 136.633 70.0757 142.462C60.7803 148.291 57.9627 160.564 63.7824 169.875C69.6021 179.186 81.8552 182.008 91.1506 176.179Z" fill="#263238"/>
<path d="M91.6144 168.787C96.8276 162.699 96.1265 153.53 90.0485 148.308C83.9705 143.087 74.8172 143.789 69.604 149.877C64.3908 155.965 65.0919 165.133 71.1699 170.355C77.2479 175.577 86.4012 174.875 91.6144 168.787Z" fill="#DBDBDB"/>
<path d="M93.439 163.093C95.5149 155.997 91.4541 148.558 84.3691 146.479C77.284 144.4 69.8576 148.467 67.7818 155.564C65.706 162.66 69.7667 170.099 76.8518 172.178C83.9368 174.258 91.3632 170.19 93.439 163.093Z" fill="#A6A6A6"/>
<path d="M78.051 156.31L82.2057 155.705C80.5073 153.878 84.3661 146.087 84.3661 146.087L82.0719 145.681C80.9815 148.393 80.3614 149.234 79.1657 149.408C77.9699 149.583 77.139 148.953 75.315 146.668L73.2397 147.719C73.2397 147.719 79.1575 154.077 78.051 156.31Z" fill="#DBDBDB"/>
<path d="M82.5907 155.904L84.4471 159.672C85.6631 157.492 94.2481 158.758 94.2481 158.758L93.9319 156.448C91.0216 156.249 90.0326 155.916 89.4976 154.824C88.9625 153.732 89.299 152.749 90.9081 150.305L89.2868 148.657C89.2868 148.657 85.0511 156.269 82.5907 155.904Z" fill="#DBDBDB"/>
<path d="M84.3742 160.106L81.3707 163.042C83.8027 163.521 85.2659 172.095 85.2659 172.095L87.3615 171.08C86.6522 168.238 86.6643 167.203 87.5277 166.355C88.391 165.506 89.4368 165.543 92.2498 166.306L93.3118 164.231C93.3118 164.231 84.7917 162.567 84.3742 160.106Z" fill="#DBDBDB"/>
<path d="M80.941 163.106L77.2241 161.15C77.524 163.626 69.8308 167.646 69.8308 167.646L71.4521 169.33C73.9247 167.78 74.9177 167.467 75.9878 168.027C77.0579 168.587 77.366 169.59 77.4957 172.493L79.7899 172.867C79.7899 172.867 78.7319 164.259 80.941 163.106Z" fill="#DBDBDB"/>
<path d="M77.0133 160.776L77.7227 156.631C75.465 157.682 69.2593 151.6 69.2593 151.6L68.1568 153.655C70.3942 155.535 70.9941 156.383 70.7955 157.577C70.5969 158.77 69.7376 159.371 67.0056 160.399L67.3623 162.701C67.3623 162.701 75.2501 159.014 77.0133 160.776Z" fill="#DBDBDB"/>
<path d="M76.7539 159.798C76.8644 160.558 77.1975 161.268 77.711 161.839C78.2245 162.41 78.8955 162.815 79.639 163.004C80.3825 163.193 81.1652 163.157 81.8882 162.9C82.6112 162.643 83.242 162.178 83.7009 161.562C84.1597 160.947 84.4261 160.208 84.4662 159.441C84.5064 158.674 84.3185 157.912 83.9264 157.252C83.5342 156.591 82.9555 156.062 82.2632 155.731C81.5709 155.4 80.7963 155.282 80.0371 155.392C79.0193 155.542 78.1022 156.09 77.4868 156.915C76.8714 157.741 76.6079 158.778 76.7539 159.798V159.798Z" fill="#DBDBDB"/>
<path d="M41.6723 119.961C40.2699 120.367 37.546 124.167 37.4123 124.91C37.2785 125.653 37.092 130.541 37.6636 131.183C38.2351 131.824 40.1969 133.335 41.6723 133.18C43.1477 133.026 52.4744 128.601 53.0216 127.902C53.5688 127.204 53.5324 123.57 52.6163 122.531C51.7003 121.492 43.4598 119.462 41.6723 119.961Z" fill="white"/>
<path d="M53.0338 127.922C52.4744 128.605 43.1477 133.026 41.6845 133.18C40.5617 133.298 39.1511 132.441 38.2959 131.747C39.4673 132.275 40.5171 132.429 41.2953 132.234C42.0736 132.039 51.0233 128.211 51.7651 127.297C52.5069 126.384 52.1137 123.396 51.9232 122.876C51.7327 122.356 44.2908 120.034 44.2908 120.034C47.6469 120.338 51.9921 121.833 52.6244 122.535C53.5405 123.586 53.5932 127.236 53.0338 127.922Z" fill="#EBEBEB"/>
<path d="M250.516 129.786C251.521 132.129 260.694 137.366 264.241 138.499C266.474 139.213 274.338 140.882 274.857 140.529C275.375 140.176 272.335 134.313 270.548 132.73C268.76 131.146 259.344 126.368 256.329 126.063C253.313 125.759 249.499 127.419 250.516 129.786Z" fill="white"/>
<path d="M274.861 140.537C274.338 140.886 266.478 139.213 264.241 138.507C260.694 137.37 251.521 132.137 250.512 129.79C249.503 127.443 253.313 125.779 256.329 126.079C256.564 126.103 256.796 126.142 257.026 126.197C254.087 126.814 253.196 128.913 254.711 130.411C256.227 131.909 261.237 135.624 263.325 136.554C265.351 137.451 272.968 139.822 273.718 139.396C273.87 139.262 273.99 139.095 274.07 138.908C274.15 138.721 274.187 138.519 274.18 138.316C274.739 139.481 275.055 140.407 274.861 140.537Z" fill="#EBEBEB"/>
<g opacity="0.1">
<path opacity="0.1" d="M252.523 162.433C252.571 164.544 252.494 165.916 252.689 165.981C253.548 166.265 268.067 164.97 269.64 164.532C271.213 164.093 276.259 159.473 276.259 159.473C276.259 159.473 276.283 159.432 276.291 159.408C271.008 161.181 265.503 162.202 259.936 162.441C258.923 162.477 256.357 162.473 252.523 162.433Z" fill="black"/>
<path opacity="0.1" d="M102.01 159.197C102.314 162.948 102.067 165.693 102.213 165.831C102.683 166.277 208.106 167.049 208.722 167.077C208.889 167.077 208.812 164.868 209.091 161.657C176.892 160.983 135.321 160.017 102.01 159.197Z" fill="black"/>
<path opacity="0.1" d="M34.737 154.889C34.8951 155.263 37.0515 159.582 38.5431 159.976C40.0348 160.37 57.7032 162.502 58.6152 162.473C58.8544 162.473 58.9436 160.707 59.357 158.117C53.5089 157.952 47.6762 157.431 41.8912 156.558C39.4319 156.014 37.1058 154.985 35.0492 153.529C35.0492 153.529 34.579 154.52 34.737 154.889Z" fill="black"/>
</g>
<g opacity="0.2">
<path opacity="0.2" d="M200.527 161.474C200.527 155.291 200.733 146.298 200.851 140.021C200.895 138.235 200.94 136.449 200.964 134.662C201.002 134.355 200.974 134.044 200.883 133.749C199.481 131.114 194.71 123.526 193.117 120.858C195.602 124.569 198.058 128.304 200.381 132.125C200.689 132.717 201.191 133.318 201.325 133.972C201.276 143.148 200.92 152.311 200.514 161.474H200.527Z" fill="black"/>
<path opacity="0.2" d="M124.997 117.659L123.712 122.799C123.262 124.926 122.496 127.07 122.443 129.242C122.67 136.802 122.889 146.822 122.97 154.414L122.994 159.712L122.771 154.434C122.516 147.382 122.257 137.63 122.131 130.594C122.131 129.814 122.038 128.686 122.232 127.922C122.986 124.455 123.987 121.069 124.997 117.683V117.659Z" fill="black"/>
<path opacity="0.2" d="M63.8967 145.498C60.2852 143.647 56.7223 141.702 53.2324 139.623C52.6186 139.217 52.0785 138.709 51.6354 138.121C51.0112 137.399 50.387 136.672 49.7911 135.925C48.5751 134.439 47.4078 132.941 46.2688 131.406L48.1577 133.558C49.5844 135.153 51.4814 137.524 53.0014 139.01C56.6048 141.211 60.2974 143.257 63.8967 145.506V145.498Z" fill="black"/>
<path opacity="0.2" d="M250.22 128.296C240.667 127.078 230.971 125.775 221.466 124.179C217.332 122.62 213.335 120.789 209.306 119.019C211.203 119.75 219.845 123.262 221.567 123.838C230.586 125.271 241.246 126.757 250.233 128.304L250.22 128.296Z" fill="black"/>
<path opacity="0.2" d="M140.245 130.111C139.99 130.992 139.649 132.084 138.75 132.502C137.539 132.637 136.318 132.668 135.102 132.596C133.89 132.573 132.682 132.451 131.49 132.23C131.348 132.199 131.212 132.147 131.085 132.076C130.461 131.503 130.226 130.679 129.97 129.908C130.315 130.586 130.647 131.382 131.231 131.865C131.465 131.941 131.707 131.989 131.952 132.007C134.056 132.181 136.208 132.246 138.32 132.259C138.559 132.287 138.799 132.22 138.989 132.072C139.553 131.522 139.987 130.852 140.257 130.111H140.245Z" fill="black"/>
<path opacity="0.2" d="M140.318 128.73C140.112 128.008 139.868 127.106 139.264 126.664C139.018 126.595 138.766 126.55 138.511 126.53C136.893 126.386 135.269 126.347 133.647 126.412C132.548 126.412 131.555 126.619 130.785 127.452C130.387 127.812 130.05 128.234 129.788 128.702C129.99 128.188 130.287 127.717 130.663 127.313C131.029 126.883 131.484 126.536 131.997 126.298C132.533 126.14 133.087 126.048 133.647 126.026C135.285 125.921 136.93 125.986 138.555 126.221C138.841 126.263 139.121 126.336 139.39 126.441C140.071 127.001 140.201 127.922 140.318 128.73V128.73Z" fill="black"/>
<path opacity="0.2" d="M139.986 128.645C141.66 129.011 141.555 129.993 139.881 130.196C137.785 130.403 135.677 130.375 133.578 130.383C132.281 130.289 130.846 130.545 129.601 129.977C128.973 129.668 128.791 128.97 129.516 128.621C130.842 128.105 132.321 128.377 133.695 128.32C135.796 128.324 137.896 128.434 139.986 128.649V128.645ZM139.986 128.645C136.877 128.304 133.683 128.487 130.57 128.706C130.055 128.751 128.835 129.112 129.788 129.624C130.469 129.973 131.247 129.904 132.013 129.965C134.615 130.058 137.282 130.277 139.872 130.139C141.53 129.989 141.648 129.027 139.986 128.645V128.645Z" fill="black"/>
</g>
<path d="M275.898 150.858C275.898 150.858 266.446 151.698 266.328 151.67C266.211 151.641 265.923 150.338 265.133 150.301C264.342 150.265 261.598 152.611 261.16 154.869C260.723 157.126 261.237 158.819 262.668 158.649C264.099 158.478 266.053 155.579 266.053 155.579C266.053 155.579 273.308 155.173 273.483 155.307C273.774 155.57 274.084 155.81 274.411 156.026C274.806 156.163 275.213 156.263 275.627 156.322L275.898 150.858Z" fill="#263238"/>
<path d="M186.129 125.085C185.489 124.122 187.009 116.965 187.71 116.49C188.411 116.015 196.485 117.107 196.222 121.694C195.958 126.282 187.126 126.591 186.129 125.085Z" fill="#C53F3F"/>
<path opacity="0.1" d="M186.129 125.085C185.489 124.122 187.009 116.965 187.71 116.49C188.411 116.015 196.485 117.107 196.222 121.694C195.958 126.282 187.126 126.591 186.129 125.085Z" fill="black"/>
<g opacity="0.4">
<path opacity="0.4" d="M105.148 148.828C103.036 142.051 97.9974 136.213 91.4351 133.469C83.7946 130.395 74.4962 130.476 67.4353 134.999C63.0844 137.855 59.6942 141.958 57.7073 146.773C58.5636 144.3 59.8058 141.979 61.3877 139.896C68.25 130.639 80.3492 128.528 90.7825 132.445C97.8758 135.093 103.348 141.552 105.127 148.836L105.148 148.828Z" fill="white"/>
<path opacity="0.4" d="M255.319 149.274C253.208 142.494 248.169 136.656 241.607 133.911C233.967 130.838 224.668 130.923 217.607 135.446C213.256 138.3 209.865 142.404 207.879 147.22C208.742 144.741 209.993 142.416 211.584 140.33C218.446 131.077 230.546 128.962 240.979 132.88C248.072 135.527 253.544 141.99 255.324 149.274H255.319Z" fill="white"/>
<path opacity="0.4" d="M185.853 129.92C154.116 128.702 122.058 126.936 90.3812 124.642C122.119 125.86 154.177 127.63 185.853 129.92Z" fill="white"/>
</g>
</svg>
